<?xml version="1.0" encoding="utf-8" standalone="no"?>
<!DOCTYPE svg PUBLIC "-//W3C//DTD SVG 1.1//EN"
  "http://www.w3.org/Graphics/SVG/1.1/DTD/svg11.dtd">
<svg xmlns:xlink="http://www.w3.org/1999/xlink" width="565.720287pt" height="495.757773pt" viewBox="0 0 565.720287 495.757773" xmlns="http://www.w3.org/2000/svg" version="1.1">
 <metadata>
  <rdf:RDF xmlns:dc="http://purl.org/dc/elements/1.1/" xmlns:cc="http://creativecommons.org/ns#" xmlns:rdf="http://www.w3.org/1999/02/22-rdf-syntax-ns#">
   <cc:Work>
    <dc:type rdf:resource="http://purl.org/dc/dcmitype/StillImage"/>
    <dc:date>2026-05-05T12:41:27.321742</dc:date>
    <dc:format>image/svg+xml</dc:format>
    <dc:creator>
     <cc:Agent>
      <dc:title>Matplotlib v3.5.2, https://matplotlib.org/</dc:title>
     </cc:Agent>
    </dc:creator>
   </cc:Work>
  </rdf:RDF>
 </metadata>
 <defs>
  <style type="text/css">*{stroke-linejoin: round; stroke-linecap: butt}</style>
 </defs>
 <g id="figure_1">
  <g id="patch_1">
   <path d="M 0 495.757773 
L 565.720287 495.757773 
L 565.720287 0 
L 0 0 
z
" style="fill: #ffffff"/>
  </g>
  <g id="axes_1">
   <g id="patch_2">
    <path d="M 81.221688 376.773619 
L 556.109354 376.773619 
L 556.109354 7.2 
L 81.221688 7.2 
z
" style="fill: #ffffff"/>
   </g>
   <g id="PolyCollection_1">
    <defs>
     <path id="mb0efcadbea" d="M 135.221132 -135.782954 
L 132.067573 -135.782954 
L 131.609543 -138.655312 
L 131.043346 -141.527669 
L 130.35577 -144.400026 
L 129.537492 -147.272383 
L 128.584527 -150.144741 
L 127.498993 -153.017098 
L 126.288995 -155.889455 
L 124.967691 -158.761813 
L 123.551829 -161.63417 
L 122.060179 -164.506527 
L 120.51229 -167.378884 
L 118.927807 -170.251242 
L 117.326343 -173.123599 
L 115.727657 -175.995956 
L 114.151767 -178.868314 
L 112.618689 -181.740671 
L 111.147733 -184.613028 
L 109.756522 -187.485385 
L 108.460177 -190.357743 
L 107.271062 -193.2301 
L 106.199359 -196.102457 
L 105.254325 -198.974815 
L 104.445761 -201.847172 
L 103.784934 -204.719529 
L 103.284312 -207.591886 
L 102.955767 -210.464244 
L 102.807491 -213.336601 
L 102.840398 -216.208958 
L 103.045112 -219.081316 
L 103.400609 -221.953673 
L 103.875168 -224.82603 
L 104.429667 -227.698388 
L 105.02257 -230.570745 
L 105.615532 -233.443102 
L 106.178382 -236.315459 
L 106.692467 -239.187817 
L 107.151786 -242.060174 
L 107.56189 -244.932531 
L 107.936968 -247.804889 
L 108.295913 -250.677246 
L 108.658229 -253.549603 
L 109.040618 -256.42196 
L 109.454849 -259.294318 
L 109.907214 -262.166675 
L 110.399529 -265.039032 
L 110.931291 -267.91139 
L 111.502346 -270.783747 
L 112.115307 -273.656104 
L 112.776982 -276.528461 
L 113.498335 -279.400819 
L 114.292853 -282.273176 
L 115.173594 -285.145533 
L 116.149591 -288.017891 
L 117.222442 -290.890248 
L 118.383926 -293.762605 
L 119.615252 -296.634962 
L 120.888183 -299.50732 
L 122.167841 -302.379677 
L 123.416675 -305.252034 
L 124.598826 -308.124392 
L 125.684109 -310.996749 
L 126.650952 -313.869106 
L 127.487902 -316.741463 
L 128.1936 -319.613821 
L 128.775426 -322.486178 
L 129.247238 -325.358535 
L 129.626701 -328.230893 
L 129.932724 -331.10325 
L 130.18338 -333.975607 
L 130.394527 -336.847964 
L 130.579153 -339.720322 
L 130.747296 -342.592679 
L 130.906318 -345.465036 
L 131.061277 -348.337394 
L 131.215223 -351.209751 
L 131.369353 -354.082108 
L 131.52308 -356.954466 
L 131.674154 -359.826823 
L 131.818975 -362.69918 
L 131.953165 -365.571537 
L 132.072374 -368.443895 
L 132.173176 -371.316252 
L 132.253854 -374.188609 
L 132.31487 -377.060967 
L 132.358914 -379.933324 
L 132.390497 -382.805681 
L 132.415211 -385.678038 
L 132.438808 -388.550396 
L 132.466325 -391.422753 
L 132.501411 -394.29511 
L 132.545985 -397.167468 
L 132.600244 -400.039825 
L 132.662985 -402.912182 
L 132.732124 -405.784539 
L 132.805267 -408.656897 
L 132.880197 -411.529254 
L 132.955187 -414.401611 
L 133.029079 -417.273969 
L 133.101183 -420.146326 
L 134.187521 -420.146326 
L 134.187521 -420.146326 
L 134.259625 -417.273969 
L 134.333517 -414.401611 
L 134.408507 -411.529254 
L 134.483437 -408.656897 
L 134.55658 -405.784539 
L 134.625719 -402.912182 
L 134.68846 -400.039825 
L 134.742719 -397.167468 
L 134.787293 -394.29511 
L 134.822379 -391.422753 
L 134.849896 -388.550396 
L 134.873493 -385.678038 
L 134.898207 -382.805681 
L 134.92979 -379.933324 
L 134.973834 -377.060967 
L 135.03485 -374.188609 
L 135.115528 -371.316252 
L 135.21633 -368.443895 
L 135.335539 -365.571537 
L 135.469729 -362.69918 
L 135.61455 -359.826823 
L 135.765624 -356.954466 
L 135.919351 -354.082108 
L 136.073481 -351.209751 
L 136.227427 -348.337394 
L 136.382387 -345.465036 
L 136.541408 -342.592679 
L 136.709551 -339.720322 
L 136.894177 -336.847964 
L 137.105324 -333.975607 
L 137.35598 -331.10325 
L 137.662003 -328.230893 
L 138.041467 -325.358535 
L 138.513278 -322.486178 
L 139.095105 -319.613821 
L 139.800802 -316.741463 
L 140.637752 -313.869106 
L 141.604595 -310.996749 
L 142.689878 -308.124392 
L 143.872029 -305.252034 
L 145.120863 -302.379677 
L 146.400521 -299.50732 
L 147.673452 -296.634962 
L 148.904778 -293.762605 
L 150.066262 -290.890248 
L 151.139113 -288.017891 
L 152.11511 -285.145533 
L 152.995851 -282.273176 
L 153.790369 -279.400819 
L 154.511722 -276.528461 
L 155.173397 -273.656104 
L 155.786358 -270.783747 
L 156.357413 -267.91139 
L 156.889175 -265.039032 
L 157.38149 -262.166675 
L 157.833855 -259.294318 
L 158.248086 -256.42196 
L 158.630475 -253.549603 
L 158.992791 -250.677246 
L 159.351736 -247.804889 
L 159.726814 -244.932531 
L 160.136918 -242.060174 
L 160.596237 -239.187817 
L 161.110322 -236.315459 
L 161.673172 -233.443102 
L 162.266134 -230.570745 
L 162.859037 -227.698388 
L 163.413536 -224.82603 
L 163.888095 -221.953673 
L 164.243592 -219.081316 
L 164.448306 -216.208958 
L 164.481213 -213.336601 
L 164.332937 -210.464244 
L 164.004392 -207.591886 
L 163.50377 -204.719529 
L 162.842943 -201.847172 
L 162.034379 -198.974815 
L 161.089346 -196.102457 
L 160.017642 -193.2301 
L 158.828527 -190.357743 
L 157.532182 -187.485385 
L 156.140971 -184.613028 
L 154.670015 -181.740671 
L 153.136937 -178.868314 
L 151.561047 -175.995956 
L 149.962361 -173.123599 
L 148.360897 -170.251242 
L 146.776414 -167.378884 
L 145.228525 -164.506527 
L 143.736875 -161.63417 
L 142.321013 -158.761813 
L 140.999709 -155.889455 
L 139.789711 -153.017098 
L 138.704177 -150.144741 
L 137.751212 -147.272383 
L 136.932934 -144.400026 
L 136.245358 -141.527669 
L 135.679161 -138.655312 
L 135.221132 -135.782954 
z
" style="stroke: #000000; stroke-opacity: 0.8"/>
    </defs>
    <g clip-path="url(#p74cea2e5be)">
     <use xlink:href="#mb0efcadbea" x="0" y="495.757773" style="fill: #ff9896; fill-opacity: 0.8; stroke: #000000; stroke-opacity: 0.8"/>
    </g>
   </g>
   <g id="PolyCollection_2">
    <defs>
     <path id="m14fe876818" d="M 260.156792 -146.401363 
L 253.826804 -146.401363 
L 253.105054 -149.214269 
L 252.293964 -152.027176 
L 251.398776 -154.840083 
L 250.42685 -157.652989 
L 249.386736 -160.465896 
L 248.287192 -163.278803 
L 247.136357 -166.09171 
L 245.941267 -168.904616 
L 244.707787 -171.717523 
L 243.440957 -174.53043 
L 242.14561 -177.343336 
L 240.827095 -180.156243 
L 239.491918 -182.96915 
L 238.14821 -185.782056 
L 236.805955 -188.594963 
L 235.477058 -191.40787 
L 234.175275 -194.220777 
L 232.91607 -197.033683 
L 231.716361 -199.84659 
L 230.594072 -202.659497 
L 229.567421 -205.472403 
L 228.65391 -208.28531 
L 227.869087 -211.098217 
L 227.225303 -213.911124 
L 226.730704 -216.72403 
L 226.388747 -219.536937 
L 226.198389 -222.349844 
L 226.154936 -225.16275 
L 226.251355 -227.975657 
L 226.479715 -230.788564 
L 226.832385 -233.601471 
L 227.302683 -236.414377 
L 227.884831 -239.227284 
L 228.573254 -242.040191 
L 229.361442 -244.853097 
L 230.240702 -247.666004 
L 231.199143 -250.478911 
L 232.221192 -253.291818 
L 233.287812 -256.104724 
L 234.377444 -258.917631 
L 235.467568 -261.730538 
L 236.536643 -264.543444 
L 237.566102 -267.356351 
L 238.542089 -270.169258 
L 239.456635 -272.982165 
L 240.30809 -275.795071 
L 241.100737 -278.607978 
L 241.843681 -281.420885 
L 242.549204 -284.233791 
L 243.230888 -287.046698 
L 243.901781 -289.859605 
L 244.572877 -292.672511 
L 245.252045 -295.485418 
L 245.943453 -298.298325 
L 246.64744 -301.111232 
L 247.360699 -303.924138 
L 248.076665 -306.737045 
L 248.78602 -309.549952 
L 249.477282 -312.362858 
L 250.137494 -315.175765 
L 250.753075 -317.988672 
L 251.310834 -320.801579 
L 251.799116 -323.614485 
L 252.20899 -326.427392 
L 252.535305 -329.240299 
L 252.777448 -332.053205 
L 252.939649 -334.866112 
L 253.030755 -337.679019 
L 253.063481 -340.491926 
L 253.053239 -343.304832 
L 253.016723 -346.117739 
L 252.970452 -348.930646 
L 252.92948 -351.743552 
L 252.9064 -354.556459 
L 252.910763 -357.369366 
L 252.948879 -360.182273 
L 253.023973 -362.995179 
L 253.13657 -365.808086 
L 253.285002 -368.620993 
L 253.465918 -371.433899 
L 253.674728 -374.246806 
L 253.905952 -377.059713 
L 254.153489 -379.872619 
L 254.410833 -382.685526 
L 254.671296 -385.498433 
L 254.928262 -388.31134 
L 255.17548 -391.124246 
L 255.407389 -393.937153 
L 255.619434 -396.75006 
L 255.808323 -399.562966 
L 255.972208 -402.375873 
L 256.11074 -405.18878 
L 256.225005 -408.001687 
L 256.317332 -410.814593 
L 256.391008 -413.6275 
L 256.449904 -416.440407 
L 256.498072 -419.253313 
L 256.539351 -422.06622 
L 256.577016 -424.879127 
L 257.40658 -424.879127 
L 257.40658 -424.879127 
L 257.444245 -422.06622 
L 257.485524 -419.253313 
L 257.533692 -416.440407 
L 257.592588 -413.6275 
L 257.666263 -410.814593 
L 257.758591 -408.001687 
L 257.872856 -405.18878 
L 258.011388 -402.375873 
L 258.175273 -399.562966 
L 258.364162 -396.75006 
L 258.576207 -393.937153 
L 258.808116 -391.124246 
L 259.055334 -388.31134 
L 259.3123 -385.498433 
L 259.572763 -382.685526 
L 259.830107 -379.872619 
L 260.077644 -377.059713 
L 260.308868 -374.246806 
L 260.517678 -371.433899 
L 260.698593 -368.620993 
L 260.847026 -365.808086 
L 260.959623 -362.995179 
L 261.034716 -360.182273 
L 261.072832 -357.369366 
L 261.077195 -354.556459 
L 261.054116 -351.743552 
L 261.013144 -348.930646 
L 260.966873 -346.117739 
L 260.930357 -343.304832 
L 260.920114 -340.491926 
L 260.952841 -337.679019 
L 261.043947 -334.866112 
L 261.206148 -332.053205 
L 261.448291 -329.240299 
L 261.774606 -326.427392 
L 262.18448 -323.614485 
L 262.672762 -320.801579 
L 263.230521 -317.988672 
L 263.846102 -315.175765 
L 264.506314 -312.362858 
L 265.197575 -309.549952 
L 265.906931 -306.737045 
L 266.622897 -303.924138 
L 267.336156 -301.111232 
L 268.040143 -298.298325 
L 268.731551 -295.485418 
L 269.410718 -292.672511 
L 270.081815 -289.859605 
L 270.752708 -287.046698 
L 271.434392 -284.233791 
L 272.139915 -281.420885 
L 272.882859 -278.607978 
L 273.675506 -275.795071 
L 274.526961 -272.982165 
L 275.441507 -270.169258 
L 276.417494 -267.356351 
L 277.446953 -264.543444 
L 278.516028 -261.730538 
L 279.606152 -258.917631 
L 280.695784 -256.104724 
L 281.762403 -253.291818 
L 282.784453 -250.478911 
L 283.742894 -247.666004 
L 284.622154 -244.853097 
L 285.410341 -242.040191 
L 286.098764 -239.227284 
L 286.680913 -236.414377 
L 287.151211 -233.601471 
L 287.503881 -230.788564 
L 287.732241 -227.975657 
L 287.828659 -225.16275 
L 287.785207 -222.349844 
L 287.594849 -219.536937 
L 287.252892 -216.72403 
L 286.758293 -213.911124 
L 286.114509 -211.098217 
L 285.329686 -208.28531 
L 284.416174 -205.472403 
L 283.389524 -202.659497 
L 282.267235 -199.84659 
L 281.067526 -197.033683 
L 279.808321 -194.220777 
L 278.506538 -191.40787 
L 277.17764 -188.594963 
L 275.835386 -185.782056 
L 274.491678 -182.96915 
L 273.156501 -180.156243 
L 271.837985 -177.343336 
L 270.542639 -174.53043 
L 269.275809 -171.717523 
L 268.042329 -168.904616 
L 266.847239 -166.09171 
L 265.696404 -163.278803 
L 264.59686 -160.465896 
L 263.556746 -157.652989 
L 262.58482 -154.840083 
L 261.689631 -152.027176 
L 260.878542 -149.214269 
L 260.156792 -146.401363 
z
" style="stroke: #000000; stroke-opacity: 0.8"/>
    </defs>
    <g clip-path="url(#p74cea2e5be)">
     <use xlink:href="#m14fe876818" x="0" y="495.757773" style="fill: #e377c2; fill-opacity: 0.8; stroke: #000000; stroke-opacity: 0.8"/>
    </g>
   </g>
   <g id="PolyCollection_3">
    <defs>
     <path id="mb77e3704d6" d="M 389.896267 -170.593203 
L 370.782221 -170.593203 
L 369.67167 -173.138657 
L 368.506237 -175.684112 
L 367.293163 -178.229567 
L 366.04099 -180.775022 
L 364.759506 -183.320477 
L 363.459652 -185.865932 
L 362.153374 -188.411386 
L 360.853426 -190.956841 
L 359.573125 -193.502296 
L 358.326045 -196.047751 
L 357.125672 -198.593206 
L 355.985024 -201.138661 
L 354.916247 -203.684115 
L 353.930215 -206.22957 
L 353.036139 -208.775025 
L 352.241224 -211.32048 
L 351.55037 -213.865935 
L 350.965964 -216.41139 
L 350.487752 -218.956845 
L 350.112818 -221.502299 
L 349.835669 -224.047754 
L 349.648443 -226.593209 
L 349.541208 -229.138664 
L 349.502382 -231.684119 
L 349.519229 -234.229574 
L 349.578424 -236.775028 
L 349.666677 -239.320483 
L 349.771358 -241.865938 
L 349.881123 -244.411393 
L 349.986484 -246.956848 
L 350.080303 -249.502303 
L 350.158174 -252.047758 
L 350.218665 -254.593212 
L 350.263407 -257.138667 
L 350.297 -259.684122 
L 350.326768 -262.229577 
L 350.362343 -264.775032 
L 350.415113 -267.320487 
L 350.497571 -269.865941 
L 350.622593 -272.411396 
L 350.802691 -274.956851 
L 351.049287 -277.502306 
L 351.372057 -280.047761 
L 351.778363 -282.593216 
L 352.272825 -285.13867 
L 352.85704 -287.684125 
L 353.529467 -290.22958 
L 354.285469 -292.775035 
L 355.117515 -295.32049 
L 356.015522 -297.865945 
L 356.967301 -300.4114 
L 357.959102 -302.956854 
L 358.976204 -305.502309 
L 360.003525 -308.047764 
L 361.026223 -310.593219 
L 362.030252 -313.138674 
L 363.002846 -315.684129 
L 363.932916 -318.229583 
L 364.811337 -320.775038 
L 365.631118 -323.320493 
L 366.38747 -325.865948 
L 367.077753 -328.411403 
L 367.701336 -330.956858 
L 368.259387 -333.502312 
L 368.754603 -336.047767 
L 369.190918 -338.593222 
L 369.573197 -341.138677 
L 369.906952 -343.684132 
L 370.198082 -346.229587 
L 370.452655 -348.775042 
L 370.67673 -351.320496 
L 370.876222 -353.865951 
L 371.056805 -356.411406 
L 371.223837 -358.956861 
L 371.382309 -361.502316 
L 371.536799 -364.047771 
L 371.691425 -366.593225 
L 371.849798 -369.13868 
L 372.014977 -371.684135 
L 372.189421 -374.22959 
L 372.374953 -376.775045 
L 372.572742 -379.3205 
L 372.783307 -381.865955 
L 373.00655 -384.411409 
L 373.241829 -386.956864 
L 373.48805 -389.502319 
L 373.74379 -392.047774 
L 374.007427 -394.593229 
L 374.27728 -397.138684 
L 374.551723 -399.684138 
L 374.829287 -402.229593 
L 375.10872 -404.775048 
L 375.38901 -407.320503 
L 375.669373 -409.865958 
L 375.949198 -412.411413 
L 376.227978 -414.956867 
L 376.505219 -417.502322 
L 376.780353 -420.047777 
L 377.052662 -422.593232 
L 383.625825 -422.593232 
L 383.625825 -422.593232 
L 383.898134 -420.047777 
L 384.173268 -417.502322 
L 384.450509 -414.956867 
L 384.72929 -412.411413 
L 385.009115 -409.865958 
L 385.289477 -407.320503 
L 385.569768 -404.775048 
L 385.8492 -402.229593 
L 386.126765 -399.684138 
L 386.401208 -397.138684 
L 386.67106 -394.593229 
L 386.934698 -392.047774 
L 387.190437 -389.502319 
L 387.436658 -386.956864 
L 387.671937 -384.411409 
L 387.895181 -381.865955 
L 388.105745 -379.3205 
L 388.303535 -376.775045 
L 388.489067 -374.22959 
L 388.663511 -371.684135 
L 388.82869 -369.13868 
L 388.987063 -366.593225 
L 389.141688 -364.047771 
L 389.296179 -361.502316 
L 389.454651 -358.956861 
L 389.621683 -356.411406 
L 389.802265 -353.865951 
L 390.001758 -351.320496 
L 390.225833 -348.775042 
L 390.480406 -346.229587 
L 390.771536 -343.684132 
L 391.105291 -341.138677 
L 391.48757 -338.593222 
L 391.923884 -336.047767 
L 392.419101 -333.502312 
L 392.977152 -330.956858 
L 393.600735 -328.411403 
L 394.291017 -325.865948 
L 395.047369 -323.320493 
L 395.867151 -320.775038 
L 396.745572 -318.229583 
L 397.675642 -315.684129 
L 398.648236 -313.138674 
L 399.652265 -310.593219 
L 400.674963 -308.047764 
L 401.702283 -305.502309 
L 402.719385 -302.956854 
L 403.711187 -300.4114 
L 404.662966 -297.865945 
L 405.560972 -295.32049 
L 406.393019 -292.775035 
L 407.14902 -290.22958 
L 407.821447 -287.684125 
L 408.405663 -285.13867 
L 408.900125 -282.593216 
L 409.30643 -280.047761 
L 409.6292 -277.502306 
L 409.875797 -274.956851 
L 410.055895 -272.411396 
L 410.180917 -269.865941 
L 410.263375 -267.320487 
L 410.316145 -264.775032 
L 410.351719 -262.229577 
L 410.381488 -259.684122 
L 410.415081 -257.138667 
L 410.459822 -254.593212 
L 410.520314 -252.047758 
L 410.598185 -249.502303 
L 410.692004 -246.956848 
L 410.797364 -244.411393 
L 410.907129 -241.865938 
L 411.011811 -239.320483 
L 411.100064 -236.775028 
L 411.159259 -234.229574 
L 411.176105 -231.684119 
L 411.13728 -229.138664 
L 411.030045 -226.593209 
L 410.842818 -224.047754 
L 410.56567 -221.502299 
L 410.190736 -218.956845 
L 409.712524 -216.41139 
L 409.128118 -213.865935 
L 408.437264 -211.32048 
L 407.642348 -208.775025 
L 406.748273 -206.22957 
L 405.762241 -203.684115 
L 404.693464 -201.138661 
L 403.552816 -198.593206 
L 402.352443 -196.047751 
L 401.105363 -193.502296 
L 399.825062 -190.956841 
L 398.525114 -188.411386 
L 397.218836 -185.865932 
L 395.918982 -183.320477 
L 394.637498 -180.775022 
L 393.385324 -178.229567 
L 392.17225 -175.684112 
L 391.006818 -173.138657 
L 389.896267 -170.593203 
z
" style="stroke: #000000; stroke-opacity: 0.8"/>
    </defs>
    <g clip-path="url(#p74cea2e5be)">
     <use xlink:href="#mb77e3704d6" x="0" y="495.757773" style="fill: #98df8a; fill-opacity: 0.8; stroke: #000000; stroke-opacity: 0.8"/>
    </g>
   </g>
   <g id="PolyCollection_4">
    <defs>
     <path id="m9ff7d67a68" d="M 517.269835 -170.543222 
L 490.103545 -170.543222 
L 488.434564 -173.339845 
L 486.749829 -176.136469 
L 485.078488 -178.933093 
L 483.449348 -181.729717 
L 481.889506 -184.526341 
L 480.423099 -187.322964 
L 479.070293 -190.119588 
L 477.846562 -192.916212 
L 476.762288 -195.712836 
L 475.822707 -198.509459 
L 475.028165 -201.306083 
L 474.37465 -204.102707 
L 473.854538 -206.899331 
L 473.457471 -209.695955 
L 473.17132 -212.492578 
L 472.983129 -215.289202 
L 472.879997 -218.085826 
L 472.849828 -220.88245 
L 472.881927 -223.679074 
L 472.967392 -226.475697 
L 473.099328 -229.272321 
L 473.272871 -232.068945 
L 473.485072 -234.865569 
L 473.734661 -237.662192 
L 474.021743 -240.458816 
L 474.347456 -243.25544 
L 474.713628 -246.052064 
L 475.122434 -248.848688 
L 475.576063 -251.645311 
L 476.0764 -254.441935 
L 476.6247 -257.238559 
L 477.22128 -260.035183 
L 477.865224 -262.831806 
L 478.554132 -265.62843 
L 479.283961 -268.425054 
L 480.048973 -271.221678 
L 480.841843 -274.018302 
L 481.653927 -276.814925 
L 482.475683 -279.611549 
L 483.29722 -282.408173 
L 484.108897 -285.204797 
L 484.901923 -288.00142 
L 485.668871 -290.798044 
L 486.40405 -293.594668 
L 487.103702 -296.391292 
L 487.765995 -299.187916 
L 488.390858 -301.984539 
L 488.979668 -304.781163 
L 489.534876 -307.577787 
L 490.059606 -310.374411 
L 490.557302 -313.171035 
L 491.031435 -315.967658 
L 491.485321 -318.764282 
L 491.922017 -321.560906 
L 492.3443 -324.35753 
L 492.7547 -327.154153 
L 493.155549 -329.950777 
L 493.54903 -332.747401 
L 493.937207 -335.544025 
L 494.322008 -338.340649 
L 494.705191 -341.137272 
L 495.088263 -343.933896 
L 495.472391 -346.73052 
L 495.858302 -349.527144 
L 496.246197 -352.323767 
L 496.635689 -355.120391 
L 497.025777 -357.917015 
L 497.414864 -360.713639 
L 497.800828 -363.510263 
L 498.181123 -366.306886 
L 498.55293 -369.10351 
L 498.913324 -371.900134 
L 499.259444 -374.696758 
L 499.588661 -377.493381 
L 499.898708 -380.290005 
L 500.187785 -383.086629 
L 500.454608 -385.883253 
L 500.698418 -388.679877 
L 500.918955 -391.4765 
L 501.116397 -394.273124 
L 501.291288 -397.069748 
L 501.44447 -399.866372 
L 501.577017 -402.662996 
L 501.690198 -405.459619 
L 501.785458 -408.256243 
L 501.86442 -411.052867 
L 501.928901 -413.849491 
L 501.980934 -416.646114 
L 502.022774 -419.442738 
L 502.056895 -422.239362 
L 502.085949 -425.035986 
L 502.112696 -427.83261 
L 502.139901 -430.629233 
L 502.170202 -433.425857 
L 502.205965 -436.222481 
L 502.249139 -439.019105 
L 502.301125 -441.815728 
L 502.362681 -444.612352 
L 502.433867 -447.408976 
L 504.939513 -447.408976 
L 504.939513 -447.408976 
L 505.010699 -444.612352 
L 505.072254 -441.815728 
L 505.124241 -439.019105 
L 505.167415 -436.222481 
L 505.203178 -433.425857 
L 505.233479 -430.629233 
L 505.260683 -427.83261 
L 505.28743 -425.035986 
L 505.316484 -422.239362 
L 505.350605 -419.442738 
L 505.392446 -416.646114 
L 505.444478 -413.849491 
L 505.50896 -411.052867 
L 505.587922 -408.256243 
L 505.683182 -405.459619 
L 505.796363 -402.662996 
L 505.92891 -399.866372 
L 506.082091 -397.069748 
L 506.256983 -394.273124 
L 506.454424 -391.4765 
L 506.674961 -388.679877 
L 506.918772 -385.883253 
L 507.185594 -383.086629 
L 507.474671 -380.290005 
L 507.784719 -377.493381 
L 508.113935 -374.696758 
L 508.460056 -371.900134 
L 508.82045 -369.10351 
L 509.192257 -366.306886 
L 509.572552 -363.510263 
L 509.958515 -360.713639 
L 510.347603 -357.917015 
L 510.737691 -355.120391 
L 511.127182 -352.323767 
L 511.515077 -349.527144 
L 511.900989 -346.73052 
L 512.285117 -343.933896 
L 512.668189 -341.137272 
L 513.051372 -338.340649 
L 513.436173 -335.544025 
L 513.824349 -332.747401 
L 514.217831 -329.950777 
L 514.61868 -327.154153 
L 515.02908 -324.35753 
L 515.451363 -321.560906 
L 515.888058 -318.764282 
L 516.341944 -315.967658 
L 516.816078 -313.171035 
L 517.313773 -310.374411 
L 517.838504 -307.577787 
L 518.393712 -304.781163 
L 518.982522 -301.984539 
L 519.607384 -299.187916 
L 520.269678 -296.391292 
L 520.969329 -293.594668 
L 521.704509 -290.798044 
L 522.471456 -288.00142 
L 523.264482 -285.204797 
L 524.076159 -282.408173 
L 524.897696 -279.611549 
L 525.719453 -276.814925 
L 526.531536 -274.018302 
L 527.324406 -271.221678 
L 528.089418 -268.425054 
L 528.819247 -265.62843 
L 529.508156 -262.831806 
L 530.1521 -260.035183 
L 530.74868 -257.238559 
L 531.29698 -254.441935 
L 531.797316 -251.645311 
L 532.250946 -248.848688 
L 532.659751 -246.052064 
L 533.025924 -243.25544 
L 533.351637 -240.458816 
L 533.638718 -237.662192 
L 533.888307 -234.865569 
L 534.100509 -232.068945 
L 534.274052 -229.272321 
L 534.405988 -226.475697 
L 534.491453 -223.679074 
L 534.523551 -220.88245 
L 534.493383 -218.085826 
L 534.39025 -215.289202 
L 534.202059 -212.492578 
L 533.915908 -209.695955 
L 533.518842 -206.899331 
L 532.998729 -204.102707 
L 532.345215 -201.306083 
L 531.550673 -198.509459 
L 530.611091 -195.712836 
L 529.526817 -192.916212 
L 528.303086 -190.119588 
L 526.950281 -187.322964 
L 525.483874 -184.526341 
L 523.924031 -181.729717 
L 522.294892 -178.933093 
L 520.62355 -176.136469 
L 518.938815 -173.339845 
L 517.269835 -170.543222 
z
" style="stroke: #000000; stroke-opacity: 0.8"/>
    </defs>
    <g clip-path="url(#p74cea2e5be)">
     <use xlink:href="#m9ff7d67a68" x="0" y="495.757773" style="fill: #98bf64; fill-opacity: 0.8; stroke: #000000; stroke-opacity: 0.8"/>
    </g>
   </g>
   <g id="matplotlib.axis_1">
    <g id="xtick_1">
     <g id="line2d_1">
      <defs>
       <path id="m9d0249409c" d="M 0 0 
L 0 3.5 
" style="stroke: #000000; stroke-width: 0.8"/>
      </defs>
      <g>
       <use xlink:href="#m9d0249409c" x="133.644352" y="376.773619" style="stroke: #000000; stroke-width: 0.8"/>
      </g>
     </g>
     <g id="text_1">
      <!-- Young + vector control -->
      <g transform="translate(56.719863 485.676073)rotate(-30)scale(0.16 -0.16)">
       <defs>
        <path id="DejaVuSans-59" d="M -13 4666 
L 666 4666 
L 1959 2747 
L 3244 4666 
L 3922 4666 
L 2272 2222 
L 2272 0 
L 1638 0 
L 1638 2222 
L -13 4666 
z
" transform="scale(0.015625)"/>
        <path id="DejaVuSans-6f" d="M 1959 3097 
Q 1497 3097 1228 2736 
Q 959 2375 959 1747 
Q 959 1119 1226 758 
Q 1494 397 1959 397 
Q 2419 397 2687 759 
Q 2956 1122 2956 1747 
Q 2956 2369 2687 2733 
Q 2419 3097 1959 3097 
z
M 1959 3584 
Q 2709 3584 3137 3096 
Q 3566 2609 3566 1747 
Q 3566 888 3137 398 
Q 2709 -91 1959 -91 
Q 1206 -91 779 398 
Q 353 888 353 1747 
Q 353 2609 779 3096 
Q 1206 3584 1959 3584 
z
" transform="scale(0.015625)"/>
        <path id="DejaVuSans-75" d="M 544 1381 
L 544 3500 
L 1119 3500 
L 1119 1403 
Q 1119 906 1312 657 
Q 1506 409 1894 409 
Q 2359 409 2629 706 
Q 2900 1003 2900 1516 
L 2900 3500 
L 3475 3500 
L 3475 0 
L 2900 0 
L 2900 538 
Q 2691 219 2414 64 
Q 2138 -91 1772 -91 
Q 1169 -91 856 284 
Q 544 659 544 1381 
z
M 1991 3584 
L 1991 3584 
z
" transform="scale(0.015625)"/>
        <path id="DejaVuSans-6e" d="M 3513 2113 
L 3513 0 
L 2938 0 
L 2938 2094 
Q 2938 2591 2744 2837 
Q 2550 3084 2163 3084 
Q 1697 3084 1428 2787 
Q 1159 2491 1159 1978 
L 1159 0 
L 581 0 
L 581 3500 
L 1159 3500 
L 1159 2956 
Q 1366 3272 1645 3428 
Q 1925 3584 2291 3584 
Q 2894 3584 3203 3211 
Q 3513 2838 3513 2113 
z
" transform="scale(0.015625)"/>
        <path id="DejaVuSans-67" d="M 2906 1791 
Q 2906 2416 2648 2759 
Q 2391 3103 1925 3103 
Q 1463 3103 1205 2759 
Q 947 2416 947 1791 
Q 947 1169 1205 825 
Q 1463 481 1925 481 
Q 2391 481 2648 825 
Q 2906 1169 2906 1791 
z
M 3481 434 
Q 3481 -459 3084 -895 
Q 2688 -1331 1869 -1331 
Q 1566 -1331 1297 -1286 
Q 1028 -1241 775 -1147 
L 775 -588 
Q 1028 -725 1275 -790 
Q 1522 -856 1778 -856 
Q 2344 -856 2625 -561 
Q 2906 -266 2906 331 
L 2906 616 
Q 2728 306 2450 153 
Q 2172 0 1784 0 
Q 1141 0 747 490 
Q 353 981 353 1791 
Q 353 2603 747 3093 
Q 1141 3584 1784 3584 
Q 2172 3584 2450 3431 
Q 2728 3278 2906 2969 
L 2906 3500 
L 3481 3500 
L 3481 434 
z
" transform="scale(0.015625)"/>
        <path id="DejaVuSans-20" transform="scale(0.015625)"/>
        <path id="DejaVuSans-2b" d="M 2944 4013 
L 2944 2272 
L 4684 2272 
L 4684 1741 
L 2944 1741 
L 2944 0 
L 2419 0 
L 2419 1741 
L 678 1741 
L 678 2272 
L 2419 2272 
L 2419 4013 
L 2944 4013 
z
" transform="scale(0.015625)"/>
        <path id="DejaVuSans-76" d="M 191 3500 
L 800 3500 
L 1894 563 
L 2988 3500 
L 3597 3500 
L 2284 0 
L 1503 0 
L 191 3500 
z
" transform="scale(0.015625)"/>
        <path id="DejaVuSans-65" d="M 3597 1894 
L 3597 1613 
L 953 1613 
Q 991 1019 1311 708 
Q 1631 397 2203 397 
Q 2534 397 2845 478 
Q 3156 559 3463 722 
L 3463 178 
Q 3153 47 2828 -22 
Q 2503 -91 2169 -91 
Q 1331 -91 842 396 
Q 353 884 353 1716 
Q 353 2575 817 3079 
Q 1281 3584 2069 3584 
Q 2775 3584 3186 3129 
Q 3597 2675 3597 1894 
z
M 3022 2063 
Q 3016 2534 2758 2815 
Q 2500 3097 2075 3097 
Q 1594 3097 1305 2825 
Q 1016 2553 972 2059 
L 3022 2063 
z
" transform="scale(0.015625)"/>
        <path id="DejaVuSans-63" d="M 3122 3366 
L 3122 2828 
Q 2878 2963 2633 3030 
Q 2388 3097 2138 3097 
Q 1578 3097 1268 2742 
Q 959 2388 959 1747 
Q 959 1106 1268 751 
Q 1578 397 2138 397 
Q 2388 397 2633 464 
Q 2878 531 3122 666 
L 3122 134 
Q 2881 22 2623 -34 
Q 2366 -91 2075 -91 
Q 1284 -91 818 406 
Q 353 903 353 1747 
Q 353 2603 823 3093 
Q 1294 3584 2113 3584 
Q 2378 3584 2631 3529 
Q 2884 3475 3122 3366 
z
" transform="scale(0.015625)"/>
        <path id="DejaVuSans-74" d="M 1172 4494 
L 1172 3500 
L 2356 3500 
L 2356 3053 
L 1172 3053 
L 1172 1153 
Q 1172 725 1289 603 
Q 1406 481 1766 481 
L 2356 481 
L 2356 0 
L 1766 0 
Q 1100 0 847 248 
Q 594 497 594 1153 
L 594 3053 
L 172 3053 
L 172 3500 
L 594 3500 
L 594 4494 
L 1172 4494 
z
" transform="scale(0.015625)"/>
        <path id="DejaVuSans-72" d="M 2631 2963 
Q 2534 3019 2420 3045 
Q 2306 3072 2169 3072 
Q 1681 3072 1420 2755 
Q 1159 2438 1159 1844 
L 1159 0 
L 581 0 
L 581 3500 
L 1159 3500 
L 1159 2956 
Q 1341 3275 1631 3429 
Q 1922 3584 2338 3584 
Q 2397 3584 2469 3576 
Q 2541 3569 2628 3553 
L 2631 2963 
z
" transform="scale(0.015625)"/>
        <path id="DejaVuSans-6c" d="M 603 4863 
L 1178 4863 
L 1178 0 
L 603 0 
L 603 4863 
z
" transform="scale(0.015625)"/>
       </defs>
       <use xlink:href="#DejaVuSans-59"/>
       <use xlink:href="#DejaVuSans-6f" x="47.833984"/>
       <use xlink:href="#DejaVuSans-75" x="109.015625"/>
       <use xlink:href="#DejaVuSans-6e" x="172.394531"/>
       <use xlink:href="#DejaVuSans-67" x="235.773438"/>
       <use xlink:href="#DejaVuSans-20" x="299.25"/>
       <use xlink:href="#DejaVuSans-2b" x="331.037109"/>
       <use xlink:href="#DejaVuSans-20" x="414.826172"/>
       <use xlink:href="#DejaVuSans-76" x="446.613281"/>
       <use xlink:href="#DejaVuSans-65" x="505.792969"/>
       <use xlink:href="#DejaVuSans-63" x="567.316406"/>
       <use xlink:href="#DejaVuSans-74" x="622.296875"/>
       <use xlink:href="#DejaVuSans-6f" x="661.505859"/>
       <use xlink:href="#DejaVuSans-72" x="722.6875"/>
       <use xlink:href="#DejaVuSans-20" x="763.800781"/>
       <use xlink:href="#DejaVuSans-63" x="795.587891"/>
       <use xlink:href="#DejaVuSans-6f" x="850.568359"/>
       <use xlink:href="#DejaVuSans-6e" x="911.75"/>
       <use xlink:href="#DejaVuSans-74" x="975.128906"/>
       <use xlink:href="#DejaVuSans-72" x="1014.337891"/>
       <use xlink:href="#DejaVuSans-6f" x="1053.201172"/>
       <use xlink:href="#DejaVuSans-6c" x="1114.382812"/>
      </g>
     </g>
    </g>
    <g id="xtick_2">
     <g id="line2d_2">
      <g>
       <use xlink:href="#m9d0249409c" x="256.991798" y="376.773619" style="stroke: #000000; stroke-width: 0.8"/>
      </g>
     </g>
     <g id="text_2">
      <!-- Young + LMO7-AS1 -->
      <g transform="translate(192.667979 471.126073)rotate(-30)scale(0.16 -0.16)">
       <defs>
        <path id="DejaVuSans-4c" d="M 628 4666 
L 1259 4666 
L 1259 531 
L 3531 531 
L 3531 0 
L 628 0 
L 628 4666 
z
" transform="scale(0.015625)"/>
        <path id="DejaVuSans-4d" d="M 628 4666 
L 1569 4666 
L 2759 1491 
L 3956 4666 
L 4897 4666 
L 4897 0 
L 4281 0 
L 4281 4097 
L 3078 897 
L 2444 897 
L 1241 4097 
L 1241 0 
L 628 0 
L 628 4666 
z
" transform="scale(0.015625)"/>
        <path id="DejaVuSans-4f" d="M 2522 4238 
Q 1834 4238 1429 3725 
Q 1025 3213 1025 2328 
Q 1025 1447 1429 934 
Q 1834 422 2522 422 
Q 3209 422 3611 934 
Q 4013 1447 4013 2328 
Q 4013 3213 3611 3725 
Q 3209 4238 2522 4238 
z
M 2522 4750 
Q 3503 4750 4090 4092 
Q 4678 3434 4678 2328 
Q 4678 1225 4090 567 
Q 3503 -91 2522 -91 
Q 1538 -91 948 565 
Q 359 1222 359 2328 
Q 359 3434 948 4092 
Q 1538 4750 2522 4750 
z
" transform="scale(0.015625)"/>
        <path id="DejaVuSans-37" d="M 525 4666 
L 3525 4666 
L 3525 4397 
L 1831 0 
L 1172 0 
L 2766 4134 
L 525 4134 
L 525 4666 
z
" transform="scale(0.015625)"/>
        <path id="DejaVuSans-2d" d="M 313 2009 
L 1997 2009 
L 1997 1497 
L 313 1497 
L 313 2009 
z
" transform="scale(0.015625)"/>
        <path id="DejaVuSans-41" d="M 2188 4044 
L 1331 1722 
L 3047 1722 
L 2188 4044 
z
M 1831 4666 
L 2547 4666 
L 4325 0 
L 3669 0 
L 3244 1197 
L 1141 1197 
L 716 0 
L 50 0 
L 1831 4666 
z
" transform="scale(0.015625)"/>
        <path id="DejaVuSans-53" d="M 3425 4513 
L 3425 3897 
Q 3066 4069 2747 4153 
Q 2428 4238 2131 4238 
Q 1616 4238 1336 4038 
Q 1056 3838 1056 3469 
Q 1056 3159 1242 3001 
Q 1428 2844 1947 2747 
L 2328 2669 
Q 3034 2534 3370 2195 
Q 3706 1856 3706 1288 
Q 3706 609 3251 259 
Q 2797 -91 1919 -91 
Q 1588 -91 1214 -16 
Q 841 59 441 206 
L 441 856 
Q 825 641 1194 531 
Q 1563 422 1919 422 
Q 2459 422 2753 634 
Q 3047 847 3047 1241 
Q 3047 1584 2836 1778 
Q 2625 1972 2144 2069 
L 1759 2144 
Q 1053 2284 737 2584 
Q 422 2884 422 3419 
Q 422 4038 858 4394 
Q 1294 4750 2059 4750 
Q 2388 4750 2728 4690 
Q 3069 4631 3425 4513 
z
" transform="scale(0.015625)"/>
        <path id="DejaVuSans-31" d="M 794 531 
L 1825 531 
L 1825 4091 
L 703 3866 
L 703 4441 
L 1819 4666 
L 2450 4666 
L 2450 531 
L 3481 531 
L 3481 0 
L 794 0 
L 794 531 
z
" transform="scale(0.015625)"/>
       </defs>
       <use xlink:href="#DejaVuSans-59"/>
       <use xlink:href="#DejaVuSans-6f" x="47.833984"/>
       <use xlink:href="#DejaVuSans-75" x="109.015625"/>
       <use xlink:href="#DejaVuSans-6e" x="172.394531"/>
       <use xlink:href="#DejaVuSans-67" x="235.773438"/>
       <use xlink:href="#DejaVuSans-20" x="299.25"/>
       <use xlink:href="#DejaVuSans-2b" x="331.037109"/>
       <use xlink:href="#DejaVuSans-20" x="414.826172"/>
       <use xlink:href="#DejaVuSans-4c" x="446.613281"/>
       <use xlink:href="#DejaVuSans-4d" x="502.326172"/>
       <use xlink:href="#DejaVuSans-4f" x="588.605469"/>
       <use xlink:href="#DejaVuSans-37" x="667.316406"/>
       <use xlink:href="#DejaVuSans-2d" x="730.939453"/>
       <use xlink:href="#DejaVuSans-41" x="764.773438"/>
       <use xlink:href="#DejaVuSans-53" x="833.181641"/>
       <use xlink:href="#DejaVuSans-31" x="896.658203"/>
      </g>
     </g>
    </g>
    <g id="xtick_3">
     <g id="line2d_3">
      <g>
       <use xlink:href="#m9d0249409c" x="380.339244" y="376.773619" style="stroke: #000000; stroke-width: 0.8"/>
      </g>
     </g>
     <g id="text_3">
      <!-- Old + vector control -->
      <g transform="translate(312.37054 475.334823)rotate(-30)scale(0.16 -0.16)">
       <defs>
        <path id="DejaVuSans-64" d="M 2906 2969 
L 2906 4863 
L 3481 4863 
L 3481 0 
L 2906 0 
L 2906 525 
Q 2725 213 2448 61 
Q 2172 -91 1784 -91 
Q 1150 -91 751 415 
Q 353 922 353 1747 
Q 353 2572 751 3078 
Q 1150 3584 1784 3584 
Q 2172 3584 2448 3432 
Q 2725 3281 2906 2969 
z
M 947 1747 
Q 947 1113 1208 752 
Q 1469 391 1925 391 
Q 2381 391 2643 752 
Q 2906 1113 2906 1747 
Q 2906 2381 2643 2742 
Q 2381 3103 1925 3103 
Q 1469 3103 1208 2742 
Q 947 2381 947 1747 
z
" transform="scale(0.015625)"/>
       </defs>
       <use xlink:href="#DejaVuSans-4f"/>
       <use xlink:href="#DejaVuSans-6c" x="78.710938"/>
       <use xlink:href="#DejaVuSans-64" x="106.494141"/>
       <use xlink:href="#DejaVuSans-20" x="169.970703"/>
       <use xlink:href="#DejaVuSans-2b" x="201.757812"/>
       <use xlink:href="#DejaVuSans-20" x="285.546875"/>
       <use xlink:href="#DejaVuSans-76" x="317.333984"/>
       <use xlink:href="#DejaVuSans-65" x="376.513672"/>
       <use xlink:href="#DejaVuSans-63" x="438.037109"/>
       <use xlink:href="#DejaVuSans-74" x="493.017578"/>
       <use xlink:href="#DejaVuSans-6f" x="532.226562"/>
       <use xlink:href="#DejaVuSans-72" x="593.408203"/>
       <use xlink:href="#DejaVuSans-20" x="634.521484"/>
       <use xlink:href="#DejaVuSans-63" x="666.308594"/>
       <use xlink:href="#DejaVuSans-6f" x="721.289062"/>
       <use xlink:href="#DejaVuSans-6e" x="782.470703"/>
       <use xlink:href="#DejaVuSans-74" x="845.849609"/>
       <use xlink:href="#DejaVuSans-72" x="885.058594"/>
       <use xlink:href="#DejaVuSans-6f" x="923.921875"/>
       <use xlink:href="#DejaVuSans-6c" x="985.103516"/>
      </g>
     </g>
    </g>
    <g id="xtick_4">
     <g id="line2d_4">
      <g>
       <use xlink:href="#m9d0249409c" x="503.68669" y="376.773619" style="stroke: #000000; stroke-width: 0.8"/>
      </g>
     </g>
     <g id="text_4">
      <!-- Old + SNHG18 -->
      <g transform="translate(454.931842 453.148573)rotate(-30)scale(0.16 -0.16)">
       <defs>
        <path id="DejaVuSans-4e" d="M 628 4666 
L 1478 4666 
L 3547 763 
L 3547 4666 
L 4159 4666 
L 4159 0 
L 3309 0 
L 1241 3903 
L 1241 0 
L 628 0 
L 628 4666 
z
" transform="scale(0.015625)"/>
        <path id="DejaVuSans-48" d="M 628 4666 
L 1259 4666 
L 1259 2753 
L 3553 2753 
L 3553 4666 
L 4184 4666 
L 4184 0 
L 3553 0 
L 3553 2222 
L 1259 2222 
L 1259 0 
L 628 0 
L 628 4666 
z
" transform="scale(0.015625)"/>
        <path id="DejaVuSans-47" d="M 3809 666 
L 3809 1919 
L 2778 1919 
L 2778 2438 
L 4434 2438 
L 4434 434 
Q 4069 175 3628 42 
Q 3188 -91 2688 -91 
Q 1594 -91 976 548 
Q 359 1188 359 2328 
Q 359 3472 976 4111 
Q 1594 4750 2688 4750 
Q 3144 4750 3555 4637 
Q 3966 4525 4313 4306 
L 4313 3634 
Q 3963 3931 3569 4081 
Q 3175 4231 2741 4231 
Q 1884 4231 1454 3753 
Q 1025 3275 1025 2328 
Q 1025 1384 1454 906 
Q 1884 428 2741 428 
Q 3075 428 3337 486 
Q 3600 544 3809 666 
z
" transform="scale(0.015625)"/>
        <path id="DejaVuSans-38" d="M 2034 2216 
Q 1584 2216 1326 1975 
Q 1069 1734 1069 1313 
Q 1069 891 1326 650 
Q 1584 409 2034 409 
Q 2484 409 2743 651 
Q 3003 894 3003 1313 
Q 3003 1734 2745 1975 
Q 2488 2216 2034 2216 
z
M 1403 2484 
Q 997 2584 770 2862 
Q 544 3141 544 3541 
Q 544 4100 942 4425 
Q 1341 4750 2034 4750 
Q 2731 4750 3128 4425 
Q 3525 4100 3525 3541 
Q 3525 3141 3298 2862 
Q 3072 2584 2669 2484 
Q 3125 2378 3379 2068 
Q 3634 1759 3634 1313 
Q 3634 634 3220 271 
Q 2806 -91 2034 -91 
Q 1263 -91 848 271 
Q 434 634 434 1313 
Q 434 1759 690 2068 
Q 947 2378 1403 2484 
z
M 1172 3481 
Q 1172 3119 1398 2916 
Q 1625 2713 2034 2713 
Q 2441 2713 2670 2916 
Q 2900 3119 2900 3481 
Q 2900 3844 2670 4047 
Q 2441 4250 2034 4250 
Q 1625 4250 1398 4047 
Q 1172 3844 1172 3481 
z
" transform="scale(0.015625)"/>
       </defs>
       <use xlink:href="#DejaVuSans-4f"/>
       <use xlink:href="#DejaVuSans-6c" x="78.710938"/>
       <use xlink:href="#DejaVuSans-64" x="106.494141"/>
       <use xlink:href="#DejaVuSans-20" x="169.970703"/>
       <use xlink:href="#DejaVuSans-2b" x="201.757812"/>
       <use xlink:href="#DejaVuSans-20" x="285.546875"/>
       <use xlink:href="#DejaVuSans-53" x="317.333984"/>
       <use xlink:href="#DejaVuSans-4e" x="380.810547"/>
       <use xlink:href="#DejaVuSans-48" x="455.615234"/>
       <use xlink:href="#DejaVuSans-47" x="530.810547"/>
       <use xlink:href="#DejaVuSans-31" x="608.300781"/>
       <use xlink:href="#DejaVuSans-38" x="671.923828"/>
      </g>
     </g>
    </g>
   </g>
   <g id="matplotlib.axis_2">
    <g id="ytick_1">
     <g id="line2d_5">
      <defs>
       <path id="m3764960ebe" d="M 0 0 
L -3.5 0 
" style="stroke: #000000; stroke-width: 0.8"/>
      </defs>
      <g>
       <use xlink:href="#m3764960ebe" x="81.221688" y="328.728461" style="stroke: #000000; stroke-width: 0.8"/>
      </g>
     </g>
     <g id="text_5">
      <!-- 1.5 -->
      <g transform="translate(48.776688 334.807211)scale(0.16 -0.16)">
       <defs>
        <path id="DejaVuSans-2e" d="M 684 794 
L 1344 794 
L 1344 0 
L 684 0 
L 684 794 
z
" transform="scale(0.015625)"/>
        <path id="DejaVuSans-35" d="M 691 4666 
L 3169 4666 
L 3169 4134 
L 1269 4134 
L 1269 2991 
Q 1406 3038 1543 3061 
Q 1681 3084 1819 3084 
Q 2600 3084 3056 2656 
Q 3513 2228 3513 1497 
Q 3513 744 3044 326 
Q 2575 -91 1722 -91 
Q 1428 -91 1123 -41 
Q 819 9 494 109 
L 494 744 
Q 775 591 1075 516 
Q 1375 441 1709 441 
Q 2250 441 2565 725 
Q 2881 1009 2881 1497 
Q 2881 1984 2565 2268 
Q 2250 2553 1709 2553 
Q 1456 2553 1204 2497 
Q 953 2441 691 2322 
L 691 4666 
z
" transform="scale(0.015625)"/>
       </defs>
       <use xlink:href="#DejaVuSans-31"/>
       <use xlink:href="#DejaVuSans-2e" x="63.623047"/>
       <use xlink:href="#DejaVuSans-35" x="95.410156"/>
      </g>
     </g>
    </g>
    <g id="ytick_2">
     <g id="line2d_6">
      <g>
       <use xlink:href="#m3764960ebe" x="81.221688" y="274.354711" style="stroke: #000000; stroke-width: 0.8"/>
      </g>
     </g>
     <g id="text_6">
      <!-- 2.0 -->
      <g transform="translate(48.776688 280.433461)scale(0.16 -0.16)">
       <defs>
        <path id="DejaVuSans-32" d="M 1228 531 
L 3431 531 
L 3431 0 
L 469 0 
L 469 531 
Q 828 903 1448 1529 
Q 2069 2156 2228 2338 
Q 2531 2678 2651 2914 
Q 2772 3150 2772 3378 
Q 2772 3750 2511 3984 
Q 2250 4219 1831 4219 
Q 1534 4219 1204 4116 
Q 875 4013 500 3803 
L 500 4441 
Q 881 4594 1212 4672 
Q 1544 4750 1819 4750 
Q 2544 4750 2975 4387 
Q 3406 4025 3406 3419 
Q 3406 3131 3298 2873 
Q 3191 2616 2906 2266 
Q 2828 2175 2409 1742 
Q 1991 1309 1228 531 
z
" transform="scale(0.015625)"/>
        <path id="DejaVuSans-30" d="M 2034 4250 
Q 1547 4250 1301 3770 
Q 1056 3291 1056 2328 
Q 1056 1369 1301 889 
Q 1547 409 2034 409 
Q 2525 409 2770 889 
Q 3016 1369 3016 2328 
Q 3016 3291 2770 3770 
Q 2525 4250 2034 4250 
z
M 2034 4750 
Q 2819 4750 3233 4129 
Q 3647 3509 3647 2328 
Q 3647 1150 3233 529 
Q 2819 -91 2034 -91 
Q 1250 -91 836 529 
Q 422 1150 422 2328 
Q 422 3509 836 4129 
Q 1250 4750 2034 4750 
z
" transform="scale(0.015625)"/>
       </defs>
       <use xlink:href="#DejaVuSans-32"/>
       <use xlink:href="#DejaVuSans-2e" x="63.623047"/>
       <use xlink:href="#DejaVuSans-30" x="95.410156"/>
      </g>
     </g>
    </g>
    <g id="ytick_3">
     <g id="line2d_7">
      <g>
       <use xlink:href="#m3764960ebe" x="81.221688" y="219.980961" style="stroke: #000000; stroke-width: 0.8"/>
      </g>
     </g>
     <g id="text_7">
      <!-- 2.5 -->
      <g transform="translate(48.776688 226.059711)scale(0.16 -0.16)">
       <use xlink:href="#DejaVuSans-32"/>
       <use xlink:href="#DejaVuSans-2e" x="63.623047"/>
       <use xlink:href="#DejaVuSans-35" x="95.410156"/>
      </g>
     </g>
    </g>
    <g id="ytick_4">
     <g id="line2d_8">
      <g>
       <use xlink:href="#m3764960ebe" x="81.221688" y="165.60721" style="stroke: #000000; stroke-width: 0.8"/>
      </g>
     </g>
     <g id="text_8">
      <!-- 3.0 -->
      <g transform="translate(48.776688 171.68596)scale(0.16 -0.16)">
       <defs>
        <path id="DejaVuSans-33" d="M 2597 2516 
Q 3050 2419 3304 2112 
Q 3559 1806 3559 1356 
Q 3559 666 3084 287 
Q 2609 -91 1734 -91 
Q 1441 -91 1130 -33 
Q 819 25 488 141 
L 488 750 
Q 750 597 1062 519 
Q 1375 441 1716 441 
Q 2309 441 2620 675 
Q 2931 909 2931 1356 
Q 2931 1769 2642 2001 
Q 2353 2234 1838 2234 
L 1294 2234 
L 1294 2753 
L 1863 2753 
Q 2328 2753 2575 2939 
Q 2822 3125 2822 3475 
Q 2822 3834 2567 4026 
Q 2313 4219 1838 4219 
Q 1578 4219 1281 4162 
Q 984 4106 628 3988 
L 628 4550 
Q 988 4650 1302 4700 
Q 1616 4750 1894 4750 
Q 2613 4750 3031 4423 
Q 3450 4097 3450 3541 
Q 3450 3153 3228 2886 
Q 3006 2619 2597 2516 
z
" transform="scale(0.015625)"/>
       </defs>
       <use xlink:href="#DejaVuSans-33"/>
       <use xlink:href="#DejaVuSans-2e" x="63.623047"/>
       <use xlink:href="#DejaVuSans-30" x="95.410156"/>
      </g>
     </g>
    </g>
    <g id="ytick_5">
     <g id="line2d_9">
      <g>
       <use xlink:href="#m3764960ebe" x="81.221688" y="111.23346" style="stroke: #000000; stroke-width: 0.8"/>
      </g>
     </g>
     <g id="text_9">
      <!-- 3.5 -->
      <g transform="translate(48.776688 117.31221)scale(0.16 -0.16)">
       <use xlink:href="#DejaVuSans-33"/>
       <use xlink:href="#DejaVuSans-2e" x="63.623047"/>
       <use xlink:href="#DejaVuSans-35" x="95.410156"/>
      </g>
     </g>
    </g>
    <g id="ytick_6">
     <g id="line2d_10">
      <g>
       <use xlink:href="#m3764960ebe" x="81.221688" y="56.859709" style="stroke: #000000; stroke-width: 0.8"/>
      </g>
     </g>
     <g id="text_10">
      <!-- 4.0 -->
      <g transform="translate(48.776688 62.938459)scale(0.16 -0.16)">
       <defs>
        <path id="DejaVuSans-34" d="M 2419 4116 
L 825 1625 
L 2419 1625 
L 2419 4116 
z
M 2253 4666 
L 3047 4666 
L 3047 1625 
L 3713 1625 
L 3713 1100 
L 3047 1100 
L 3047 0 
L 2419 0 
L 2419 1100 
L 313 1100 
L 313 1709 
L 2253 4666 
z
" transform="scale(0.015625)"/>
       </defs>
       <use xlink:href="#DejaVuSans-34"/>
       <use xlink:href="#DejaVuSans-2e" x="63.623047"/>
       <use xlink:href="#DejaVuSans-30" x="95.410156"/>
      </g>
     </g>
    </g>
    <g id="text_11">
     <!-- Avg distance to nearest -->
     <g transform="translate(20.877188 298.416028)rotate(-90)scale(0.18 -0.18)">
      <defs>
       <path id="DejaVuSans-69" d="M 603 3500 
L 1178 3500 
L 1178 0 
L 603 0 
L 603 3500 
z
M 603 4863 
L 1178 4863 
L 1178 4134 
L 603 4134 
L 603 4863 
z
" transform="scale(0.015625)"/>
       <path id="DejaVuSans-73" d="M 2834 3397 
L 2834 2853 
Q 2591 2978 2328 3040 
Q 2066 3103 1784 3103 
Q 1356 3103 1142 2972 
Q 928 2841 928 2578 
Q 928 2378 1081 2264 
Q 1234 2150 1697 2047 
L 1894 2003 
Q 2506 1872 2764 1633 
Q 3022 1394 3022 966 
Q 3022 478 2636 193 
Q 2250 -91 1575 -91 
Q 1294 -91 989 -36 
Q 684 19 347 128 
L 347 722 
Q 666 556 975 473 
Q 1284 391 1588 391 
Q 1994 391 2212 530 
Q 2431 669 2431 922 
Q 2431 1156 2273 1281 
Q 2116 1406 1581 1522 
L 1381 1569 
Q 847 1681 609 1914 
Q 372 2147 372 2553 
Q 372 3047 722 3315 
Q 1072 3584 1716 3584 
Q 2034 3584 2315 3537 
Q 2597 3491 2834 3397 
z
" transform="scale(0.015625)"/>
       <path id="DejaVuSans-61" d="M 2194 1759 
Q 1497 1759 1228 1600 
Q 959 1441 959 1056 
Q 959 750 1161 570 
Q 1363 391 1709 391 
Q 2188 391 2477 730 
Q 2766 1069 2766 1631 
L 2766 1759 
L 2194 1759 
z
M 3341 1997 
L 3341 0 
L 2766 0 
L 2766 531 
Q 2569 213 2275 61 
Q 1981 -91 1556 -91 
Q 1019 -91 701 211 
Q 384 513 384 1019 
Q 384 1609 779 1909 
Q 1175 2209 1959 2209 
L 2766 2209 
L 2766 2266 
Q 2766 2663 2505 2880 
Q 2244 3097 1772 3097 
Q 1472 3097 1187 3025 
Q 903 2953 641 2809 
L 641 3341 
Q 956 3463 1253 3523 
Q 1550 3584 1831 3584 
Q 2591 3584 2966 3190 
Q 3341 2797 3341 1997 
z
" transform="scale(0.015625)"/>
      </defs>
      <use xlink:href="#DejaVuSans-41"/>
      <use xlink:href="#DejaVuSans-76" x="62.533203"/>
      <use xlink:href="#DejaVuSans-67" x="121.712891"/>
      <use xlink:href="#DejaVuSans-20" x="185.189453"/>
      <use xlink:href="#DejaVuSans-64" x="216.976562"/>
      <use xlink:href="#DejaVuSans-69" x="280.453125"/>
      <use xlink:href="#DejaVuSans-73" x="308.236328"/>
      <use xlink:href="#DejaVuSans-74" x="360.335938"/>
      <use xlink:href="#DejaVuSans-61" x="399.544922"/>
      <use xlink:href="#DejaVuSans-6e" x="460.824219"/>
      <use xlink:href="#DejaVuSans-63" x="524.203125"/>
      <use xlink:href="#DejaVuSans-65" x="579.183594"/>
      <use xlink:href="#DejaVuSans-20" x="640.707031"/>
      <use xlink:href="#DejaVuSans-74" x="672.494141"/>
      <use xlink:href="#DejaVuSans-6f" x="711.703125"/>
      <use xlink:href="#DejaVuSans-20" x="772.884766"/>
      <use xlink:href="#DejaVuSans-6e" x="804.671875"/>
      <use xlink:href="#DejaVuSans-65" x="868.050781"/>
      <use xlink:href="#DejaVuSans-61" x="929.574219"/>
      <use xlink:href="#DejaVuSans-72" x="990.853516"/>
      <use xlink:href="#DejaVuSans-65" x="1029.716797"/>
      <use xlink:href="#DejaVuSans-73" x="1091.240234"/>
      <use xlink:href="#DejaVuSans-74" x="1143.339844"/>
     </g>
     <!-- two genes (μm) -->
     <g transform="translate(41.03325 262.799935)rotate(-90)scale(0.18 -0.18)">
      <defs>
       <path id="DejaVuSans-77" d="M 269 3500 
L 844 3500 
L 1563 769 
L 2278 3500 
L 2956 3500 
L 3675 769 
L 4391 3500 
L 4966 3500 
L 4050 0 
L 3372 0 
L 2619 2869 
L 1863 0 
L 1184 0 
L 269 3500 
z
" transform="scale(0.015625)"/>
       <path id="DejaVuSans-28" d="M 1984 4856 
Q 1566 4138 1362 3434 
Q 1159 2731 1159 2009 
Q 1159 1288 1364 580 
Q 1569 -128 1984 -844 
L 1484 -844 
Q 1016 -109 783 600 
Q 550 1309 550 2009 
Q 550 2706 781 3412 
Q 1013 4119 1484 4856 
L 1984 4856 
z
" transform="scale(0.015625)"/>
       <path id="DejaVuSans-3bc" d="M 544 -1331 
L 544 3500 
L 1119 3500 
L 1119 1325 
Q 1119 872 1334 640 
Q 1550 409 1972 409 
Q 2434 409 2667 671 
Q 2900 934 2900 1459 
L 2900 3500 
L 3475 3500 
L 3475 806 
Q 3475 619 3529 530 
Q 3584 441 3700 441 
Q 3728 441 3778 458 
Q 3828 475 3916 513 
L 3916 50 
Q 3788 -22 3673 -56 
Q 3559 -91 3450 -91 
Q 3234 -91 3106 31 
Q 2978 153 2931 403 
Q 2775 156 2548 32 
Q 2322 -91 2016 -91 
Q 1697 -91 1473 31 
Q 1250 153 1119 397 
L 1119 -1331 
L 544 -1331 
z
" transform="scale(0.015625)"/>
       <path id="DejaVuSans-6d" d="M 3328 2828 
Q 3544 3216 3844 3400 
Q 4144 3584 4550 3584 
Q 5097 3584 5394 3201 
Q 5691 2819 5691 2113 
L 5691 0 
L 5113 0 
L 5113 2094 
Q 5113 2597 4934 2840 
Q 4756 3084 4391 3084 
Q 3944 3084 3684 2787 
Q 3425 2491 3425 1978 
L 3425 0 
L 2847 0 
L 2847 2094 
Q 2847 2600 2669 2842 
Q 2491 3084 2119 3084 
Q 1678 3084 1418 2786 
Q 1159 2488 1159 1978 
L 1159 0 
L 581 0 
L 581 3500 
L 1159 3500 
L 1159 2956 
Q 1356 3278 1631 3431 
Q 1906 3584 2284 3584 
Q 2666 3584 2933 3390 
Q 3200 3197 3328 2828 
z
" transform="scale(0.015625)"/>
       <path id="DejaVuSans-29" d="M 513 4856 
L 1013 4856 
Q 1481 4119 1714 3412 
Q 1947 2706 1947 2009 
Q 1947 1309 1714 600 
Q 1481 -109 1013 -844 
L 513 -844 
Q 928 -128 1133 580 
Q 1338 1288 1338 2009 
Q 1338 2731 1133 3434 
Q 928 4138 513 4856 
z
" transform="scale(0.015625)"/>
      </defs>
      <use xlink:href="#DejaVuSans-74"/>
      <use xlink:href="#DejaVuSans-77" x="39.208984"/>
      <use xlink:href="#DejaVuSans-6f" x="120.996094"/>
      <use xlink:href="#DejaVuSans-20" x="182.177734"/>
      <use xlink:href="#DejaVuSans-67" x="213.964844"/>
      <use xlink:href="#DejaVuSans-65" x="277.441406"/>
      <use xlink:href="#DejaVuSans-6e" x="338.964844"/>
      <use xlink:href="#DejaVuSans-65" x="402.34375"/>
      <use xlink:href="#DejaVuSans-73" x="463.867188"/>
      <use xlink:href="#DejaVuSans-20" x="515.966797"/>
      <use xlink:href="#DejaVuSans-28" x="547.753906"/>
      <use xlink:href="#DejaVuSans-3bc" x="586.767578"/>
      <use xlink:href="#DejaVuSans-6d" x="650.390625"/>
      <use xlink:href="#DejaVuSans-29" x="747.802734"/>
     </g>
    </g>
   </g>
   <g id="line2d_11">
    <path d="M 133.644352 26.173751 
L 133.644352 23.998801 
L 256.991798 23.998801 
L 256.991798 26.173751 
" clip-path="url(#p74cea2e5be)" style="fill: none; stroke: #ff7f0e; stroke-linecap: square"/>
   </g>
   <g id="line2d_12">
    <path d="M 380.339244 26.173751 
L 380.339244 23.998801 
L 503.68669 23.998801 
L 503.68669 26.173751 
" clip-path="url(#p74cea2e5be)" style="fill: none; stroke: #2ca02c; stroke-linecap: square"/>
   </g>
   <g id="patch_3">
    <path d="M 81.221688 376.773619 
L 81.221688 7.2 
" style="fill: none; stroke: #000000; stroke-width: 0.8; stroke-linejoin: miter; stroke-linecap: square"/>
   </g>
   <g id="patch_4">
    <path d="M 556.109354 376.773619 
L 556.109354 7.2 
" style="fill: none; stroke: #000000; stroke-width: 0.8; stroke-linejoin: miter; stroke-linecap: square"/>
   </g>
   <g id="patch_5">
    <path d="M 81.221688 376.773619 
L 556.109354 376.773619 
" style="fill: none; stroke: #000000; stroke-width: 0.8; stroke-linejoin: miter; stroke-linecap: square"/>
   </g>
   <g id="patch_6">
    <path d="M 81.221688 7.2 
L 556.109354 7.2 
" style="fill: none; stroke: #000000; stroke-width: 0.8; stroke-linejoin: miter; stroke-linecap: square"/>
   </g>
   <g id="PathCollection_1">
    <defs>
     <path id="mb52c1fbd2d" d="M 0 3 
C 0.795609 3 1.55874 2.683901 2.12132 2.12132 
C 2.683901 1.55874 3 0.795609 3 0 
C 3 -0.795609 2.683901 -1.55874 2.12132 -2.12132 
C 1.55874 -2.683901 0.795609 -3 0 -3 
C -0.795609 -3 -1.55874 -2.683901 -2.12132 -2.12132 
C -2.683901 -1.55874 -3 -0.795609 -3 0 
C -3 0.795609 -2.683901 1.55874 -2.12132 2.12132 
C -1.55874 2.683901 -0.795609 3 0 3 
z
" style="stroke: #000000"/>
    </defs>
    <g clip-path="url(#p74cea2e5be)">
     <use xlink:href="#mb52c1fbd2d" x="133.644352" y="258.413698" style="stroke: #000000"/>
    </g>
   </g>
   <g id="PathCollection_2">
    <g clip-path="url(#p74cea2e5be)">
     <use xlink:href="#mb52c1fbd2d" x="256.991798" y="253.687767" style="stroke: #000000"/>
    </g>
   </g>
   <g id="PathCollection_3">
    <g clip-path="url(#p74cea2e5be)">
     <use xlink:href="#mb52c1fbd2d" x="380.339244" y="228.339726" style="stroke: #000000"/>
    </g>
   </g>
   <g id="PathCollection_4">
    <g clip-path="url(#p74cea2e5be)">
     <use xlink:href="#mb52c1fbd2d" x="503.68669" y="242.230368" style="stroke: #000000"/>
    </g>
   </g>
   <g id="text_12">
    <!-- n.s. -->
    <g transform="translate(180.995575 20.671301)scale(0.16 -0.16)">
     <use xlink:href="#DejaVuSans-6e"/>
     <use xlink:href="#DejaVuSans-2e" x="63.378906"/>
     <use xlink:href="#DejaVuSans-73" x="95.166016"/>
     <use xlink:href="#DejaVuSans-2e" x="147.265625"/>
    </g>
   </g>
   <g id="text_13">
    <!-- * -->
    <g transform="translate(438.012967 20.671301)scale(0.16 -0.16)">
     <defs>
      <path id="DejaVuSans-2a" d="M 3009 3897 
L 1888 3291 
L 3009 2681 
L 2828 2375 
L 1778 3009 
L 1778 1831 
L 1422 1831 
L 1422 3009 
L 372 2375 
L 191 2681 
L 1313 3291 
L 191 3897 
L 372 4206 
L 1422 3572 
L 1422 4750 
L 1778 4750 
L 1778 3572 
L 2828 4206 
L 3009 3897 
z
" transform="scale(0.015625)"/>
     </defs>
     <use xlink:href="#DejaVuSans-2a"/>
    </g>
   </g>
  </g>
 </g>
 <defs>
  <clipPath id="p74cea2e5be">
   <rect x="81.221688" y="7.2" width="474.887667" height="369.573619"/>
  </clipPath>
 </defs>
</svg>
