<?xml version="1.0" encoding="utf-8" standalone="no"?>
<!DOCTYPE svg PUBLIC "-//W3C//DTD SVG 1.1//EN"
  "http://www.w3.org/Graphics/SVG/1.1/DTD/svg11.dtd">
<svg xmlns:xlink="http://www.w3.org/1999/xlink" width="712.120801pt" height="711.924375pt" viewBox="0 0 712.120801 711.924375" xmlns="http://www.w3.org/2000/svg" version="1.1">
 <metadata>
  <rdf:RDF xmlns:dc="http://purl.org/dc/elements/1.1/" xmlns:cc="http://creativecommons.org/ns#" xmlns:rdf="http://www.w3.org/1999/02/22-rdf-syntax-ns#">
   <cc:Work>
    <dc:type rdf:resource="http://purl.org/dc/dcmitype/StillImage"/>
    <dc:date>2026-05-05T13:28:30.468330</dc:date>
    <dc:format>image/svg+xml</dc:format>
    <dc:creator>
     <cc:Agent>
      <dc:title>Matplotlib v3.5.2, https://matplotlib.org/</dc:title>
     </cc:Agent>
    </dc:creator>
   </cc:Work>
  </rdf:RDF>
 </metadata>
 <defs>
  <style type="text/css">*{stroke-linejoin: round; stroke-linecap: butt}</style>
 </defs>
 <g id="figure_1">
  <g id="patch_1">
   <path d="M 0 711.924375 
L 712.120801 711.924375 
L 712.120801 0 
L 0 0 
z
" style="fill: #ffffff"/>
  </g>
  <g id="axes_1">
   <g id="patch_2">
    <path d="M 64.941875 318.37625 
L 377.200801 318.37625 
L 377.200801 31.43625 
L 64.941875 31.43625 
z
" style="fill: #ffffff"/>
   </g>
   <g id="patch_3">
    <path d="M 79.135463 318.37625 
L 93.32905 318.37625 
L 93.32905 311.869674 
L 79.135463 311.869674 
z
" clip-path="url(#pfc9966dd7a)" style="fill: #ff9896"/>
   </g>
   <g id="patch_4">
    <path d="M 93.32905 318.37625 
L 107.522638 318.37625 
L 107.522638 298.856522 
L 93.32905 298.856522 
z
" clip-path="url(#pfc9966dd7a)" style="fill: #ff9896"/>
   </g>
   <g id="patch_5">
    <path d="M 107.522638 318.37625 
L 121.716225 318.37625 
L 121.716225 272.830218 
L 107.522638 272.830218 
z
" clip-path="url(#pfc9966dd7a)" style="fill: #ff9896"/>
   </g>
   <g id="patch_6">
    <path d="M 121.716225 318.37625 
L 135.909813 318.37625 
L 135.909813 97.152667 
L 121.716225 97.152667 
z
" clip-path="url(#pfc9966dd7a)" style="fill: #ff9896"/>
   </g>
   <g id="patch_7">
    <path d="M 135.909813 318.37625 
L 150.1034 318.37625 
L 150.1034 51.606635 
L 135.909813 51.606635 
z
" clip-path="url(#pfc9966dd7a)" style="fill: #ff9896"/>
   </g>
   <g id="patch_8">
    <path d="M 150.1034 318.37625 
L 164.296988 318.37625 
L 164.296988 45.10006 
L 150.1034 45.10006 
z
" clip-path="url(#pfc9966dd7a)" style="fill: #ff9896"/>
   </g>
   <g id="patch_9">
    <path d="M 164.296988 318.37625 
L 178.490575 318.37625 
L 178.490575 123.178971 
L 164.296988 123.178971 
z
" clip-path="url(#pfc9966dd7a)" style="fill: #ff9896"/>
   </g>
   <g id="patch_10">
    <path d="M 178.490575 318.37625 
L 192.684163 318.37625 
L 192.684163 227.284187 
L 178.490575 227.284187 
z
" clip-path="url(#pfc9966dd7a)" style="fill: #ff9896"/>
   </g>
   <g id="patch_11">
    <path d="M 192.684163 318.37625 
L 206.87775 318.37625 
L 206.87775 279.336794 
L 192.684163 279.336794 
z
" clip-path="url(#pfc9966dd7a)" style="fill: #ff9896"/>
   </g>
   <g id="patch_12">
    <path d="M 206.87775 318.37625 
L 221.071338 318.37625 
L 221.071338 266.323642 
L 206.87775 266.323642 
z
" clip-path="url(#pfc9966dd7a)" style="fill: #ff9896"/>
   </g>
   <g id="patch_13">
    <path d="M 221.071338 318.37625 
L 235.264925 318.37625 
L 235.264925 292.349946 
L 221.071338 292.349946 
z
" clip-path="url(#pfc9966dd7a)" style="fill: #ff9896"/>
   </g>
   <g id="patch_14">
    <path d="M 235.264925 318.37625 
L 249.458513 318.37625 
L 249.458513 311.869674 
L 235.264925 311.869674 
z
" clip-path="url(#pfc9966dd7a)" style="fill: #ff9896"/>
   </g>
   <g id="patch_15">
    <path d="M 249.458513 318.37625 
L 263.6521 318.37625 
L 263.6521 318.37625 
L 249.458513 318.37625 
z
" clip-path="url(#pfc9966dd7a)" style="fill: #ff9896"/>
   </g>
   <g id="patch_16">
    <path d="M 263.6521 318.37625 
L 277.845688 318.37625 
L 277.845688 318.37625 
L 263.6521 318.37625 
z
" clip-path="url(#pfc9966dd7a)" style="fill: #ff9896"/>
   </g>
   <g id="patch_17">
    <path d="M 277.845688 318.37625 
L 292.039275 318.37625 
L 292.039275 318.37625 
L 277.845688 318.37625 
z
" clip-path="url(#pfc9966dd7a)" style="fill: #ff9896"/>
   </g>
   <g id="patch_18">
    <path d="M 292.039275 318.37625 
L 306.232863 318.37625 
L 306.232863 318.37625 
L 292.039275 318.37625 
z
" clip-path="url(#pfc9966dd7a)" style="fill: #ff9896"/>
   </g>
   <g id="patch_19">
    <path d="M 306.232863 318.37625 
L 320.426451 318.37625 
L 320.426451 318.37625 
L 306.232863 318.37625 
z
" clip-path="url(#pfc9966dd7a)" style="fill: #ff9896"/>
   </g>
   <g id="patch_20">
    <path d="M 320.426451 318.37625 
L 334.620038 318.37625 
L 334.620038 318.37625 
L 320.426451 318.37625 
z
" clip-path="url(#pfc9966dd7a)" style="fill: #ff9896"/>
   </g>
   <g id="patch_21">
    <path d="M 334.620038 318.37625 
L 348.813626 318.37625 
L 348.813626 318.37625 
L 334.620038 318.37625 
z
" clip-path="url(#pfc9966dd7a)" style="fill: #ff9896"/>
   </g>
   <g id="patch_22">
    <path d="M 348.813626 318.37625 
L 363.007213 318.37625 
L 363.007213 318.37625 
L 348.813626 318.37625 
z
" clip-path="url(#pfc9966dd7a)" style="fill: #ff9896"/>
   </g>
   <g id="matplotlib.axis_1">
    <g id="xtick_1">
     <g id="line2d_1">
      <defs>
       <path id="m6a2ffde5ac" d="M 0 0 
L 0 3.5 
" style="stroke: #000000; stroke-width: 0.8"/>
      </defs>
      <g>
       <use xlink:href="#m6a2ffde5ac" x="79.135463" y="318.37625" style="stroke: #000000; stroke-width: 0.8"/>
      </g>
     </g>
    </g>
    <g id="xtick_2">
     <g id="line2d_2">
      <g>
       <use xlink:href="#m6a2ffde5ac" x="150.1034" y="318.37625" style="stroke: #000000; stroke-width: 0.8"/>
      </g>
     </g>
    </g>
    <g id="xtick_3">
     <g id="line2d_3">
      <g>
       <use xlink:href="#m6a2ffde5ac" x="221.071338" y="318.37625" style="stroke: #000000; stroke-width: 0.8"/>
      </g>
     </g>
    </g>
    <g id="xtick_4">
     <g id="line2d_4">
      <g>
       <use xlink:href="#m6a2ffde5ac" x="292.039275" y="318.37625" style="stroke: #000000; stroke-width: 0.8"/>
      </g>
     </g>
    </g>
    <g id="xtick_5">
     <g id="line2d_5">
      <g>
       <use xlink:href="#m6a2ffde5ac" x="363.007213" y="318.37625" style="stroke: #000000; stroke-width: 0.8"/>
      </g>
     </g>
    </g>
   </g>
   <g id="matplotlib.axis_2">
    <g id="ytick_1">
     <g id="line2d_6">
      <defs>
       <path id="m3d272b0ef4" d="M 0 0 
L -3.5 0 
" style="stroke: #000000; stroke-width: 0.8"/>
      </defs>
      <g>
       <use xlink:href="#m3d272b0ef4" x="64.941875" y="318.37625" style="stroke: #000000; stroke-width: 0.8"/>
      </g>
     </g>
     <g id="text_1">
      <!-- 0 -->
      <g transform="translate(45.216875 325.974687)scale(0.2 -0.2)">
       <defs>
        <path id="DejaVuSans-30" d="M 2034 4250 
Q 1547 4250 1301 3770 
Q 1056 3291 1056 2328 
Q 1056 1369 1301 889 
Q 1547 409 2034 409 
Q 2525 409 2770 889 
Q 3016 1369 3016 2328 
Q 3016 3291 2770 3770 
Q 2525 4250 2034 4250 
z
M 2034 4750 
Q 2819 4750 3233 4129 
Q 3647 3509 3647 2328 
Q 3647 1150 3233 529 
Q 2819 -91 2034 -91 
Q 1250 -91 836 529 
Q 422 1150 422 2328 
Q 422 3509 836 4129 
Q 1250 4750 2034 4750 
z
" transform="scale(0.015625)"/>
       </defs>
       <use xlink:href="#DejaVuSans-30"/>
      </g>
     </g>
    </g>
    <g id="ytick_2">
     <g id="line2d_7">
      <g>
       <use xlink:href="#m3d272b0ef4" x="64.941875" y="253.31049" style="stroke: #000000; stroke-width: 0.8"/>
      </g>
     </g>
     <g id="text_2">
      <!-- 10 -->
      <g transform="translate(32.491875 260.908928)scale(0.2 -0.2)">
       <defs>
        <path id="DejaVuSans-31" d="M 794 531 
L 1825 531 
L 1825 4091 
L 703 3866 
L 703 4441 
L 1819 4666 
L 2450 4666 
L 2450 531 
L 3481 531 
L 3481 0 
L 794 0 
L 794 531 
z
" transform="scale(0.015625)"/>
       </defs>
       <use xlink:href="#DejaVuSans-31"/>
       <use xlink:href="#DejaVuSans-30" x="63.623047"/>
      </g>
     </g>
    </g>
    <g id="ytick_3">
     <g id="line2d_8">
      <g>
       <use xlink:href="#m3d272b0ef4" x="64.941875" y="188.244731" style="stroke: #000000; stroke-width: 0.8"/>
      </g>
     </g>
     <g id="text_3">
      <!-- 20 -->
      <g transform="translate(32.491875 195.843168)scale(0.2 -0.2)">
       <defs>
        <path id="DejaVuSans-32" d="M 1228 531 
L 3431 531 
L 3431 0 
L 469 0 
L 469 531 
Q 828 903 1448 1529 
Q 2069 2156 2228 2338 
Q 2531 2678 2651 2914 
Q 2772 3150 2772 3378 
Q 2772 3750 2511 3984 
Q 2250 4219 1831 4219 
Q 1534 4219 1204 4116 
Q 875 4013 500 3803 
L 500 4441 
Q 881 4594 1212 4672 
Q 1544 4750 1819 4750 
Q 2544 4750 2975 4387 
Q 3406 4025 3406 3419 
Q 3406 3131 3298 2873 
Q 3191 2616 2906 2266 
Q 2828 2175 2409 1742 
Q 1991 1309 1228 531 
z
" transform="scale(0.015625)"/>
       </defs>
       <use xlink:href="#DejaVuSans-32"/>
       <use xlink:href="#DejaVuSans-30" x="63.623047"/>
      </g>
     </g>
    </g>
    <g id="ytick_4">
     <g id="line2d_9">
      <g>
       <use xlink:href="#m3d272b0ef4" x="64.941875" y="123.178971" style="stroke: #000000; stroke-width: 0.8"/>
      </g>
     </g>
     <g id="text_4">
      <!-- 30 -->
      <g transform="translate(32.491875 130.777409)scale(0.2 -0.2)">
       <defs>
        <path id="DejaVuSans-33" d="M 2597 2516 
Q 3050 2419 3304 2112 
Q 3559 1806 3559 1356 
Q 3559 666 3084 287 
Q 2609 -91 1734 -91 
Q 1441 -91 1130 -33 
Q 819 25 488 141 
L 488 750 
Q 750 597 1062 519 
Q 1375 441 1716 441 
Q 2309 441 2620 675 
Q 2931 909 2931 1356 
Q 2931 1769 2642 2001 
Q 2353 2234 1838 2234 
L 1294 2234 
L 1294 2753 
L 1863 2753 
Q 2328 2753 2575 2939 
Q 2822 3125 2822 3475 
Q 2822 3834 2567 4026 
Q 2313 4219 1838 4219 
Q 1578 4219 1281 4162 
Q 984 4106 628 3988 
L 628 4550 
Q 988 4650 1302 4700 
Q 1616 4750 1894 4750 
Q 2613 4750 3031 4423 
Q 3450 4097 3450 3541 
Q 3450 3153 3228 2886 
Q 3006 2619 2597 2516 
z
" transform="scale(0.015625)"/>
       </defs>
       <use xlink:href="#DejaVuSans-33"/>
       <use xlink:href="#DejaVuSans-30" x="63.623047"/>
      </g>
     </g>
    </g>
    <g id="ytick_5">
     <g id="line2d_10">
      <g>
       <use xlink:href="#m3d272b0ef4" x="64.941875" y="58.113211" style="stroke: #000000; stroke-width: 0.8"/>
      </g>
     </g>
     <g id="text_5">
      <!-- 40 -->
      <g transform="translate(32.491875 65.711649)scale(0.2 -0.2)">
       <defs>
        <path id="DejaVuSans-34" d="M 2419 4116 
L 825 1625 
L 2419 1625 
L 2419 4116 
z
M 2253 4666 
L 3047 4666 
L 3047 1625 
L 3713 1625 
L 3713 1100 
L 3047 1100 
L 3047 0 
L 2419 0 
L 2419 1100 
L 313 1100 
L 313 1709 
L 2253 4666 
z
" transform="scale(0.015625)"/>
       </defs>
       <use xlink:href="#DejaVuSans-34"/>
       <use xlink:href="#DejaVuSans-30" x="63.623047"/>
      </g>
     </g>
    </g>
    <g id="text_6">
     <!-- # of cells -->
     <g transform="translate(23.916563 226.377656)rotate(-90)scale(0.22 -0.22)">
      <defs>
       <path id="DejaVuSans-23" d="M 3272 2816 
L 2363 2816 
L 2100 1772 
L 3016 1772 
L 3272 2816 
z
M 2803 4594 
L 2478 3297 
L 3391 3297 
L 3719 4594 
L 4219 4594 
L 3897 3297 
L 4872 3297 
L 4872 2816 
L 3775 2816 
L 3519 1772 
L 4513 1772 
L 4513 1294 
L 3397 1294 
L 3072 0 
L 2572 0 
L 2894 1294 
L 1978 1294 
L 1656 0 
L 1153 0 
L 1478 1294 
L 494 1294 
L 494 1772 
L 1594 1772 
L 1856 2816 
L 850 2816 
L 850 3297 
L 1978 3297 
L 2297 4594 
L 2803 4594 
z
" transform="scale(0.015625)"/>
       <path id="DejaVuSans-20" transform="scale(0.015625)"/>
       <path id="DejaVuSans-6f" d="M 1959 3097 
Q 1497 3097 1228 2736 
Q 959 2375 959 1747 
Q 959 1119 1226 758 
Q 1494 397 1959 397 
Q 2419 397 2687 759 
Q 2956 1122 2956 1747 
Q 2956 2369 2687 2733 
Q 2419 3097 1959 3097 
z
M 1959 3584 
Q 2709 3584 3137 3096 
Q 3566 2609 3566 1747 
Q 3566 888 3137 398 
Q 2709 -91 1959 -91 
Q 1206 -91 779 398 
Q 353 888 353 1747 
Q 353 2609 779 3096 
Q 1206 3584 1959 3584 
z
" transform="scale(0.015625)"/>
       <path id="DejaVuSans-66" d="M 2375 4863 
L 2375 4384 
L 1825 4384 
Q 1516 4384 1395 4259 
Q 1275 4134 1275 3809 
L 1275 3500 
L 2222 3500 
L 2222 3053 
L 1275 3053 
L 1275 0 
L 697 0 
L 697 3053 
L 147 3053 
L 147 3500 
L 697 3500 
L 697 3744 
Q 697 4328 969 4595 
Q 1241 4863 1831 4863 
L 2375 4863 
z
" transform="scale(0.015625)"/>
       <path id="DejaVuSans-63" d="M 3122 3366 
L 3122 2828 
Q 2878 2963 2633 3030 
Q 2388 3097 2138 3097 
Q 1578 3097 1268 2742 
Q 959 2388 959 1747 
Q 959 1106 1268 751 
Q 1578 397 2138 397 
Q 2388 397 2633 464 
Q 2878 531 3122 666 
L 3122 134 
Q 2881 22 2623 -34 
Q 2366 -91 2075 -91 
Q 1284 -91 818 406 
Q 353 903 353 1747 
Q 353 2603 823 3093 
Q 1294 3584 2113 3584 
Q 2378 3584 2631 3529 
Q 2884 3475 3122 3366 
z
" transform="scale(0.015625)"/>
       <path id="DejaVuSans-65" d="M 3597 1894 
L 3597 1613 
L 953 1613 
Q 991 1019 1311 708 
Q 1631 397 2203 397 
Q 2534 397 2845 478 
Q 3156 559 3463 722 
L 3463 178 
Q 3153 47 2828 -22 
Q 2503 -91 2169 -91 
Q 1331 -91 842 396 
Q 353 884 353 1716 
Q 353 2575 817 3079 
Q 1281 3584 2069 3584 
Q 2775 3584 3186 3129 
Q 3597 2675 3597 1894 
z
M 3022 2063 
Q 3016 2534 2758 2815 
Q 2500 3097 2075 3097 
Q 1594 3097 1305 2825 
Q 1016 2553 972 2059 
L 3022 2063 
z
" transform="scale(0.015625)"/>
       <path id="DejaVuSans-6c" d="M 603 4863 
L 1178 4863 
L 1178 0 
L 603 0 
L 603 4863 
z
" transform="scale(0.015625)"/>
       <path id="DejaVuSans-73" d="M 2834 3397 
L 2834 2853 
Q 2591 2978 2328 3040 
Q 2066 3103 1784 3103 
Q 1356 3103 1142 2972 
Q 928 2841 928 2578 
Q 928 2378 1081 2264 
Q 1234 2150 1697 2047 
L 1894 2003 
Q 2506 1872 2764 1633 
Q 3022 1394 3022 966 
Q 3022 478 2636 193 
Q 2250 -91 1575 -91 
Q 1294 -91 989 -36 
Q 684 19 347 128 
L 347 722 
Q 666 556 975 473 
Q 1284 391 1588 391 
Q 1994 391 2212 530 
Q 2431 669 2431 922 
Q 2431 1156 2273 1281 
Q 2116 1406 1581 1522 
L 1381 1569 
Q 847 1681 609 1914 
Q 372 2147 372 2553 
Q 372 3047 722 3315 
Q 1072 3584 1716 3584 
Q 2034 3584 2315 3537 
Q 2597 3491 2834 3397 
z
" transform="scale(0.015625)"/>
      </defs>
      <use xlink:href="#DejaVuSans-23"/>
      <use xlink:href="#DejaVuSans-20" x="83.789062"/>
      <use xlink:href="#DejaVuSans-6f" x="115.576172"/>
      <use xlink:href="#DejaVuSans-66" x="176.757812"/>
      <use xlink:href="#DejaVuSans-20" x="211.962891"/>
      <use xlink:href="#DejaVuSans-63" x="243.75"/>
      <use xlink:href="#DejaVuSans-65" x="298.730469"/>
      <use xlink:href="#DejaVuSans-6c" x="360.253906"/>
      <use xlink:href="#DejaVuSans-6c" x="388.037109"/>
      <use xlink:href="#DejaVuSans-73" x="415.820312"/>
     </g>
    </g>
   </g>
   <g id="line2d_11">
    <path d="M 150.1034 318.37625 
L 150.1034 31.43625 
" clip-path="url(#pfc9966dd7a)" style="fill: none; stroke-dasharray: 5.55,2.4; stroke-dashoffset: 0; stroke: #000000; stroke-width: 1.5"/>
   </g>
   <g id="line2d_12">
    <path d="M 221.071338 318.37625 
L 221.071338 31.43625 
" clip-path="url(#pfc9966dd7a)" style="fill: none; stroke-dasharray: 5.55,2.4; stroke-dashoffset: 0; stroke: #000000; stroke-width: 1.5"/>
   </g>
   <g id="patch_23">
    <path d="M 64.941875 318.37625 
L 64.941875 31.43625 
" style="fill: none; stroke: #000000; stroke-width: 0.8; stroke-linejoin: miter; stroke-linecap: square"/>
   </g>
   <g id="patch_24">
    <path d="M 377.200801 318.37625 
L 377.200801 31.43625 
" style="fill: none; stroke: #000000; stroke-width: 0.8; stroke-linejoin: miter; stroke-linecap: square"/>
   </g>
   <g id="patch_25">
    <path d="M 64.941875 318.37625 
L 377.200801 318.37625 
" style="fill: none; stroke: #000000; stroke-width: 0.8; stroke-linejoin: miter; stroke-linecap: square"/>
   </g>
   <g id="patch_26">
    <path d="M 64.941875 31.43625 
L 377.200801 31.43625 
" style="fill: none; stroke: #000000; stroke-width: 0.8; stroke-linejoin: miter; stroke-linecap: square"/>
   </g>
   <g id="text_7">
    <!-- Young + vector control -->
    <g transform="translate(84.010713 25.43625)scale(0.24 -0.24)">
     <defs>
      <path id="DejaVuSans-59" d="M -13 4666 
L 666 4666 
L 1959 2747 
L 3244 4666 
L 3922 4666 
L 2272 2222 
L 2272 0 
L 1638 0 
L 1638 2222 
L -13 4666 
z
" transform="scale(0.015625)"/>
      <path id="DejaVuSans-75" d="M 544 1381 
L 544 3500 
L 1119 3500 
L 1119 1403 
Q 1119 906 1312 657 
Q 1506 409 1894 409 
Q 2359 409 2629 706 
Q 2900 1003 2900 1516 
L 2900 3500 
L 3475 3500 
L 3475 0 
L 2900 0 
L 2900 538 
Q 2691 219 2414 64 
Q 2138 -91 1772 -91 
Q 1169 -91 856 284 
Q 544 659 544 1381 
z
M 1991 3584 
L 1991 3584 
z
" transform="scale(0.015625)"/>
      <path id="DejaVuSans-6e" d="M 3513 2113 
L 3513 0 
L 2938 0 
L 2938 2094 
Q 2938 2591 2744 2837 
Q 2550 3084 2163 3084 
Q 1697 3084 1428 2787 
Q 1159 2491 1159 1978 
L 1159 0 
L 581 0 
L 581 3500 
L 1159 3500 
L 1159 2956 
Q 1366 3272 1645 3428 
Q 1925 3584 2291 3584 
Q 2894 3584 3203 3211 
Q 3513 2838 3513 2113 
z
" transform="scale(0.015625)"/>
      <path id="DejaVuSans-67" d="M 2906 1791 
Q 2906 2416 2648 2759 
Q 2391 3103 1925 3103 
Q 1463 3103 1205 2759 
Q 947 2416 947 1791 
Q 947 1169 1205 825 
Q 1463 481 1925 481 
Q 2391 481 2648 825 
Q 2906 1169 2906 1791 
z
M 3481 434 
Q 3481 -459 3084 -895 
Q 2688 -1331 1869 -1331 
Q 1566 -1331 1297 -1286 
Q 1028 -1241 775 -1147 
L 775 -588 
Q 1028 -725 1275 -790 
Q 1522 -856 1778 -856 
Q 2344 -856 2625 -561 
Q 2906 -266 2906 331 
L 2906 616 
Q 2728 306 2450 153 
Q 2172 0 1784 0 
Q 1141 0 747 490 
Q 353 981 353 1791 
Q 353 2603 747 3093 
Q 1141 3584 1784 3584 
Q 2172 3584 2450 3431 
Q 2728 3278 2906 2969 
L 2906 3500 
L 3481 3500 
L 3481 434 
z
" transform="scale(0.015625)"/>
      <path id="DejaVuSans-2b" d="M 2944 4013 
L 2944 2272 
L 4684 2272 
L 4684 1741 
L 2944 1741 
L 2944 0 
L 2419 0 
L 2419 1741 
L 678 1741 
L 678 2272 
L 2419 2272 
L 2419 4013 
L 2944 4013 
z
" transform="scale(0.015625)"/>
      <path id="DejaVuSans-76" d="M 191 3500 
L 800 3500 
L 1894 563 
L 2988 3500 
L 3597 3500 
L 2284 0 
L 1503 0 
L 191 3500 
z
" transform="scale(0.015625)"/>
      <path id="DejaVuSans-74" d="M 1172 4494 
L 1172 3500 
L 2356 3500 
L 2356 3053 
L 1172 3053 
L 1172 1153 
Q 1172 725 1289 603 
Q 1406 481 1766 481 
L 2356 481 
L 2356 0 
L 1766 0 
Q 1100 0 847 248 
Q 594 497 594 1153 
L 594 3053 
L 172 3053 
L 172 3500 
L 594 3500 
L 594 4494 
L 1172 4494 
z
" transform="scale(0.015625)"/>
      <path id="DejaVuSans-72" d="M 2631 2963 
Q 2534 3019 2420 3045 
Q 2306 3072 2169 3072 
Q 1681 3072 1420 2755 
Q 1159 2438 1159 1844 
L 1159 0 
L 581 0 
L 581 3500 
L 1159 3500 
L 1159 2956 
Q 1341 3275 1631 3429 
Q 1922 3584 2338 3584 
Q 2397 3584 2469 3576 
Q 2541 3569 2628 3553 
L 2631 2963 
z
" transform="scale(0.015625)"/>
     </defs>
     <use xlink:href="#DejaVuSans-59"/>
     <use xlink:href="#DejaVuSans-6f" x="47.833984"/>
     <use xlink:href="#DejaVuSans-75" x="109.015625"/>
     <use xlink:href="#DejaVuSans-6e" x="172.394531"/>
     <use xlink:href="#DejaVuSans-67" x="235.773438"/>
     <use xlink:href="#DejaVuSans-20" x="299.25"/>
     <use xlink:href="#DejaVuSans-2b" x="331.037109"/>
     <use xlink:href="#DejaVuSans-20" x="414.826172"/>
     <use xlink:href="#DejaVuSans-76" x="446.613281"/>
     <use xlink:href="#DejaVuSans-65" x="505.792969"/>
     <use xlink:href="#DejaVuSans-63" x="567.316406"/>
     <use xlink:href="#DejaVuSans-74" x="622.296875"/>
     <use xlink:href="#DejaVuSans-6f" x="661.505859"/>
     <use xlink:href="#DejaVuSans-72" x="722.6875"/>
     <use xlink:href="#DejaVuSans-20" x="763.800781"/>
     <use xlink:href="#DejaVuSans-63" x="795.587891"/>
     <use xlink:href="#DejaVuSans-6f" x="850.568359"/>
     <use xlink:href="#DejaVuSans-6e" x="911.75"/>
     <use xlink:href="#DejaVuSans-74" x="975.128906"/>
     <use xlink:href="#DejaVuSans-72" x="1014.337891"/>
     <use xlink:href="#DejaVuSans-6f" x="1053.201172"/>
     <use xlink:href="#DejaVuSans-6c" x="1114.382812"/>
    </g>
   </g>
  </g>
  <g id="axes_2">
   <g id="patch_27">
    <path d="M 392.661875 318.37625 
L 704.920801 318.37625 
L 704.920801 31.43625 
L 392.661875 31.43625 
z
" style="fill: #ffffff"/>
   </g>
   <g id="patch_28">
    <path d="M 406.855463 318.37625 
L 421.04905 318.37625 
L 421.04905 298.856522 
L 406.855463 298.856522 
z
" clip-path="url(#p88632c032c)" style="fill: #e377c2"/>
   </g>
   <g id="patch_29">
    <path d="M 421.04905 318.37625 
L 435.242638 318.37625 
L 435.242638 318.37625 
L 421.04905 318.37625 
z
" clip-path="url(#p88632c032c)" style="fill: #e377c2"/>
   </g>
   <g id="patch_30">
    <path d="M 435.242638 318.37625 
L 449.436225 318.37625 
L 449.436225 311.869674 
L 435.242638 311.869674 
z
" clip-path="url(#p88632c032c)" style="fill: #e377c2"/>
   </g>
   <g id="patch_31">
    <path d="M 449.436225 318.37625 
L 463.629813 318.37625 
L 463.629813 318.37625 
L 449.436225 318.37625 
z
" clip-path="url(#p88632c032c)" style="fill: #e377c2"/>
   </g>
   <g id="patch_32">
    <path d="M 463.629813 318.37625 
L 477.8234 318.37625 
L 477.8234 298.856522 
L 463.629813 298.856522 
z
" clip-path="url(#p88632c032c)" style="fill: #e377c2"/>
   </g>
   <g id="patch_33">
    <path d="M 477.8234 318.37625 
L 492.016988 318.37625 
L 492.016988 285.84337 
L 477.8234 285.84337 
z
" clip-path="url(#p88632c032c)" style="fill: #e377c2"/>
   </g>
   <g id="patch_34">
    <path d="M 492.016988 318.37625 
L 506.210575 318.37625 
L 506.210575 272.830218 
L 492.016988 272.830218 
z
" clip-path="url(#p88632c032c)" style="fill: #e377c2"/>
   </g>
   <g id="patch_35">
    <path d="M 506.210575 318.37625 
L 520.404163 318.37625 
L 520.404163 285.84337 
L 506.210575 285.84337 
z
" clip-path="url(#p88632c032c)" style="fill: #e377c2"/>
   </g>
   <g id="patch_36">
    <path d="M 520.404163 318.37625 
L 534.59775 318.37625 
L 534.59775 292.349946 
L 520.404163 292.349946 
z
" clip-path="url(#p88632c032c)" style="fill: #e377c2"/>
   </g>
   <g id="patch_37">
    <path d="M 534.59775 318.37625 
L 548.791338 318.37625 
L 548.791338 292.349946 
L 534.59775 292.349946 
z
" clip-path="url(#p88632c032c)" style="fill: #e377c2"/>
   </g>
   <g id="patch_38">
    <path d="M 548.791338 318.37625 
L 562.984925 318.37625 
L 562.984925 285.84337 
L 548.791338 285.84337 
z
" clip-path="url(#p88632c032c)" style="fill: #e377c2"/>
   </g>
   <g id="patch_39">
    <path d="M 562.984925 318.37625 
L 577.178513 318.37625 
L 577.178513 298.856522 
L 562.984925 298.856522 
z
" clip-path="url(#p88632c032c)" style="fill: #e377c2"/>
   </g>
   <g id="patch_40">
    <path d="M 577.178513 318.37625 
L 591.3721 318.37625 
L 591.3721 298.856522 
L 577.178513 298.856522 
z
" clip-path="url(#p88632c032c)" style="fill: #e377c2"/>
   </g>
   <g id="patch_41">
    <path d="M 591.3721 318.37625 
L 605.565688 318.37625 
L 605.565688 311.869674 
L 591.3721 311.869674 
z
" clip-path="url(#p88632c032c)" style="fill: #e377c2"/>
   </g>
   <g id="patch_42">
    <path d="M 605.565688 318.37625 
L 619.759275 318.37625 
L 619.759275 285.84337 
L 605.565688 285.84337 
z
" clip-path="url(#p88632c032c)" style="fill: #e377c2"/>
   </g>
   <g id="patch_43">
    <path d="M 619.759275 318.37625 
L 633.952863 318.37625 
L 633.952863 311.869674 
L 619.759275 311.869674 
z
" clip-path="url(#p88632c032c)" style="fill: #e377c2"/>
   </g>
   <g id="patch_44">
    <path d="M 633.952863 318.37625 
L 648.146451 318.37625 
L 648.146451 298.856522 
L 633.952863 298.856522 
z
" clip-path="url(#p88632c032c)" style="fill: #e377c2"/>
   </g>
   <g id="patch_45">
    <path d="M 648.146451 318.37625 
L 662.340038 318.37625 
L 662.340038 318.37625 
L 648.146451 318.37625 
z
" clip-path="url(#p88632c032c)" style="fill: #e377c2"/>
   </g>
   <g id="patch_46">
    <path d="M 662.340038 318.37625 
L 676.533626 318.37625 
L 676.533626 318.37625 
L 662.340038 318.37625 
z
" clip-path="url(#p88632c032c)" style="fill: #e377c2"/>
   </g>
   <g id="patch_47">
    <path d="M 676.533626 318.37625 
L 690.727213 318.37625 
L 690.727213 318.37625 
L 676.533626 318.37625 
z
" clip-path="url(#p88632c032c)" style="fill: #e377c2"/>
   </g>
   <g id="matplotlib.axis_3">
    <g id="xtick_6">
     <g id="line2d_13">
      <g>
       <use xlink:href="#m6a2ffde5ac" x="406.855463" y="318.37625" style="stroke: #000000; stroke-width: 0.8"/>
      </g>
     </g>
    </g>
    <g id="xtick_7">
     <g id="line2d_14">
      <g>
       <use xlink:href="#m6a2ffde5ac" x="477.8234" y="318.37625" style="stroke: #000000; stroke-width: 0.8"/>
      </g>
     </g>
    </g>
    <g id="xtick_8">
     <g id="line2d_15">
      <g>
       <use xlink:href="#m6a2ffde5ac" x="548.791338" y="318.37625" style="stroke: #000000; stroke-width: 0.8"/>
      </g>
     </g>
    </g>
    <g id="xtick_9">
     <g id="line2d_16">
      <g>
       <use xlink:href="#m6a2ffde5ac" x="619.759275" y="318.37625" style="stroke: #000000; stroke-width: 0.8"/>
      </g>
     </g>
    </g>
    <g id="xtick_10">
     <g id="line2d_17">
      <g>
       <use xlink:href="#m6a2ffde5ac" x="690.727213" y="318.37625" style="stroke: #000000; stroke-width: 0.8"/>
      </g>
     </g>
    </g>
   </g>
   <g id="matplotlib.axis_4">
    <g id="ytick_6">
     <g id="line2d_18">
      <g>
       <use xlink:href="#m3d272b0ef4" x="392.661875" y="318.37625" style="stroke: #000000; stroke-width: 0.8"/>
      </g>
     </g>
    </g>
    <g id="ytick_7">
     <g id="line2d_19">
      <g>
       <use xlink:href="#m3d272b0ef4" x="392.661875" y="253.31049" style="stroke: #000000; stroke-width: 0.8"/>
      </g>
     </g>
    </g>
    <g id="ytick_8">
     <g id="line2d_20">
      <g>
       <use xlink:href="#m3d272b0ef4" x="392.661875" y="188.244731" style="stroke: #000000; stroke-width: 0.8"/>
      </g>
     </g>
    </g>
    <g id="ytick_9">
     <g id="line2d_21">
      <g>
       <use xlink:href="#m3d272b0ef4" x="392.661875" y="123.178971" style="stroke: #000000; stroke-width: 0.8"/>
      </g>
     </g>
    </g>
    <g id="ytick_10">
     <g id="line2d_22">
      <g>
       <use xlink:href="#m3d272b0ef4" x="392.661875" y="58.113211" style="stroke: #000000; stroke-width: 0.8"/>
      </g>
     </g>
    </g>
   </g>
   <g id="line2d_23">
    <path d="M 477.8234 318.37625 
L 477.8234 31.43625 
" clip-path="url(#p88632c032c)" style="fill: none; stroke-dasharray: 5.55,2.4; stroke-dashoffset: 0; stroke: #000000; stroke-width: 1.5"/>
   </g>
   <g id="line2d_24">
    <path d="M 548.791338 318.37625 
L 548.791338 31.43625 
" clip-path="url(#p88632c032c)" style="fill: none; stroke-dasharray: 5.55,2.4; stroke-dashoffset: 0; stroke: #000000; stroke-width: 1.5"/>
   </g>
   <g id="patch_48">
    <path d="M 392.661875 318.37625 
L 392.661875 31.43625 
" style="fill: none; stroke: #000000; stroke-width: 0.8; stroke-linejoin: miter; stroke-linecap: square"/>
   </g>
   <g id="patch_49">
    <path d="M 704.920801 318.37625 
L 704.920801 31.43625 
" style="fill: none; stroke: #000000; stroke-width: 0.8; stroke-linejoin: miter; stroke-linecap: square"/>
   </g>
   <g id="patch_50">
    <path d="M 392.661875 318.37625 
L 704.920801 318.37625 
" style="fill: none; stroke: #000000; stroke-width: 0.8; stroke-linejoin: miter; stroke-linecap: square"/>
   </g>
   <g id="patch_51">
    <path d="M 392.661875 31.43625 
L 704.920801 31.43625 
" style="fill: none; stroke: #000000; stroke-width: 0.8; stroke-linejoin: miter; stroke-linecap: square"/>
   </g>
   <g id="text_8">
    <!-- Young + LMO7-AS1 -->
    <g transform="translate(433.555713 25.43625)scale(0.24 -0.24)">
     <defs>
      <path id="DejaVuSans-4c" d="M 628 4666 
L 1259 4666 
L 1259 531 
L 3531 531 
L 3531 0 
L 628 0 
L 628 4666 
z
" transform="scale(0.015625)"/>
      <path id="DejaVuSans-4d" d="M 628 4666 
L 1569 4666 
L 2759 1491 
L 3956 4666 
L 4897 4666 
L 4897 0 
L 4281 0 
L 4281 4097 
L 3078 897 
L 2444 897 
L 1241 4097 
L 1241 0 
L 628 0 
L 628 4666 
z
" transform="scale(0.015625)"/>
      <path id="DejaVuSans-4f" d="M 2522 4238 
Q 1834 4238 1429 3725 
Q 1025 3213 1025 2328 
Q 1025 1447 1429 934 
Q 1834 422 2522 422 
Q 3209 422 3611 934 
Q 4013 1447 4013 2328 
Q 4013 3213 3611 3725 
Q 3209 4238 2522 4238 
z
M 2522 4750 
Q 3503 4750 4090 4092 
Q 4678 3434 4678 2328 
Q 4678 1225 4090 567 
Q 3503 -91 2522 -91 
Q 1538 -91 948 565 
Q 359 1222 359 2328 
Q 359 3434 948 4092 
Q 1538 4750 2522 4750 
z
" transform="scale(0.015625)"/>
      <path id="DejaVuSans-37" d="M 525 4666 
L 3525 4666 
L 3525 4397 
L 1831 0 
L 1172 0 
L 2766 4134 
L 525 4134 
L 525 4666 
z
" transform="scale(0.015625)"/>
      <path id="DejaVuSans-2d" d="M 313 2009 
L 1997 2009 
L 1997 1497 
L 313 1497 
L 313 2009 
z
" transform="scale(0.015625)"/>
      <path id="DejaVuSans-41" d="M 2188 4044 
L 1331 1722 
L 3047 1722 
L 2188 4044 
z
M 1831 4666 
L 2547 4666 
L 4325 0 
L 3669 0 
L 3244 1197 
L 1141 1197 
L 716 0 
L 50 0 
L 1831 4666 
z
" transform="scale(0.015625)"/>
      <path id="DejaVuSans-53" d="M 3425 4513 
L 3425 3897 
Q 3066 4069 2747 4153 
Q 2428 4238 2131 4238 
Q 1616 4238 1336 4038 
Q 1056 3838 1056 3469 
Q 1056 3159 1242 3001 
Q 1428 2844 1947 2747 
L 2328 2669 
Q 3034 2534 3370 2195 
Q 3706 1856 3706 1288 
Q 3706 609 3251 259 
Q 2797 -91 1919 -91 
Q 1588 -91 1214 -16 
Q 841 59 441 206 
L 441 856 
Q 825 641 1194 531 
Q 1563 422 1919 422 
Q 2459 422 2753 634 
Q 3047 847 3047 1241 
Q 3047 1584 2836 1778 
Q 2625 1972 2144 2069 
L 1759 2144 
Q 1053 2284 737 2584 
Q 422 2884 422 3419 
Q 422 4038 858 4394 
Q 1294 4750 2059 4750 
Q 2388 4750 2728 4690 
Q 3069 4631 3425 4513 
z
" transform="scale(0.015625)"/>
     </defs>
     <use xlink:href="#DejaVuSans-59"/>
     <use xlink:href="#DejaVuSans-6f" x="47.833984"/>
     <use xlink:href="#DejaVuSans-75" x="109.015625"/>
     <use xlink:href="#DejaVuSans-6e" x="172.394531"/>
     <use xlink:href="#DejaVuSans-67" x="235.773438"/>
     <use xlink:href="#DejaVuSans-20" x="299.25"/>
     <use xlink:href="#DejaVuSans-2b" x="331.037109"/>
     <use xlink:href="#DejaVuSans-20" x="414.826172"/>
     <use xlink:href="#DejaVuSans-4c" x="446.613281"/>
     <use xlink:href="#DejaVuSans-4d" x="502.326172"/>
     <use xlink:href="#DejaVuSans-4f" x="588.605469"/>
     <use xlink:href="#DejaVuSans-37" x="667.316406"/>
     <use xlink:href="#DejaVuSans-2d" x="730.939453"/>
     <use xlink:href="#DejaVuSans-41" x="764.773438"/>
     <use xlink:href="#DejaVuSans-53" x="833.181641"/>
     <use xlink:href="#DejaVuSans-31" x="896.658203"/>
    </g>
   </g>
  </g>
  <g id="axes_3">
   <g id="patch_52">
    <path d="M 64.941875 653.07625 
L 377.200801 653.07625 
L 377.200801 366.13625 
L 64.941875 366.13625 
z
" style="fill: #ffffff"/>
   </g>
   <g id="patch_53">
    <path d="M 79.135463 653.07625 
L 93.32905 653.07625 
L 93.32905 653.07625 
L 79.135463 653.07625 
z
" clip-path="url(#pc0264f8ffd)" style="fill: #98df8a"/>
   </g>
   <g id="patch_54">
    <path d="M 93.32905 653.07625 
L 107.522638 653.07625 
L 107.522638 653.07625 
L 93.32905 653.07625 
z
" clip-path="url(#pc0264f8ffd)" style="fill: #98df8a"/>
   </g>
   <g id="patch_55">
    <path d="M 107.522638 653.07625 
L 121.716225 653.07625 
L 121.716225 640.063098 
L 107.522638 640.063098 
z
" clip-path="url(#pc0264f8ffd)" style="fill: #98df8a"/>
   </g>
   <g id="patch_56">
    <path d="M 121.716225 653.07625 
L 135.909813 653.07625 
L 135.909813 633.556522 
L 121.716225 633.556522 
z
" clip-path="url(#pc0264f8ffd)" style="fill: #98df8a"/>
   </g>
   <g id="patch_57">
    <path d="M 135.909813 653.07625 
L 150.1034 653.07625 
L 150.1034 607.530218 
L 135.909813 607.530218 
z
" clip-path="url(#pc0264f8ffd)" style="fill: #98df8a"/>
   </g>
   <g id="patch_58">
    <path d="M 150.1034 653.07625 
L 164.296988 653.07625 
L 164.296988 535.957883 
L 150.1034 535.957883 
z
" clip-path="url(#pc0264f8ffd)" style="fill: #98df8a"/>
   </g>
   <g id="patch_59">
    <path d="M 164.296988 653.07625 
L 178.490575 653.07625 
L 178.490575 542.464459 
L 164.296988 542.464459 
z
" clip-path="url(#pc0264f8ffd)" style="fill: #98df8a"/>
   </g>
   <g id="patch_60">
    <path d="M 178.490575 653.07625 
L 192.684163 653.07625 
L 192.684163 548.971035 
L 178.490575 548.971035 
z
" clip-path="url(#pc0264f8ffd)" style="fill: #98df8a"/>
   </g>
   <g id="patch_61">
    <path d="M 192.684163 653.07625 
L 206.87775 653.07625 
L 206.87775 581.503914 
L 192.684163 581.503914 
z
" clip-path="url(#pc0264f8ffd)" style="fill: #98df8a"/>
   </g>
   <g id="patch_62">
    <path d="M 206.87775 653.07625 
L 221.071338 653.07625 
L 221.071338 568.490762 
L 206.87775 568.490762 
z
" clip-path="url(#pc0264f8ffd)" style="fill: #98df8a"/>
   </g>
   <g id="patch_63">
    <path d="M 221.071338 653.07625 
L 235.264925 653.07625 
L 235.264925 568.490762 
L 221.071338 568.490762 
z
" clip-path="url(#pc0264f8ffd)" style="fill: #98df8a"/>
   </g>
   <g id="patch_64">
    <path d="M 235.264925 653.07625 
L 249.458513 653.07625 
L 249.458513 627.049946 
L 235.264925 627.049946 
z
" clip-path="url(#pc0264f8ffd)" style="fill: #98df8a"/>
   </g>
   <g id="patch_65">
    <path d="M 249.458513 653.07625 
L 263.6521 653.07625 
L 263.6521 614.036794 
L 249.458513 614.036794 
z
" clip-path="url(#pc0264f8ffd)" style="fill: #98df8a"/>
   </g>
   <g id="patch_66">
    <path d="M 263.6521 653.07625 
L 277.845688 653.07625 
L 277.845688 633.556522 
L 263.6521 633.556522 
z
" clip-path="url(#pc0264f8ffd)" style="fill: #98df8a"/>
   </g>
   <g id="patch_67">
    <path d="M 277.845688 653.07625 
L 292.039275 653.07625 
L 292.039275 646.569674 
L 277.845688 646.569674 
z
" clip-path="url(#pc0264f8ffd)" style="fill: #98df8a"/>
   </g>
   <g id="patch_68">
    <path d="M 292.039275 653.07625 
L 306.232863 653.07625 
L 306.232863 646.569674 
L 292.039275 646.569674 
z
" clip-path="url(#pc0264f8ffd)" style="fill: #98df8a"/>
   </g>
   <g id="patch_69">
    <path d="M 306.232863 653.07625 
L 320.426451 653.07625 
L 320.426451 653.07625 
L 306.232863 653.07625 
z
" clip-path="url(#pc0264f8ffd)" style="fill: #98df8a"/>
   </g>
   <g id="patch_70">
    <path d="M 320.426451 653.07625 
L 334.620038 653.07625 
L 334.620038 653.07625 
L 320.426451 653.07625 
z
" clip-path="url(#pc0264f8ffd)" style="fill: #98df8a"/>
   </g>
   <g id="patch_71">
    <path d="M 334.620038 653.07625 
L 348.813626 653.07625 
L 348.813626 653.07625 
L 334.620038 653.07625 
z
" clip-path="url(#pc0264f8ffd)" style="fill: #98df8a"/>
   </g>
   <g id="patch_72">
    <path d="M 348.813626 653.07625 
L 363.007213 653.07625 
L 363.007213 653.07625 
L 348.813626 653.07625 
z
" clip-path="url(#pc0264f8ffd)" style="fill: #98df8a"/>
   </g>
   <g id="matplotlib.axis_5">
    <g id="xtick_11">
     <g id="line2d_25">
      <g>
       <use xlink:href="#m6a2ffde5ac" x="79.135463" y="653.07625" style="stroke: #000000; stroke-width: 0.8"/>
      </g>
     </g>
     <g id="text_9">
      <!-- 0 -->
      <g transform="translate(72.772963 675.273125)scale(0.2 -0.2)">
       <use xlink:href="#DejaVuSans-30"/>
      </g>
     </g>
    </g>
    <g id="xtick_12">
     <g id="line2d_26">
      <g>
       <use xlink:href="#m6a2ffde5ac" x="150.1034" y="653.07625" style="stroke: #000000; stroke-width: 0.8"/>
      </g>
     </g>
     <g id="text_10">
      <!-- 10 -->
      <g transform="translate(137.3784 675.273125)scale(0.2 -0.2)">
       <use xlink:href="#DejaVuSans-31"/>
       <use xlink:href="#DejaVuSans-30" x="63.623047"/>
      </g>
     </g>
    </g>
    <g id="xtick_13">
     <g id="line2d_27">
      <g>
       <use xlink:href="#m6a2ffde5ac" x="221.071338" y="653.07625" style="stroke: #000000; stroke-width: 0.8"/>
      </g>
     </g>
     <g id="text_11">
      <!-- 20 -->
      <g transform="translate(208.346338 675.273125)scale(0.2 -0.2)">
       <use xlink:href="#DejaVuSans-32"/>
       <use xlink:href="#DejaVuSans-30" x="63.623047"/>
      </g>
     </g>
    </g>
    <g id="xtick_14">
     <g id="line2d_28">
      <g>
       <use xlink:href="#m6a2ffde5ac" x="292.039275" y="653.07625" style="stroke: #000000; stroke-width: 0.8"/>
      </g>
     </g>
     <g id="text_12">
      <!-- 30 -->
      <g transform="translate(279.314275 675.273125)scale(0.2 -0.2)">
       <use xlink:href="#DejaVuSans-33"/>
       <use xlink:href="#DejaVuSans-30" x="63.623047"/>
      </g>
     </g>
    </g>
    <g id="xtick_15">
     <g id="line2d_29">
      <g>
       <use xlink:href="#m6a2ffde5ac" x="363.007213" y="653.07625" style="stroke: #000000; stroke-width: 0.8"/>
      </g>
     </g>
     <g id="text_13">
      <!-- 40 -->
      <g transform="translate(350.282213 675.273125)scale(0.2 -0.2)">
       <use xlink:href="#DejaVuSans-34"/>
       <use xlink:href="#DejaVuSans-30" x="63.623047"/>
      </g>
     </g>
    </g>
    <g id="text_14">
     <!-- # of puncta -->
     <g transform="translate(156.231494 700.149062)scale(0.22 -0.22)">
      <defs>
       <path id="DejaVuSans-70" d="M 1159 525 
L 1159 -1331 
L 581 -1331 
L 581 3500 
L 1159 3500 
L 1159 2969 
Q 1341 3281 1617 3432 
Q 1894 3584 2278 3584 
Q 2916 3584 3314 3078 
Q 3713 2572 3713 1747 
Q 3713 922 3314 415 
Q 2916 -91 2278 -91 
Q 1894 -91 1617 61 
Q 1341 213 1159 525 
z
M 3116 1747 
Q 3116 2381 2855 2742 
Q 2594 3103 2138 3103 
Q 1681 3103 1420 2742 
Q 1159 2381 1159 1747 
Q 1159 1113 1420 752 
Q 1681 391 2138 391 
Q 2594 391 2855 752 
Q 3116 1113 3116 1747 
z
" transform="scale(0.015625)"/>
       <path id="DejaVuSans-61" d="M 2194 1759 
Q 1497 1759 1228 1600 
Q 959 1441 959 1056 
Q 959 750 1161 570 
Q 1363 391 1709 391 
Q 2188 391 2477 730 
Q 2766 1069 2766 1631 
L 2766 1759 
L 2194 1759 
z
M 3341 1997 
L 3341 0 
L 2766 0 
L 2766 531 
Q 2569 213 2275 61 
Q 1981 -91 1556 -91 
Q 1019 -91 701 211 
Q 384 513 384 1019 
Q 384 1609 779 1909 
Q 1175 2209 1959 2209 
L 2766 2209 
L 2766 2266 
Q 2766 2663 2505 2880 
Q 2244 3097 1772 3097 
Q 1472 3097 1187 3025 
Q 903 2953 641 2809 
L 641 3341 
Q 956 3463 1253 3523 
Q 1550 3584 1831 3584 
Q 2591 3584 2966 3190 
Q 3341 2797 3341 1997 
z
" transform="scale(0.015625)"/>
      </defs>
      <use xlink:href="#DejaVuSans-23"/>
      <use xlink:href="#DejaVuSans-20" x="83.789062"/>
      <use xlink:href="#DejaVuSans-6f" x="115.576172"/>
      <use xlink:href="#DejaVuSans-66" x="176.757812"/>
      <use xlink:href="#DejaVuSans-20" x="211.962891"/>
      <use xlink:href="#DejaVuSans-70" x="243.75"/>
      <use xlink:href="#DejaVuSans-75" x="307.226562"/>
      <use xlink:href="#DejaVuSans-6e" x="370.605469"/>
      <use xlink:href="#DejaVuSans-63" x="433.984375"/>
      <use xlink:href="#DejaVuSans-74" x="488.964844"/>
      <use xlink:href="#DejaVuSans-61" x="528.173828"/>
     </g>
    </g>
   </g>
   <g id="matplotlib.axis_6">
    <g id="ytick_11">
     <g id="line2d_30">
      <g>
       <use xlink:href="#m3d272b0ef4" x="64.941875" y="653.07625" style="stroke: #000000; stroke-width: 0.8"/>
      </g>
     </g>
     <g id="text_15">
      <!-- 0 -->
      <g transform="translate(45.216875 660.674687)scale(0.2 -0.2)">
       <use xlink:href="#DejaVuSans-30"/>
      </g>
     </g>
    </g>
    <g id="ytick_12">
     <g id="line2d_31">
      <g>
       <use xlink:href="#m3d272b0ef4" x="64.941875" y="588.01049" style="stroke: #000000; stroke-width: 0.8"/>
      </g>
     </g>
     <g id="text_16">
      <!-- 10 -->
      <g transform="translate(32.491875 595.608928)scale(0.2 -0.2)">
       <use xlink:href="#DejaVuSans-31"/>
       <use xlink:href="#DejaVuSans-30" x="63.623047"/>
      </g>
     </g>
    </g>
    <g id="ytick_13">
     <g id="line2d_32">
      <g>
       <use xlink:href="#m3d272b0ef4" x="64.941875" y="522.944731" style="stroke: #000000; stroke-width: 0.8"/>
      </g>
     </g>
     <g id="text_17">
      <!-- 20 -->
      <g transform="translate(32.491875 530.543168)scale(0.2 -0.2)">
       <use xlink:href="#DejaVuSans-32"/>
       <use xlink:href="#DejaVuSans-30" x="63.623047"/>
      </g>
     </g>
    </g>
    <g id="ytick_14">
     <g id="line2d_33">
      <g>
       <use xlink:href="#m3d272b0ef4" x="64.941875" y="457.878971" style="stroke: #000000; stroke-width: 0.8"/>
      </g>
     </g>
     <g id="text_18">
      <!-- 30 -->
      <g transform="translate(32.491875 465.477409)scale(0.2 -0.2)">
       <use xlink:href="#DejaVuSans-33"/>
       <use xlink:href="#DejaVuSans-30" x="63.623047"/>
      </g>
     </g>
    </g>
    <g id="ytick_15">
     <g id="line2d_34">
      <g>
       <use xlink:href="#m3d272b0ef4" x="64.941875" y="392.813211" style="stroke: #000000; stroke-width: 0.8"/>
      </g>
     </g>
     <g id="text_19">
      <!-- 40 -->
      <g transform="translate(32.491875 400.411649)scale(0.2 -0.2)">
       <use xlink:href="#DejaVuSans-34"/>
       <use xlink:href="#DejaVuSans-30" x="63.623047"/>
      </g>
     </g>
    </g>
    <g id="text_20">
     <!-- # of cells -->
     <g transform="translate(23.916563 561.077656)rotate(-90)scale(0.22 -0.22)">
      <use xlink:href="#DejaVuSans-23"/>
      <use xlink:href="#DejaVuSans-20" x="83.789062"/>
      <use xlink:href="#DejaVuSans-6f" x="115.576172"/>
      <use xlink:href="#DejaVuSans-66" x="176.757812"/>
      <use xlink:href="#DejaVuSans-20" x="211.962891"/>
      <use xlink:href="#DejaVuSans-63" x="243.75"/>
      <use xlink:href="#DejaVuSans-65" x="298.730469"/>
      <use xlink:href="#DejaVuSans-6c" x="360.253906"/>
      <use xlink:href="#DejaVuSans-6c" x="388.037109"/>
      <use xlink:href="#DejaVuSans-73" x="415.820312"/>
     </g>
    </g>
   </g>
   <g id="line2d_35">
    <path d="M 150.1034 653.07625 
L 150.1034 366.13625 
" clip-path="url(#pc0264f8ffd)" style="fill: none; stroke-dasharray: 5.55,2.4; stroke-dashoffset: 0; stroke: #000000; stroke-width: 1.5"/>
   </g>
   <g id="line2d_36">
    <path d="M 221.071338 653.07625 
L 221.071338 366.13625 
" clip-path="url(#pc0264f8ffd)" style="fill: none; stroke-dasharray: 5.55,2.4; stroke-dashoffset: 0; stroke: #000000; stroke-width: 1.5"/>
   </g>
   <g id="patch_73">
    <path d="M 64.941875 653.07625 
L 64.941875 366.13625 
" style="fill: none; stroke: #000000; stroke-width: 0.8; stroke-linejoin: miter; stroke-linecap: square"/>
   </g>
   <g id="patch_74">
    <path d="M 377.200801 653.07625 
L 377.200801 366.13625 
" style="fill: none; stroke: #000000; stroke-width: 0.8; stroke-linejoin: miter; stroke-linecap: square"/>
   </g>
   <g id="patch_75">
    <path d="M 64.941875 653.07625 
L 377.200801 653.07625 
" style="fill: none; stroke: #000000; stroke-width: 0.8; stroke-linejoin: miter; stroke-linecap: square"/>
   </g>
   <g id="patch_76">
    <path d="M 64.941875 366.13625 
L 377.200801 366.13625 
" style="fill: none; stroke: #000000; stroke-width: 0.8; stroke-linejoin: miter; stroke-linecap: square"/>
   </g>
   <g id="text_21">
    <!-- Old + vector control -->
    <g transform="translate(99.522588 360.13625)scale(0.24 -0.24)">
     <defs>
      <path id="DejaVuSans-64" d="M 2906 2969 
L 2906 4863 
L 3481 4863 
L 3481 0 
L 2906 0 
L 2906 525 
Q 2725 213 2448 61 
Q 2172 -91 1784 -91 
Q 1150 -91 751 415 
Q 353 922 353 1747 
Q 353 2572 751 3078 
Q 1150 3584 1784 3584 
Q 2172 3584 2448 3432 
Q 2725 3281 2906 2969 
z
M 947 1747 
Q 947 1113 1208 752 
Q 1469 391 1925 391 
Q 2381 391 2643 752 
Q 2906 1113 2906 1747 
Q 2906 2381 2643 2742 
Q 2381 3103 1925 3103 
Q 1469 3103 1208 2742 
Q 947 2381 947 1747 
z
" transform="scale(0.015625)"/>
     </defs>
     <use xlink:href="#DejaVuSans-4f"/>
     <use xlink:href="#DejaVuSans-6c" x="78.710938"/>
     <use xlink:href="#DejaVuSans-64" x="106.494141"/>
     <use xlink:href="#DejaVuSans-20" x="169.970703"/>
     <use xlink:href="#DejaVuSans-2b" x="201.757812"/>
     <use xlink:href="#DejaVuSans-20" x="285.546875"/>
     <use xlink:href="#DejaVuSans-76" x="317.333984"/>
     <use xlink:href="#DejaVuSans-65" x="376.513672"/>
     <use xlink:href="#DejaVuSans-63" x="438.037109"/>
     <use xlink:href="#DejaVuSans-74" x="493.017578"/>
     <use xlink:href="#DejaVuSans-6f" x="532.226562"/>
     <use xlink:href="#DejaVuSans-72" x="593.408203"/>
     <use xlink:href="#DejaVuSans-20" x="634.521484"/>
     <use xlink:href="#DejaVuSans-63" x="666.308594"/>
     <use xlink:href="#DejaVuSans-6f" x="721.289062"/>
     <use xlink:href="#DejaVuSans-6e" x="782.470703"/>
     <use xlink:href="#DejaVuSans-74" x="845.849609"/>
     <use xlink:href="#DejaVuSans-72" x="885.058594"/>
     <use xlink:href="#DejaVuSans-6f" x="923.921875"/>
     <use xlink:href="#DejaVuSans-6c" x="985.103516"/>
    </g>
   </g>
  </g>
  <g id="axes_4">
   <g id="patch_77">
    <path d="M 392.661875 653.07625 
L 704.920801 653.07625 
L 704.920801 366.13625 
L 392.661875 366.13625 
z
" style="fill: #ffffff"/>
   </g>
   <g id="patch_78">
    <path d="M 406.855463 653.07625 
L 421.04905 653.07625 
L 421.04905 653.07625 
L 406.855463 653.07625 
z
" clip-path="url(#paeb4772d31)" style="fill: #98bf64"/>
   </g>
   <g id="patch_79">
    <path d="M 421.04905 653.07625 
L 435.242638 653.07625 
L 435.242638 607.530218 
L 421.04905 607.530218 
z
" clip-path="url(#paeb4772d31)" style="fill: #98bf64"/>
   </g>
   <g id="patch_80">
    <path d="M 435.242638 653.07625 
L 449.436225 653.07625 
L 449.436225 601.023642 
L 435.242638 601.023642 
z
" clip-path="url(#paeb4772d31)" style="fill: #98bf64"/>
   </g>
   <g id="patch_81">
    <path d="M 449.436225 653.07625 
L 463.629813 653.07625 
L 463.629813 509.931579 
L 449.436225 509.931579 
z
" clip-path="url(#paeb4772d31)" style="fill: #98bf64"/>
   </g>
   <g id="patch_82">
    <path d="M 463.629813 653.07625 
L 477.8234 653.07625 
L 477.8234 522.944731 
L 463.629813 522.944731 
z
" clip-path="url(#paeb4772d31)" style="fill: #98bf64"/>
   </g>
   <g id="patch_83">
    <path d="M 477.8234 653.07625 
L 492.016988 653.07625 
L 492.016988 561.984187 
L 477.8234 561.984187 
z
" clip-path="url(#paeb4772d31)" style="fill: #98bf64"/>
   </g>
   <g id="patch_84">
    <path d="M 492.016988 653.07625 
L 506.210575 653.07625 
L 506.210575 490.411851 
L 492.016988 490.411851 
z
" clip-path="url(#paeb4772d31)" style="fill: #98bf64"/>
   </g>
   <g id="patch_85">
    <path d="M 506.210575 653.07625 
L 520.404163 653.07625 
L 520.404163 535.957883 
L 506.210575 535.957883 
z
" clip-path="url(#paeb4772d31)" style="fill: #98bf64"/>
   </g>
   <g id="patch_86">
    <path d="M 520.404163 653.07625 
L 534.59775 653.07625 
L 534.59775 568.490762 
L 520.404163 568.490762 
z
" clip-path="url(#paeb4772d31)" style="fill: #98bf64"/>
   </g>
   <g id="patch_87">
    <path d="M 534.59775 653.07625 
L 548.791338 653.07625 
L 548.791338 561.984187 
L 534.59775 561.984187 
z
" clip-path="url(#paeb4772d31)" style="fill: #98bf64"/>
   </g>
   <g id="patch_88">
    <path d="M 548.791338 653.07625 
L 562.984925 653.07625 
L 562.984925 574.997338 
L 548.791338 574.997338 
z
" clip-path="url(#paeb4772d31)" style="fill: #98bf64"/>
   </g>
   <g id="patch_89">
    <path d="M 562.984925 653.07625 
L 577.178513 653.07625 
L 577.178513 620.54337 
L 562.984925 620.54337 
z
" clip-path="url(#paeb4772d31)" style="fill: #98bf64"/>
   </g>
   <g id="patch_90">
    <path d="M 577.178513 653.07625 
L 591.3721 653.07625 
L 591.3721 653.07625 
L 577.178513 653.07625 
z
" clip-path="url(#paeb4772d31)" style="fill: #98bf64"/>
   </g>
   <g id="patch_91">
    <path d="M 591.3721 653.07625 
L 605.565688 653.07625 
L 605.565688 640.063098 
L 591.3721 640.063098 
z
" clip-path="url(#paeb4772d31)" style="fill: #98bf64"/>
   </g>
   <g id="patch_92">
    <path d="M 605.565688 653.07625 
L 619.759275 653.07625 
L 619.759275 646.569674 
L 605.565688 646.569674 
z
" clip-path="url(#paeb4772d31)" style="fill: #98bf64"/>
   </g>
   <g id="patch_93">
    <path d="M 619.759275 653.07625 
L 633.952863 653.07625 
L 633.952863 653.07625 
L 619.759275 653.07625 
z
" clip-path="url(#paeb4772d31)" style="fill: #98bf64"/>
   </g>
   <g id="patch_94">
    <path d="M 633.952863 653.07625 
L 648.146451 653.07625 
L 648.146451 653.07625 
L 633.952863 653.07625 
z
" clip-path="url(#paeb4772d31)" style="fill: #98bf64"/>
   </g>
   <g id="patch_95">
    <path d="M 648.146451 653.07625 
L 662.340038 653.07625 
L 662.340038 653.07625 
L 648.146451 653.07625 
z
" clip-path="url(#paeb4772d31)" style="fill: #98bf64"/>
   </g>
   <g id="patch_96">
    <path d="M 662.340038 653.07625 
L 676.533626 653.07625 
L 676.533626 653.07625 
L 662.340038 653.07625 
z
" clip-path="url(#paeb4772d31)" style="fill: #98bf64"/>
   </g>
   <g id="patch_97">
    <path d="M 676.533626 653.07625 
L 690.727213 653.07625 
L 690.727213 653.07625 
L 676.533626 653.07625 
z
" clip-path="url(#paeb4772d31)" style="fill: #98bf64"/>
   </g>
   <g id="matplotlib.axis_7">
    <g id="xtick_16">
     <g id="line2d_37">
      <g>
       <use xlink:href="#m6a2ffde5ac" x="406.855463" y="653.07625" style="stroke: #000000; stroke-width: 0.8"/>
      </g>
     </g>
     <g id="text_22">
      <!-- 0 -->
      <g transform="translate(400.492963 675.273125)scale(0.2 -0.2)">
       <use xlink:href="#DejaVuSans-30"/>
      </g>
     </g>
    </g>
    <g id="xtick_17">
     <g id="line2d_38">
      <g>
       <use xlink:href="#m6a2ffde5ac" x="477.8234" y="653.07625" style="stroke: #000000; stroke-width: 0.8"/>
      </g>
     </g>
     <g id="text_23">
      <!-- 10 -->
      <g transform="translate(465.0984 675.273125)scale(0.2 -0.2)">
       <use xlink:href="#DejaVuSans-31"/>
       <use xlink:href="#DejaVuSans-30" x="63.623047"/>
      </g>
     </g>
    </g>
    <g id="xtick_18">
     <g id="line2d_39">
      <g>
       <use xlink:href="#m6a2ffde5ac" x="548.791338" y="653.07625" style="stroke: #000000; stroke-width: 0.8"/>
      </g>
     </g>
     <g id="text_24">
      <!-- 20 -->
      <g transform="translate(536.066338 675.273125)scale(0.2 -0.2)">
       <use xlink:href="#DejaVuSans-32"/>
       <use xlink:href="#DejaVuSans-30" x="63.623047"/>
      </g>
     </g>
    </g>
    <g id="xtick_19">
     <g id="line2d_40">
      <g>
       <use xlink:href="#m6a2ffde5ac" x="619.759275" y="653.07625" style="stroke: #000000; stroke-width: 0.8"/>
      </g>
     </g>
     <g id="text_25">
      <!-- 30 -->
      <g transform="translate(607.034275 675.273125)scale(0.2 -0.2)">
       <use xlink:href="#DejaVuSans-33"/>
       <use xlink:href="#DejaVuSans-30" x="63.623047"/>
      </g>
     </g>
    </g>
    <g id="xtick_20">
     <g id="line2d_41">
      <g>
       <use xlink:href="#m6a2ffde5ac" x="690.727213" y="653.07625" style="stroke: #000000; stroke-width: 0.8"/>
      </g>
     </g>
     <g id="text_26">
      <!-- 40 -->
      <g transform="translate(678.002213 675.273125)scale(0.2 -0.2)">
       <use xlink:href="#DejaVuSans-34"/>
       <use xlink:href="#DejaVuSans-30" x="63.623047"/>
      </g>
     </g>
    </g>
    <g id="text_27">
     <!-- # of puncta -->
     <g transform="translate(483.951494 700.149062)scale(0.22 -0.22)">
      <use xlink:href="#DejaVuSans-23"/>
      <use xlink:href="#DejaVuSans-20" x="83.789062"/>
      <use xlink:href="#DejaVuSans-6f" x="115.576172"/>
      <use xlink:href="#DejaVuSans-66" x="176.757812"/>
      <use xlink:href="#DejaVuSans-20" x="211.962891"/>
      <use xlink:href="#DejaVuSans-70" x="243.75"/>
      <use xlink:href="#DejaVuSans-75" x="307.226562"/>
      <use xlink:href="#DejaVuSans-6e" x="370.605469"/>
      <use xlink:href="#DejaVuSans-63" x="433.984375"/>
      <use xlink:href="#DejaVuSans-74" x="488.964844"/>
      <use xlink:href="#DejaVuSans-61" x="528.173828"/>
     </g>
    </g>
   </g>
   <g id="matplotlib.axis_8">
    <g id="ytick_16">
     <g id="line2d_42">
      <g>
       <use xlink:href="#m3d272b0ef4" x="392.661875" y="653.07625" style="stroke: #000000; stroke-width: 0.8"/>
      </g>
     </g>
    </g>
    <g id="ytick_17">
     <g id="line2d_43">
      <g>
       <use xlink:href="#m3d272b0ef4" x="392.661875" y="588.01049" style="stroke: #000000; stroke-width: 0.8"/>
      </g>
     </g>
    </g>
    <g id="ytick_18">
     <g id="line2d_44">
      <g>
       <use xlink:href="#m3d272b0ef4" x="392.661875" y="522.944731" style="stroke: #000000; stroke-width: 0.8"/>
      </g>
     </g>
    </g>
    <g id="ytick_19">
     <g id="line2d_45">
      <g>
       <use xlink:href="#m3d272b0ef4" x="392.661875" y="457.878971" style="stroke: #000000; stroke-width: 0.8"/>
      </g>
     </g>
    </g>
    <g id="ytick_20">
     <g id="line2d_46">
      <g>
       <use xlink:href="#m3d272b0ef4" x="392.661875" y="392.813211" style="stroke: #000000; stroke-width: 0.8"/>
      </g>
     </g>
    </g>
   </g>
   <g id="line2d_47">
    <path d="M 477.8234 653.07625 
L 477.8234 366.13625 
" clip-path="url(#paeb4772d31)" style="fill: none; stroke-dasharray: 5.55,2.4; stroke-dashoffset: 0; stroke: #000000; stroke-width: 1.5"/>
   </g>
   <g id="line2d_48">
    <path d="M 548.791338 653.07625 
L 548.791338 366.13625 
" clip-path="url(#paeb4772d31)" style="fill: none; stroke-dasharray: 5.55,2.4; stroke-dashoffset: 0; stroke: #000000; stroke-width: 1.5"/>
   </g>
   <g id="patch_98">
    <path d="M 392.661875 653.07625 
L 392.661875 366.13625 
" style="fill: none; stroke: #000000; stroke-width: 0.8; stroke-linejoin: miter; stroke-linecap: square"/>
   </g>
   <g id="patch_99">
    <path d="M 704.920801 653.07625 
L 704.920801 366.13625 
" style="fill: none; stroke: #000000; stroke-width: 0.8; stroke-linejoin: miter; stroke-linecap: square"/>
   </g>
   <g id="patch_100">
    <path d="M 392.661875 653.07625 
L 704.920801 653.07625 
" style="fill: none; stroke: #000000; stroke-width: 0.8; stroke-linejoin: miter; stroke-linecap: square"/>
   </g>
   <g id="patch_101">
    <path d="M 392.661875 366.13625 
L 704.920801 366.13625 
" style="fill: none; stroke: #000000; stroke-width: 0.8; stroke-linejoin: miter; stroke-linecap: square"/>
   </g>
   <g id="text_28">
    <!-- Old + SNHG18 -->
    <g transform="translate(460.521963 360.13625)scale(0.24 -0.24)">
     <defs>
      <path id="DejaVuSans-4e" d="M 628 4666 
L 1478 4666 
L 3547 763 
L 3547 4666 
L 4159 4666 
L 4159 0 
L 3309 0 
L 1241 3903 
L 1241 0 
L 628 0 
L 628 4666 
z
" transform="scale(0.015625)"/>
      <path id="DejaVuSans-48" d="M 628 4666 
L 1259 4666 
L 1259 2753 
L 3553 2753 
L 3553 4666 
L 4184 4666 
L 4184 0 
L 3553 0 
L 3553 2222 
L 1259 2222 
L 1259 0 
L 628 0 
L 628 4666 
z
" transform="scale(0.015625)"/>
      <path id="DejaVuSans-47" d="M 3809 666 
L 3809 1919 
L 2778 1919 
L 2778 2438 
L 4434 2438 
L 4434 434 
Q 4069 175 3628 42 
Q 3188 -91 2688 -91 
Q 1594 -91 976 548 
Q 359 1188 359 2328 
Q 359 3472 976 4111 
Q 1594 4750 2688 4750 
Q 3144 4750 3555 4637 
Q 3966 4525 4313 4306 
L 4313 3634 
Q 3963 3931 3569 4081 
Q 3175 4231 2741 4231 
Q 1884 4231 1454 3753 
Q 1025 3275 1025 2328 
Q 1025 1384 1454 906 
Q 1884 428 2741 428 
Q 3075 428 3337 486 
Q 3600 544 3809 666 
z
" transform="scale(0.015625)"/>
      <path id="DejaVuSans-38" d="M 2034 2216 
Q 1584 2216 1326 1975 
Q 1069 1734 1069 1313 
Q 1069 891 1326 650 
Q 1584 409 2034 409 
Q 2484 409 2743 651 
Q 3003 894 3003 1313 
Q 3003 1734 2745 1975 
Q 2488 2216 2034 2216 
z
M 1403 2484 
Q 997 2584 770 2862 
Q 544 3141 544 3541 
Q 544 4100 942 4425 
Q 1341 4750 2034 4750 
Q 2731 4750 3128 4425 
Q 3525 4100 3525 3541 
Q 3525 3141 3298 2862 
Q 3072 2584 2669 2484 
Q 3125 2378 3379 2068 
Q 3634 1759 3634 1313 
Q 3634 634 3220 271 
Q 2806 -91 2034 -91 
Q 1263 -91 848 271 
Q 434 634 434 1313 
Q 434 1759 690 2068 
Q 947 2378 1403 2484 
z
M 1172 3481 
Q 1172 3119 1398 2916 
Q 1625 2713 2034 2713 
Q 2441 2713 2670 2916 
Q 2900 3119 2900 3481 
Q 2900 3844 2670 4047 
Q 2441 4250 2034 4250 
Q 1625 4250 1398 4047 
Q 1172 3844 1172 3481 
z
" transform="scale(0.015625)"/>
     </defs>
     <use xlink:href="#DejaVuSans-4f"/>
     <use xlink:href="#DejaVuSans-6c" x="78.710938"/>
     <use xlink:href="#DejaVuSans-64" x="106.494141"/>
     <use xlink:href="#DejaVuSans-20" x="169.970703"/>
     <use xlink:href="#DejaVuSans-2b" x="201.757812"/>
     <use xlink:href="#DejaVuSans-20" x="285.546875"/>
     <use xlink:href="#DejaVuSans-53" x="317.333984"/>
     <use xlink:href="#DejaVuSans-4e" x="380.810547"/>
     <use xlink:href="#DejaVuSans-48" x="455.615234"/>
     <use xlink:href="#DejaVuSans-47" x="530.810547"/>
     <use xlink:href="#DejaVuSans-31" x="608.300781"/>
     <use xlink:href="#DejaVuSans-38" x="671.923828"/>
    </g>
   </g>
  </g>
 </g>
 <defs>
  <clipPath id="pfc9966dd7a">
   <rect x="64.941875" y="31.43625" width="312.258926" height="286.94"/>
  </clipPath>
  <clipPath id="p88632c032c">
   <rect x="392.661875" y="31.43625" width="312.258926" height="286.94"/>
  </clipPath>
  <clipPath id="pc0264f8ffd">
   <rect x="64.941875" y="366.13625" width="312.258926" height="286.94"/>
  </clipPath>
  <clipPath id="paeb4772d31">
   <rect x="392.661875" y="366.13625" width="312.258926" height="286.94"/>
  </clipPath>
 </defs>
</svg>
