<?xml version="1.0" encoding="utf-8" standalone="no"?>
<!DOCTYPE svg PUBLIC "-//W3C//DTD SVG 1.1//EN"
  "http://www.w3.org/Graphics/SVG/1.1/DTD/svg11.dtd">
<svg xmlns:xlink="http://www.w3.org/1999/xlink" width="565.720287pt" height="495.757773pt" viewBox="0 0 565.720287 495.757773" xmlns="http://www.w3.org/2000/svg" version="1.1">
 <metadata>
  <rdf:RDF xmlns:dc="http://purl.org/dc/elements/1.1/" xmlns:cc="http://creativecommons.org/ns#" xmlns:rdf="http://www.w3.org/1999/02/22-rdf-syntax-ns#">
   <cc:Work>
    <dc:type rdf:resource="http://purl.org/dc/dcmitype/StillImage"/>
    <dc:date>2026-05-05T14:06:39.114002</dc:date>
    <dc:format>image/svg+xml</dc:format>
    <dc:creator>
     <cc:Agent>
      <dc:title>Matplotlib v3.5.2, https://matplotlib.org/</dc:title>
     </cc:Agent>
    </dc:creator>
   </cc:Work>
  </rdf:RDF>
 </metadata>
 <defs>
  <style type="text/css">*{stroke-linejoin: round; stroke-linecap: butt}</style>
 </defs>
 <g id="figure_1">
  <g id="patch_1">
   <path d="M 0 495.757773 
L 565.720287 495.757773 
L 565.720287 0 
L 0 0 
z
" style="fill: #ffffff"/>
  </g>
  <g id="axes_1">
   <g id="patch_2">
    <path d="M 81.221688 376.773619 
L 556.109354 376.773619 
L 556.109354 7.2 
L 81.221688 7.2 
z
" style="fill: #ffffff"/>
   </g>
   <g id="PolyCollection_1">
    <defs>
     <path id="m8ac91dc2c8" d="M 138.868789 -135.782954 
L 128.419915 -135.782954 
L 127.734884 -138.392229 
L 127.015198 -141.001503 
L 126.264299 -143.610778 
L 125.484873 -146.220052 
L 124.678576 -148.829327 
L 123.845929 -151.438601 
L 122.986395 -154.047876 
L 122.098674 -156.65715 
L 121.181187 -159.266425 
L 120.232699 -161.875699 
L 119.253 -164.484974 
L 118.24355 -167.094248 
L 117.20798 -169.703523 
L 116.152358 -172.312797 
L 115.085155 -174.922072 
L 114.016895 -177.531346 
L 112.959508 -180.140621 
L 111.925461 -182.749895 
L 110.926781 -185.35917 
L 109.97411 -187.968444 
L 109.075914 -190.577718 
L 108.237978 -193.186993 
L 107.463263 -195.796267 
L 106.752135 -198.405542 
L 106.102951 -201.014816 
L 105.512902 -203.624091 
L 104.978982 -206.233365 
L 104.498929 -208.84264 
L 104.07199 -211.451914 
L 103.699376 -214.061189 
L 103.384332 -216.670463 
L 103.131797 -219.279738 
L 102.947699 -221.889012 
L 102.837979 -224.498287 
L 102.807491 -227.107561 
L 102.858943 -229.716836 
L 102.99204 -232.32611 
L 103.202954 -234.935385 
L 103.484225 -237.544659 
L 103.825107 -240.153934 
L 104.212346 -242.763208 
L 104.631275 -245.372483 
L 105.067132 -247.981757 
L 105.506421 -250.591032 
L 105.938176 -253.200306 
L 106.354991 -255.809581 
L 106.753701 -258.418855 
L 107.135665 -261.02813 
L 107.506611 -263.637404 
L 107.876088 -266.246679 
L 108.256574 -268.855953 
L 108.662324 -271.465228 
L 109.108077 -274.074502 
L 109.607733 -276.683777 
L 110.173101 -279.293051 
L 110.812837 -281.902326 
L 111.531652 -284.5116 
L 112.329844 -287.120875 
L 113.203193 -289.730149 
L 114.143222 -292.339423 
L 115.137787 -294.948698 
L 116.171936 -297.557972 
L 117.228952 -300.167247 
L 118.291483 -302.776521 
L 119.342649 -305.385796 
L 120.367034 -307.99507 
L 121.351474 -310.604345 
L 122.2856 -313.213619 
L 123.162101 -315.822894 
L 123.976727 -318.432168 
L 124.72805 -321.041443 
L 125.417058 -323.650717 
L 126.046629 -326.259992 
L 126.620969 -328.869266 
L 127.145059 -331.478541 
L 127.624169 -334.087815 
L 128.063462 -336.69709 
L 128.467706 -339.306364 
L 128.84109 -341.915639 
L 129.187129 -344.524913 
L 129.508655 -347.134188 
L 129.807852 -349.743462 
L 130.086338 -352.352737 
L 130.345259 -354.962011 
L 130.585408 -357.571286 
L 130.80734 -360.18056 
L 131.011491 -362.789835 
L 131.198292 -365.399109 
L 131.368275 -368.008384 
L 131.522165 -370.617658 
L 131.660951 -373.226933 
L 131.785923 -375.836207 
L 131.89868 -378.445482 
L 132.001089 -381.054756 
L 132.095218 -383.664031 
L 132.183223 -386.273305 
L 132.267218 -388.88258 
L 132.349135 -391.491854 
L 132.430592 -394.101128 
L 134.858112 -394.101128 
L 134.858112 -394.101128 
L 134.939569 -391.491854 
L 135.021486 -388.88258 
L 135.105481 -386.273305 
L 135.193486 -383.664031 
L 135.287615 -381.054756 
L 135.390024 -378.445482 
L 135.502781 -375.836207 
L 135.627753 -373.226933 
L 135.766539 -370.617658 
L 135.920429 -368.008384 
L 136.090412 -365.399109 
L 136.277213 -362.789835 
L 136.481364 -360.18056 
L 136.703296 -357.571286 
L 136.943445 -354.962011 
L 137.202367 -352.352737 
L 137.480852 -349.743462 
L 137.780049 -347.134188 
L 138.101575 -344.524913 
L 138.447614 -341.915639 
L 138.820998 -339.306364 
L 139.225242 -336.69709 
L 139.664535 -334.087815 
L 140.143645 -331.478541 
L 140.667735 -328.869266 
L 141.242075 -326.259992 
L 141.871646 -323.650717 
L 142.560654 -321.041443 
L 143.311977 -318.432168 
L 144.126603 -315.822894 
L 145.003104 -313.213619 
L 145.93723 -310.604345 
L 146.92167 -307.99507 
L 147.946055 -305.385796 
L 148.997221 -302.776521 
L 150.059752 -300.167247 
L 151.116768 -297.557972 
L 152.150917 -294.948698 
L 153.145482 -292.339423 
L 154.085511 -289.730149 
L 154.95886 -287.120875 
L 155.757052 -284.5116 
L 156.475867 -281.902326 
L 157.115603 -279.293051 
L 157.680971 -276.683777 
L 158.180627 -274.074502 
L 158.62638 -271.465228 
L 159.03213 -268.855953 
L 159.412616 -266.246679 
L 159.782093 -263.637404 
L 160.153039 -261.02813 
L 160.535003 -258.418855 
L 160.933713 -255.809581 
L 161.350528 -253.200306 
L 161.782284 -250.591032 
L 162.221572 -247.981757 
L 162.657429 -245.372483 
L 163.076358 -242.763208 
L 163.463597 -240.153934 
L 163.804479 -237.544659 
L 164.08575 -234.935385 
L 164.296664 -232.32611 
L 164.429761 -229.716836 
L 164.481213 -227.107561 
L 164.450725 -224.498287 
L 164.341005 -221.889012 
L 164.156907 -219.279738 
L 163.904372 -216.670463 
L 163.589328 -214.061189 
L 163.216714 -211.451914 
L 162.789775 -208.84264 
L 162.309722 -206.233365 
L 161.775802 -203.624091 
L 161.185753 -201.014816 
L 160.536569 -198.405542 
L 159.825441 -195.796267 
L 159.050726 -193.186993 
L 158.212791 -190.577718 
L 157.314594 -187.968444 
L 156.361923 -185.35917 
L 155.363243 -182.749895 
L 154.329196 -180.140621 
L 153.271809 -177.531346 
L 152.203549 -174.922072 
L 151.136346 -172.312797 
L 150.080724 -169.703523 
L 149.045154 -167.094248 
L 148.035704 -164.484974 
L 147.056005 -161.875699 
L 146.107517 -159.266425 
L 145.19003 -156.65715 
L 144.302309 -154.047876 
L 143.442775 -151.438601 
L 142.610128 -148.829327 
L 141.803831 -146.220052 
L 141.024405 -143.610778 
L 140.273506 -141.001503 
L 139.55382 -138.392229 
L 138.868789 -135.782954 
z
" style="stroke: #000000; stroke-opacity: 0.8"/>
    </defs>
    <g clip-path="url(#pf89ee02be1)">
     <use xlink:href="#m8ac91dc2c8" x="0" y="495.757773" style="fill: #ff9896; fill-opacity: 0.8; stroke: #000000; stroke-opacity: 0.8"/>
    </g>
   </g>
   <g id="PolyCollection_2">
    <defs>
     <path id="m55e93f469a" d="M 273.593178 -160.921921 
L 240.390418 -160.921921 
L 239.263008 -163.773144 
L 238.140471 -166.624367 
L 237.031128 -169.475589 
L 235.943221 -172.326812 
L 234.884771 -175.178035 
L 233.863431 -178.029257 
L 232.886367 -180.88048 
L 231.960143 -183.731703 
L 231.090634 -186.582926 
L 230.282957 -189.434148 
L 229.541426 -192.285371 
L 228.869531 -195.136594 
L 228.269941 -197.987816 
L 227.744521 -200.839039 
L 227.294377 -203.690262 
L 226.919903 -206.541485 
L 226.620847 -209.392707 
L 226.396379 -212.24393 
L 226.245158 -215.095153 
L 226.165399 -217.946375 
L 226.154936 -220.797598 
L 226.211269 -223.648821 
L 226.331608 -226.500044 
L 226.512898 -229.351266 
L 226.751842 -232.202489 
L 227.04491 -235.053712 
L 227.388336 -237.904934 
L 227.778118 -240.756157 
L 228.210019 -243.60738 
L 228.679563 -246.458603 
L 229.182047 -249.309825 
L 229.712561 -252.161048 
L 230.266019 -255.012271 
L 230.837212 -257.863493 
L 231.420872 -260.714716 
L 232.011754 -263.565939 
L 232.604733 -266.417162 
L 233.194914 -269.268384 
L 233.777741 -272.119607 
L 234.349119 -274.97083 
L 234.905522 -277.822053 
L 235.444097 -280.673275 
L 235.962751 -283.524498 
L 236.46021 -286.375721 
L 236.936066 -289.226943 
L 237.390777 -292.078166 
L 237.825651 -294.929389 
L 238.242783 -297.780612 
L 238.644976 -300.631834 
L 239.035622 -303.483057 
L 239.418565 -306.33428 
L 239.797944 -309.185502 
L 240.178025 -312.036725 
L 240.563027 -314.887948 
L 240.956955 -317.739171 
L 241.363436 -320.590393 
L 241.785576 -323.441616 
L 242.22584 -326.292839 
L 242.685957 -329.144061 
L 243.166854 -331.995284 
L 243.668623 -334.846507 
L 244.19052 -337.69773 
L 244.730989 -340.548952 
L 245.287725 -343.400175 
L 245.857746 -346.251398 
L 246.437501 -349.10262 
L 247.022978 -351.953843 
L 247.609832 -354.805066 
L 248.193512 -357.656289 
L 248.76939 -360.507511 
L 249.332888 -363.358734 
L 249.87959 -366.209957 
L 250.405353 -369.061179 
L 250.906392 -371.912402 
L 251.379366 -374.763625 
L 251.821435 -377.614848 
L 252.230307 -380.46607 
L 252.604275 -383.317293 
L 252.942227 -386.168516 
L 253.243656 -389.019738 
L 253.508646 -391.870961 
L 253.737854 -394.722184 
L 253.93248 -397.573407 
L 254.094222 -400.424629 
L 254.225229 -403.275852 
L 254.328046 -406.127075 
L 254.40555 -408.978297 
L 254.46088 -411.82952 
L 254.497368 -414.680743 
L 254.518463 -417.531966 
L 254.527657 -420.383188 
L 254.528403 -423.234411 
L 254.524052 -426.085634 
L 254.517775 -428.936856 
L 254.512501 -431.788079 
L 254.510865 -434.639302 
L 254.515156 -437.490525 
L 254.52728 -440.341747 
L 254.548738 -443.19297 
L 259.434858 -443.19297 
L 259.434858 -443.19297 
L 259.456316 -440.341747 
L 259.46844 -437.490525 
L 259.47273 -434.639302 
L 259.471095 -431.788079 
L 259.465821 -428.936856 
L 259.459544 -426.085634 
L 259.455193 -423.234411 
L 259.455939 -420.383188 
L 259.465132 -417.531966 
L 259.486228 -414.680743 
L 259.522716 -411.82952 
L 259.578046 -408.978297 
L 259.65555 -406.127075 
L 259.758367 -403.275852 
L 259.889374 -400.424629 
L 260.051116 -397.573407 
L 260.245741 -394.722184 
L 260.47495 -391.870961 
L 260.73994 -389.019738 
L 261.041369 -386.168516 
L 261.379321 -383.317293 
L 261.753289 -380.46607 
L 262.162161 -377.614848 
L 262.60423 -374.763625 
L 263.077204 -371.912402 
L 263.578243 -369.061179 
L 264.104006 -366.209957 
L 264.650708 -363.358734 
L 265.214206 -360.507511 
L 265.790084 -357.656289 
L 266.373764 -354.805066 
L 266.960617 -351.953843 
L 267.546095 -349.10262 
L 268.12585 -346.251398 
L 268.695871 -343.400175 
L 269.252607 -340.548952 
L 269.793076 -337.69773 
L 270.314972 -334.846507 
L 270.816742 -331.995284 
L 271.297639 -329.144061 
L 271.757756 -326.292839 
L 272.19802 -323.441616 
L 272.62016 -320.590393 
L 273.026641 -317.739171 
L 273.420569 -314.887948 
L 273.805571 -312.036725 
L 274.185652 -309.185502 
L 274.565031 -306.33428 
L 274.947974 -303.483057 
L 275.33862 -300.631834 
L 275.740813 -297.780612 
L 276.157945 -294.929389 
L 276.592818 -292.078166 
L 277.04753 -289.226943 
L 277.523386 -286.375721 
L 278.020845 -283.524498 
L 278.539498 -280.673275 
L 279.078074 -277.822053 
L 279.634477 -274.97083 
L 280.205855 -272.119607 
L 280.788682 -269.268384 
L 281.378863 -266.417162 
L 281.971842 -263.565939 
L 282.562724 -260.714716 
L 283.146384 -257.863493 
L 283.717577 -255.012271 
L 284.271035 -252.161048 
L 284.801549 -249.309825 
L 285.304033 -246.458603 
L 285.773577 -243.60738 
L 286.205478 -240.756157 
L 286.59526 -237.904934 
L 286.938686 -235.053712 
L 287.231753 -232.202489 
L 287.470698 -229.351266 
L 287.651988 -226.500044 
L 287.772326 -223.648821 
L 287.828659 -220.797598 
L 287.818196 -217.946375 
L 287.738438 -215.095153 
L 287.587217 -212.24393 
L 287.362749 -209.392707 
L 287.063693 -206.541485 
L 286.689219 -203.690262 
L 286.239075 -200.839039 
L 285.713655 -197.987816 
L 285.114065 -195.136594 
L 284.44217 -192.285371 
L 283.700639 -189.434148 
L 282.892962 -186.582926 
L 282.023453 -183.731703 
L 281.097229 -180.88048 
L 280.120165 -178.029257 
L 279.098825 -175.178035 
L 278.040375 -172.326812 
L 276.952468 -169.475589 
L 275.843125 -166.624367 
L 274.720588 -163.773144 
L 273.593178 -160.921921 
z
" style="stroke: #000000; stroke-opacity: 0.8"/>
    </defs>
    <g clip-path="url(#pf89ee02be1)">
     <use xlink:href="#m55e93f469a" x="0" y="495.757773" style="fill: #e377c2; fill-opacity: 0.8; stroke: #000000; stroke-opacity: 0.8"/>
    </g>
   </g>
   <g id="PolyCollection_3">
    <defs>
     <path id="m16b3999a93" d="M 385.38136 -146.97621 
L 375.297127 -146.97621 
L 374.239155 -150.009062 
L 373.046175 -153.041915 
L 371.721838 -156.074767 
L 370.276452 -159.107619 
L 368.727673 -162.140472 
L 367.10046 -165.173324 
L 365.42618 -168.206176 
L 363.740832 -171.239028 
L 362.082552 -174.271881 
L 360.488605 -177.304733 
L 358.992223 -180.337585 
L 357.619634 -183.370437 
L 356.387706 -186.40329 
L 355.302567 -189.436142 
L 354.359516 -192.468994 
L 353.544413 -195.501846 
L 352.836508 -198.534699 
L 352.212437 -201.567551 
L 351.65085 -204.600403 
L 351.136901 -207.633255 
L 350.665767 -210.666108 
L 350.244444 -213.69896 
L 349.891338 -216.731812 
L 349.633563 -219.764665 
L 349.502382 -222.797517 
L 349.527593 -225.830369 
L 349.731982 -228.863221 
L 350.126974 -231.896074 
L 350.710373 -234.928926 
L 351.466684 -237.961778 
L 352.369921 -240.99463 
L 353.388305 -244.027483 
L 354.489833 -247.060335 
L 355.647531 -250.093187 
L 356.843302 -253.126039 
L 358.069582 -256.158892 
L 359.328533 -259.191744 
L 360.629016 -262.224596 
L 361.982081 -265.257449 
L 363.395988 -268.290301 
L 364.871865 -271.323153 
L 366.400906 -274.356005 
L 367.963635 -277.388858 
L 369.531318 -280.42171 
L 371.06912 -283.454562 
L 372.540288 -286.487414 
L 373.910519 -289.520267 
L 375.15171 -292.553119 
L 376.244526 -295.585971 
L 377.17951 -298.618823 
L 377.956803 -301.651676 
L 378.584739 -304.684528 
L 379.077739 -307.71738 
L 379.453959 -310.750233 
L 379.733058 -313.783085 
L 379.93436 -316.815937 
L 380.075529 -319.848789 
L 380.171791 -322.881642 
L 380.235615 -325.914494 
L 380.276759 -328.947346 
L 380.302547 -331.980198 
L 380.318257 -335.013051 
L 380.327561 -338.045903 
L 380.332915 -341.078755 
L 380.335908 -344.111607 
L 380.337534 -347.14446 
L 380.338391 -350.177312 
L 380.338831 -353.210164 
L 380.339049 -356.243016 
L 380.339153 -359.275869 
L 380.3392 -362.308721 
L 380.339217 -365.341573 
L 380.339214 -368.374426 
L 380.33919 -371.407278 
L 380.339134 -374.44013 
L 380.339015 -377.472982 
L 380.338782 -380.505835 
L 380.338338 -383.538687 
L 380.33752 -386.571539 
L 380.336066 -389.604391 
L 380.333567 -392.637244 
L 380.329416 -395.670096 
L 380.322754 -398.702948 
L 380.312431 -401.7358 
L 380.29699 -404.768653 
L 380.274715 -407.801505 
L 380.243739 -410.834357 
L 380.202258 -413.86721 
L 380.148828 -416.900062 
L 380.082731 -419.932914 
L 380.004361 -422.965766 
L 379.915547 -425.998619 
L 379.819732 -429.031471 
L 379.721918 -432.064323 
L 379.628338 -435.097175 
L 379.545852 -438.130028 
L 379.481136 -441.16288 
L 379.439799 -444.195732 
L 379.425582 -447.228584 
L 381.252906 -447.228584 
L 381.252906 -447.228584 
L 381.238689 -444.195732 
L 381.197352 -441.16288 
L 381.132636 -438.130028 
L 381.05015 -435.097175 
L 380.95657 -432.064323 
L 380.858756 -429.031471 
L 380.762941 -425.998619 
L 380.674127 -422.965766 
L 380.595756 -419.932914 
L 380.52966 -416.900062 
L 380.47623 -413.86721 
L 380.434749 -410.834357 
L 380.403773 -407.801505 
L 380.381497 -404.768653 
L 380.366057 -401.7358 
L 380.355734 -398.702948 
L 380.349072 -395.670096 
L 380.34492 -392.637244 
L 380.342421 -389.604391 
L 380.340968 -386.571539 
L 380.34015 -383.538687 
L 380.339706 -380.505835 
L 380.339472 -377.472982 
L 380.339354 -374.44013 
L 380.339297 -371.407278 
L 380.339274 -368.374426 
L 380.339271 -365.341573 
L 380.339288 -362.308721 
L 380.339335 -359.275869 
L 380.339439 -356.243016 
L 380.339657 -353.210164 
L 380.340096 -350.177312 
L 380.340954 -347.14446 
L 380.34258 -344.111607 
L 380.345573 -341.078755 
L 380.350927 -338.045903 
L 380.36023 -335.013051 
L 380.375941 -331.980198 
L 380.401728 -328.947346 
L 380.442873 -325.914494 
L 380.506697 -322.881642 
L 380.602958 -319.848789 
L 380.744128 -316.815937 
L 380.945429 -313.783085 
L 381.224529 -310.750233 
L 381.600749 -307.71738 
L 382.093749 -304.684528 
L 382.721685 -301.651676 
L 383.498978 -298.618823 
L 384.433962 -295.585971 
L 385.526777 -292.553119 
L 386.767969 -289.520267 
L 388.1382 -286.487414 
L 389.609367 -283.454562 
L 391.147169 -280.42171 
L 392.714853 -277.388858 
L 394.277582 -274.356005 
L 395.806623 -271.323153 
L 397.2825 -268.290301 
L 398.696407 -265.257449 
L 400.049472 -262.224596 
L 401.349955 -259.191744 
L 402.608906 -256.158892 
L 403.835186 -253.126039 
L 405.030957 -250.093187 
L 406.188655 -247.060335 
L 407.290183 -244.027483 
L 408.308567 -240.99463 
L 409.211804 -237.961778 
L 409.968115 -234.928926 
L 410.551514 -231.896074 
L 410.946506 -228.863221 
L 411.150895 -225.830369 
L 411.176105 -222.797517 
L 411.044924 -219.764665 
L 410.78715 -216.731812 
L 410.434044 -213.69896 
L 410.012721 -210.666108 
L 409.541586 -207.633255 
L 409.027637 -204.600403 
L 408.466051 -201.567551 
L 407.84198 -198.534699 
L 407.134074 -195.501846 
L 406.318971 -192.468994 
L 405.375921 -189.436142 
L 404.290782 -186.40329 
L 403.058854 -183.370437 
L 401.686265 -180.337585 
L 400.189883 -177.304733 
L 398.595936 -174.271881 
L 396.937656 -171.239028 
L 395.252308 -168.206176 
L 393.578027 -165.173324 
L 391.950815 -162.140472 
L 390.402035 -159.107619 
L 388.95665 -156.074767 
L 387.632313 -153.041915 
L 386.439333 -150.009062 
L 385.38136 -146.97621 
z
" style="stroke: #000000; stroke-opacity: 0.8"/>
    </defs>
    <g clip-path="url(#pf89ee02be1)">
     <use xlink:href="#m16b3999a93" x="0" y="495.757773" style="fill: #98df8a; fill-opacity: 0.8; stroke: #000000; stroke-opacity: 0.8"/>
    </g>
   </g>
   <g id="PolyCollection_4">
    <defs>
     <path id="md1df0d1c1c" d="M 511.946736 -137.378592 
L 495.426644 -137.378592 
L 494.26541 -139.761109 
L 493.06321 -142.143625 
L 491.841001 -144.526142 
L 490.621114 -146.908659 
L 489.425847 -149.291175 
L 488.275928 -151.673692 
L 487.188969 -154.056209 
L 486.178099 -156.438725 
L 485.250892 -158.821242 
L 484.408747 -161.203758 
L 483.646815 -163.586275 
L 482.95449 -165.968792 
L 482.316477 -168.351308 
L 481.714333 -170.733825 
L 481.128351 -173.116342 
L 480.539612 -175.498858 
L 479.932002 -177.881375 
L 479.293995 -180.263892 
L 478.620025 -182.646408 
L 477.911313 -185.028925 
L 477.176067 -187.411442 
L 476.429051 -189.793958 
L 475.690562 -192.176475 
L 474.984945 -194.558992 
L 474.338776 -196.941508 
L 473.77891 -199.324025 
L 473.330582 -201.706542 
L 473.01571 -204.089058 
L 472.851555 -206.471575 
L 472.849828 -208.854092 
L 473.016267 -211.236608 
L 473.350687 -213.619125 
L 473.84744 -216.001641 
L 474.49619 -218.384158 
L 475.282894 -220.766675 
L 476.190873 -223.149191 
L 477.201866 -225.531708 
L 478.29698 -227.914225 
L 479.457477 -230.296741 
L 480.665366 -232.679258 
L 481.903799 -235.061775 
L 483.157283 -237.444291 
L 484.411752 -239.826808 
L 485.654535 -242.209325 
L 486.874262 -244.591841 
L 488.06076 -246.974358 
L 489.204952 -249.356875 
L 490.298799 -251.739391 
L 491.335285 -254.121908 
L 492.308449 -256.504425 
L 493.21346 -258.886941 
L 494.046715 -261.269458 
L 494.805946 -263.651975 
L 495.490321 -266.034491 
L 496.100503 -268.417008 
L 496.638675 -270.799525 
L 497.108486 -273.182041 
L 497.514941 -275.564558 
L 497.864212 -277.947074 
L 498.163388 -280.329591 
L 498.420174 -282.712108 
L 498.642558 -285.094624 
L 498.838465 -287.477141 
L 499.015436 -289.859658 
L 499.180339 -292.242174 
L 499.339134 -294.624691 
L 499.496722 -297.007208 
L 499.656852 -299.389724 
L 499.82212 -301.772241 
L 499.994023 -304.154758 
L 500.173061 -306.537274 
L 500.358877 -308.919791 
L 500.55041 -311.302308 
L 500.746041 -313.684824 
L 500.943725 -316.067341 
L 501.141108 -318.449858 
L 501.335606 -320.832374 
L 501.524483 -323.214891 
L 501.704906 -325.597408 
L 501.87401 -327.979924 
L 502.028966 -330.362441 
L 502.167075 -332.744958 
L 502.28589 -335.127474 
L 502.383345 -337.509991 
L 502.457922 -339.892507 
L 502.5088 -342.275024 
L 502.536004 -344.657541 
L 502.540514 -347.040057 
L 502.524328 -349.422574 
L 502.490457 -351.805091 
L 502.442834 -354.187607 
L 502.386158 -356.570124 
L 502.325651 -358.952641 
L 502.266758 -361.335157 
L 502.214819 -363.717674 
L 502.174716 -366.100191 
L 502.150561 -368.482707 
L 502.14543 -370.865224 
L 502.161172 -373.247741 
L 505.212207 -373.247741 
L 505.212207 -373.247741 
L 505.22795 -370.865224 
L 505.222818 -368.482707 
L 505.198664 -366.100191 
L 505.158561 -363.717674 
L 505.106621 -361.335157 
L 505.047729 -358.952641 
L 504.987222 -356.570124 
L 504.930546 -354.187607 
L 504.882923 -351.805091 
L 504.849051 -349.422574 
L 504.832866 -347.040057 
L 504.837376 -344.657541 
L 504.864579 -342.275024 
L 504.915457 -339.892507 
L 504.990034 -337.509991 
L 505.08749 -335.127474 
L 505.206304 -332.744958 
L 505.344414 -330.362441 
L 505.499369 -327.979924 
L 505.668473 -325.597408 
L 505.848897 -323.214891 
L 506.037774 -320.832374 
L 506.232272 -318.449858 
L 506.429654 -316.067341 
L 506.627339 -313.684824 
L 506.822969 -311.302308 
L 507.014502 -308.919791 
L 507.200319 -306.537274 
L 507.379356 -304.154758 
L 507.551259 -301.772241 
L 507.716528 -299.389724 
L 507.876658 -297.007208 
L 508.034245 -294.624691 
L 508.193041 -292.242174 
L 508.357943 -289.859658 
L 508.534915 -287.477141 
L 508.730822 -285.094624 
L 508.953205 -282.712108 
L 509.209991 -280.329591 
L 509.509167 -277.947074 
L 509.858438 -275.564558 
L 510.264893 -273.182041 
L 510.734704 -270.799525 
L 511.272876 -268.417008 
L 511.883059 -266.034491 
L 512.567433 -263.651975 
L 513.326665 -261.269458 
L 514.159919 -258.886941 
L 515.06493 -256.504425 
L 516.038095 -254.121908 
L 517.07458 -251.739391 
L 518.168427 -249.356875 
L 519.312619 -246.974358 
L 520.499117 -244.591841 
L 521.718845 -242.209325 
L 522.961627 -239.826808 
L 524.216097 -237.444291 
L 525.469581 -235.061775 
L 526.708013 -232.679258 
L 527.915903 -230.296741 
L 529.076399 -227.914225 
L 530.171513 -225.531708 
L 531.182506 -223.149191 
L 532.090485 -220.766675 
L 532.87719 -218.384158 
L 533.52594 -216.001641 
L 534.022693 -213.619125 
L 534.357113 -211.236608 
L 534.523551 -208.854092 
L 534.521824 -206.471575 
L 534.35767 -204.089058 
L 534.042797 -201.706542 
L 533.594469 -199.324025 
L 533.034604 -196.941508 
L 532.388434 -194.558992 
L 531.682817 -192.176475 
L 530.944329 -189.793958 
L 530.197312 -187.411442 
L 529.462066 -185.028925 
L 528.753354 -182.646408 
L 528.079385 -180.263892 
L 527.441378 -177.881375 
L 526.833768 -175.498858 
L 526.245029 -173.116342 
L 525.659047 -170.733825 
L 525.056903 -168.351308 
L 524.41889 -165.968792 
L 523.726565 -163.586275 
L 522.964632 -161.203758 
L 522.122488 -158.821242 
L 521.19528 -156.438725 
L 520.18441 -154.056209 
L 519.097452 -151.673692 
L 517.947532 -149.291175 
L 516.752266 -146.908659 
L 515.532379 -144.526142 
L 514.310169 -142.143625 
L 513.10797 -139.761109 
L 511.946736 -137.378592 
z
" style="stroke: #000000; stroke-opacity: 0.8"/>
    </defs>
    <g clip-path="url(#pf89ee02be1)">
     <use xlink:href="#md1df0d1c1c" x="0" y="495.757773" style="fill: #98bf64; fill-opacity: 0.8; stroke: #000000; stroke-opacity: 0.8"/>
    </g>
   </g>
   <g id="matplotlib.axis_1">
    <g id="xtick_1">
     <g id="line2d_1">
      <defs>
       <path id="mcec9effdf7" d="M 0 0 
L 0 3.5 
" style="stroke: #000000; stroke-width: 0.8"/>
      </defs>
      <g>
       <use xlink:href="#mcec9effdf7" x="133.644352" y="376.773619" style="stroke: #000000; stroke-width: 0.8"/>
      </g>
     </g>
     <g id="text_1">
      <!-- Young + vector control -->
      <g transform="translate(56.719863 485.676073)rotate(-30)scale(0.16 -0.16)">
       <defs>
        <path id="DejaVuSans-59" d="M -13 4666 
L 666 4666 
L 1959 2747 
L 3244 4666 
L 3922 4666 
L 2272 2222 
L 2272 0 
L 1638 0 
L 1638 2222 
L -13 4666 
z
" transform="scale(0.015625)"/>
        <path id="DejaVuSans-6f" d="M 1959 3097 
Q 1497 3097 1228 2736 
Q 959 2375 959 1747 
Q 959 1119 1226 758 
Q 1494 397 1959 397 
Q 2419 397 2687 759 
Q 2956 1122 2956 1747 
Q 2956 2369 2687 2733 
Q 2419 3097 1959 3097 
z
M 1959 3584 
Q 2709 3584 3137 3096 
Q 3566 2609 3566 1747 
Q 3566 888 3137 398 
Q 2709 -91 1959 -91 
Q 1206 -91 779 398 
Q 353 888 353 1747 
Q 353 2609 779 3096 
Q 1206 3584 1959 3584 
z
" transform="scale(0.015625)"/>
        <path id="DejaVuSans-75" d="M 544 1381 
L 544 3500 
L 1119 3500 
L 1119 1403 
Q 1119 906 1312 657 
Q 1506 409 1894 409 
Q 2359 409 2629 706 
Q 2900 1003 2900 1516 
L 2900 3500 
L 3475 3500 
L 3475 0 
L 2900 0 
L 2900 538 
Q 2691 219 2414 64 
Q 2138 -91 1772 -91 
Q 1169 -91 856 284 
Q 544 659 544 1381 
z
M 1991 3584 
L 1991 3584 
z
" transform="scale(0.015625)"/>
        <path id="DejaVuSans-6e" d="M 3513 2113 
L 3513 0 
L 2938 0 
L 2938 2094 
Q 2938 2591 2744 2837 
Q 2550 3084 2163 3084 
Q 1697 3084 1428 2787 
Q 1159 2491 1159 1978 
L 1159 0 
L 581 0 
L 581 3500 
L 1159 3500 
L 1159 2956 
Q 1366 3272 1645 3428 
Q 1925 3584 2291 3584 
Q 2894 3584 3203 3211 
Q 3513 2838 3513 2113 
z
" transform="scale(0.015625)"/>
        <path id="DejaVuSans-67" d="M 2906 1791 
Q 2906 2416 2648 2759 
Q 2391 3103 1925 3103 
Q 1463 3103 1205 2759 
Q 947 2416 947 1791 
Q 947 1169 1205 825 
Q 1463 481 1925 481 
Q 2391 481 2648 825 
Q 2906 1169 2906 1791 
z
M 3481 434 
Q 3481 -459 3084 -895 
Q 2688 -1331 1869 -1331 
Q 1566 -1331 1297 -1286 
Q 1028 -1241 775 -1147 
L 775 -588 
Q 1028 -725 1275 -790 
Q 1522 -856 1778 -856 
Q 2344 -856 2625 -561 
Q 2906 -266 2906 331 
L 2906 616 
Q 2728 306 2450 153 
Q 2172 0 1784 0 
Q 1141 0 747 490 
Q 353 981 353 1791 
Q 353 2603 747 3093 
Q 1141 3584 1784 3584 
Q 2172 3584 2450 3431 
Q 2728 3278 2906 2969 
L 2906 3500 
L 3481 3500 
L 3481 434 
z
" transform="scale(0.015625)"/>
        <path id="DejaVuSans-20" transform="scale(0.015625)"/>
        <path id="DejaVuSans-2b" d="M 2944 4013 
L 2944 2272 
L 4684 2272 
L 4684 1741 
L 2944 1741 
L 2944 0 
L 2419 0 
L 2419 1741 
L 678 1741 
L 678 2272 
L 2419 2272 
L 2419 4013 
L 2944 4013 
z
" transform="scale(0.015625)"/>
        <path id="DejaVuSans-76" d="M 191 3500 
L 800 3500 
L 1894 563 
L 2988 3500 
L 3597 3500 
L 2284 0 
L 1503 0 
L 191 3500 
z
" transform="scale(0.015625)"/>
        <path id="DejaVuSans-65" d="M 3597 1894 
L 3597 1613 
L 953 1613 
Q 991 1019 1311 708 
Q 1631 397 2203 397 
Q 2534 397 2845 478 
Q 3156 559 3463 722 
L 3463 178 
Q 3153 47 2828 -22 
Q 2503 -91 2169 -91 
Q 1331 -91 842 396 
Q 353 884 353 1716 
Q 353 2575 817 3079 
Q 1281 3584 2069 3584 
Q 2775 3584 3186 3129 
Q 3597 2675 3597 1894 
z
M 3022 2063 
Q 3016 2534 2758 2815 
Q 2500 3097 2075 3097 
Q 1594 3097 1305 2825 
Q 1016 2553 972 2059 
L 3022 2063 
z
" transform="scale(0.015625)"/>
        <path id="DejaVuSans-63" d="M 3122 3366 
L 3122 2828 
Q 2878 2963 2633 3030 
Q 2388 3097 2138 3097 
Q 1578 3097 1268 2742 
Q 959 2388 959 1747 
Q 959 1106 1268 751 
Q 1578 397 2138 397 
Q 2388 397 2633 464 
Q 2878 531 3122 666 
L 3122 134 
Q 2881 22 2623 -34 
Q 2366 -91 2075 -91 
Q 1284 -91 818 406 
Q 353 903 353 1747 
Q 353 2603 823 3093 
Q 1294 3584 2113 3584 
Q 2378 3584 2631 3529 
Q 2884 3475 3122 3366 
z
" transform="scale(0.015625)"/>
        <path id="DejaVuSans-74" d="M 1172 4494 
L 1172 3500 
L 2356 3500 
L 2356 3053 
L 1172 3053 
L 1172 1153 
Q 1172 725 1289 603 
Q 1406 481 1766 481 
L 2356 481 
L 2356 0 
L 1766 0 
Q 1100 0 847 248 
Q 594 497 594 1153 
L 594 3053 
L 172 3053 
L 172 3500 
L 594 3500 
L 594 4494 
L 1172 4494 
z
" transform="scale(0.015625)"/>
        <path id="DejaVuSans-72" d="M 2631 2963 
Q 2534 3019 2420 3045 
Q 2306 3072 2169 3072 
Q 1681 3072 1420 2755 
Q 1159 2438 1159 1844 
L 1159 0 
L 581 0 
L 581 3500 
L 1159 3500 
L 1159 2956 
Q 1341 3275 1631 3429 
Q 1922 3584 2338 3584 
Q 2397 3584 2469 3576 
Q 2541 3569 2628 3553 
L 2631 2963 
z
" transform="scale(0.015625)"/>
        <path id="DejaVuSans-6c" d="M 603 4863 
L 1178 4863 
L 1178 0 
L 603 0 
L 603 4863 
z
" transform="scale(0.015625)"/>
       </defs>
       <use xlink:href="#DejaVuSans-59"/>
       <use xlink:href="#DejaVuSans-6f" x="47.833984"/>
       <use xlink:href="#DejaVuSans-75" x="109.015625"/>
       <use xlink:href="#DejaVuSans-6e" x="172.394531"/>
       <use xlink:href="#DejaVuSans-67" x="235.773438"/>
       <use xlink:href="#DejaVuSans-20" x="299.25"/>
       <use xlink:href="#DejaVuSans-2b" x="331.037109"/>
       <use xlink:href="#DejaVuSans-20" x="414.826172"/>
       <use xlink:href="#DejaVuSans-76" x="446.613281"/>
       <use xlink:href="#DejaVuSans-65" x="505.792969"/>
       <use xlink:href="#DejaVuSans-63" x="567.316406"/>
       <use xlink:href="#DejaVuSans-74" x="622.296875"/>
       <use xlink:href="#DejaVuSans-6f" x="661.505859"/>
       <use xlink:href="#DejaVuSans-72" x="722.6875"/>
       <use xlink:href="#DejaVuSans-20" x="763.800781"/>
       <use xlink:href="#DejaVuSans-63" x="795.587891"/>
       <use xlink:href="#DejaVuSans-6f" x="850.568359"/>
       <use xlink:href="#DejaVuSans-6e" x="911.75"/>
       <use xlink:href="#DejaVuSans-74" x="975.128906"/>
       <use xlink:href="#DejaVuSans-72" x="1014.337891"/>
       <use xlink:href="#DejaVuSans-6f" x="1053.201172"/>
       <use xlink:href="#DejaVuSans-6c" x="1114.382812"/>
      </g>
     </g>
    </g>
    <g id="xtick_2">
     <g id="line2d_2">
      <g>
       <use xlink:href="#mcec9effdf7" x="256.991798" y="376.773619" style="stroke: #000000; stroke-width: 0.8"/>
      </g>
     </g>
     <g id="text_2">
      <!-- Young + LMO7-AS1 -->
      <g transform="translate(192.667979 471.126073)rotate(-30)scale(0.16 -0.16)">
       <defs>
        <path id="DejaVuSans-4c" d="M 628 4666 
L 1259 4666 
L 1259 531 
L 3531 531 
L 3531 0 
L 628 0 
L 628 4666 
z
" transform="scale(0.015625)"/>
        <path id="DejaVuSans-4d" d="M 628 4666 
L 1569 4666 
L 2759 1491 
L 3956 4666 
L 4897 4666 
L 4897 0 
L 4281 0 
L 4281 4097 
L 3078 897 
L 2444 897 
L 1241 4097 
L 1241 0 
L 628 0 
L 628 4666 
z
" transform="scale(0.015625)"/>
        <path id="DejaVuSans-4f" d="M 2522 4238 
Q 1834 4238 1429 3725 
Q 1025 3213 1025 2328 
Q 1025 1447 1429 934 
Q 1834 422 2522 422 
Q 3209 422 3611 934 
Q 4013 1447 4013 2328 
Q 4013 3213 3611 3725 
Q 3209 4238 2522 4238 
z
M 2522 4750 
Q 3503 4750 4090 4092 
Q 4678 3434 4678 2328 
Q 4678 1225 4090 567 
Q 3503 -91 2522 -91 
Q 1538 -91 948 565 
Q 359 1222 359 2328 
Q 359 3434 948 4092 
Q 1538 4750 2522 4750 
z
" transform="scale(0.015625)"/>
        <path id="DejaVuSans-37" d="M 525 4666 
L 3525 4666 
L 3525 4397 
L 1831 0 
L 1172 0 
L 2766 4134 
L 525 4134 
L 525 4666 
z
" transform="scale(0.015625)"/>
        <path id="DejaVuSans-2d" d="M 313 2009 
L 1997 2009 
L 1997 1497 
L 313 1497 
L 313 2009 
z
" transform="scale(0.015625)"/>
        <path id="DejaVuSans-41" d="M 2188 4044 
L 1331 1722 
L 3047 1722 
L 2188 4044 
z
M 1831 4666 
L 2547 4666 
L 4325 0 
L 3669 0 
L 3244 1197 
L 1141 1197 
L 716 0 
L 50 0 
L 1831 4666 
z
" transform="scale(0.015625)"/>
        <path id="DejaVuSans-53" d="M 3425 4513 
L 3425 3897 
Q 3066 4069 2747 4153 
Q 2428 4238 2131 4238 
Q 1616 4238 1336 4038 
Q 1056 3838 1056 3469 
Q 1056 3159 1242 3001 
Q 1428 2844 1947 2747 
L 2328 2669 
Q 3034 2534 3370 2195 
Q 3706 1856 3706 1288 
Q 3706 609 3251 259 
Q 2797 -91 1919 -91 
Q 1588 -91 1214 -16 
Q 841 59 441 206 
L 441 856 
Q 825 641 1194 531 
Q 1563 422 1919 422 
Q 2459 422 2753 634 
Q 3047 847 3047 1241 
Q 3047 1584 2836 1778 
Q 2625 1972 2144 2069 
L 1759 2144 
Q 1053 2284 737 2584 
Q 422 2884 422 3419 
Q 422 4038 858 4394 
Q 1294 4750 2059 4750 
Q 2388 4750 2728 4690 
Q 3069 4631 3425 4513 
z
" transform="scale(0.015625)"/>
        <path id="DejaVuSans-31" d="M 794 531 
L 1825 531 
L 1825 4091 
L 703 3866 
L 703 4441 
L 1819 4666 
L 2450 4666 
L 2450 531 
L 3481 531 
L 3481 0 
L 794 0 
L 794 531 
z
" transform="scale(0.015625)"/>
       </defs>
       <use xlink:href="#DejaVuSans-59"/>
       <use xlink:href="#DejaVuSans-6f" x="47.833984"/>
       <use xlink:href="#DejaVuSans-75" x="109.015625"/>
       <use xlink:href="#DejaVuSans-6e" x="172.394531"/>
       <use xlink:href="#DejaVuSans-67" x="235.773438"/>
       <use xlink:href="#DejaVuSans-20" x="299.25"/>
       <use xlink:href="#DejaVuSans-2b" x="331.037109"/>
       <use xlink:href="#DejaVuSans-20" x="414.826172"/>
       <use xlink:href="#DejaVuSans-4c" x="446.613281"/>
       <use xlink:href="#DejaVuSans-4d" x="502.326172"/>
       <use xlink:href="#DejaVuSans-4f" x="588.605469"/>
       <use xlink:href="#DejaVuSans-37" x="667.316406"/>
       <use xlink:href="#DejaVuSans-2d" x="730.939453"/>
       <use xlink:href="#DejaVuSans-41" x="764.773438"/>
       <use xlink:href="#DejaVuSans-53" x="833.181641"/>
       <use xlink:href="#DejaVuSans-31" x="896.658203"/>
      </g>
     </g>
    </g>
    <g id="xtick_3">
     <g id="line2d_3">
      <g>
       <use xlink:href="#mcec9effdf7" x="380.339244" y="376.773619" style="stroke: #000000; stroke-width: 0.8"/>
      </g>
     </g>
     <g id="text_3">
      <!-- Old + vector control -->
      <g transform="translate(312.37054 475.334823)rotate(-30)scale(0.16 -0.16)">
       <defs>
        <path id="DejaVuSans-64" d="M 2906 2969 
L 2906 4863 
L 3481 4863 
L 3481 0 
L 2906 0 
L 2906 525 
Q 2725 213 2448 61 
Q 2172 -91 1784 -91 
Q 1150 -91 751 415 
Q 353 922 353 1747 
Q 353 2572 751 3078 
Q 1150 3584 1784 3584 
Q 2172 3584 2448 3432 
Q 2725 3281 2906 2969 
z
M 947 1747 
Q 947 1113 1208 752 
Q 1469 391 1925 391 
Q 2381 391 2643 752 
Q 2906 1113 2906 1747 
Q 2906 2381 2643 2742 
Q 2381 3103 1925 3103 
Q 1469 3103 1208 2742 
Q 947 2381 947 1747 
z
" transform="scale(0.015625)"/>
       </defs>
       <use xlink:href="#DejaVuSans-4f"/>
       <use xlink:href="#DejaVuSans-6c" x="78.710938"/>
       <use xlink:href="#DejaVuSans-64" x="106.494141"/>
       <use xlink:href="#DejaVuSans-20" x="169.970703"/>
       <use xlink:href="#DejaVuSans-2b" x="201.757812"/>
       <use xlink:href="#DejaVuSans-20" x="285.546875"/>
       <use xlink:href="#DejaVuSans-76" x="317.333984"/>
       <use xlink:href="#DejaVuSans-65" x="376.513672"/>
       <use xlink:href="#DejaVuSans-63" x="438.037109"/>
       <use xlink:href="#DejaVuSans-74" x="493.017578"/>
       <use xlink:href="#DejaVuSans-6f" x="532.226562"/>
       <use xlink:href="#DejaVuSans-72" x="593.408203"/>
       <use xlink:href="#DejaVuSans-20" x="634.521484"/>
       <use xlink:href="#DejaVuSans-63" x="666.308594"/>
       <use xlink:href="#DejaVuSans-6f" x="721.289062"/>
       <use xlink:href="#DejaVuSans-6e" x="782.470703"/>
       <use xlink:href="#DejaVuSans-74" x="845.849609"/>
       <use xlink:href="#DejaVuSans-72" x="885.058594"/>
       <use xlink:href="#DejaVuSans-6f" x="923.921875"/>
       <use xlink:href="#DejaVuSans-6c" x="985.103516"/>
      </g>
     </g>
    </g>
    <g id="xtick_4">
     <g id="line2d_4">
      <g>
       <use xlink:href="#mcec9effdf7" x="503.68669" y="376.773619" style="stroke: #000000; stroke-width: 0.8"/>
      </g>
     </g>
     <g id="text_4">
      <!-- Old + SNHG18 -->
      <g transform="translate(454.931842 453.148573)rotate(-30)scale(0.16 -0.16)">
       <defs>
        <path id="DejaVuSans-4e" d="M 628 4666 
L 1478 4666 
L 3547 763 
L 3547 4666 
L 4159 4666 
L 4159 0 
L 3309 0 
L 1241 3903 
L 1241 0 
L 628 0 
L 628 4666 
z
" transform="scale(0.015625)"/>
        <path id="DejaVuSans-48" d="M 628 4666 
L 1259 4666 
L 1259 2753 
L 3553 2753 
L 3553 4666 
L 4184 4666 
L 4184 0 
L 3553 0 
L 3553 2222 
L 1259 2222 
L 1259 0 
L 628 0 
L 628 4666 
z
" transform="scale(0.015625)"/>
        <path id="DejaVuSans-47" d="M 3809 666 
L 3809 1919 
L 2778 1919 
L 2778 2438 
L 4434 2438 
L 4434 434 
Q 4069 175 3628 42 
Q 3188 -91 2688 -91 
Q 1594 -91 976 548 
Q 359 1188 359 2328 
Q 359 3472 976 4111 
Q 1594 4750 2688 4750 
Q 3144 4750 3555 4637 
Q 3966 4525 4313 4306 
L 4313 3634 
Q 3963 3931 3569 4081 
Q 3175 4231 2741 4231 
Q 1884 4231 1454 3753 
Q 1025 3275 1025 2328 
Q 1025 1384 1454 906 
Q 1884 428 2741 428 
Q 3075 428 3337 486 
Q 3600 544 3809 666 
z
" transform="scale(0.015625)"/>
        <path id="DejaVuSans-38" d="M 2034 2216 
Q 1584 2216 1326 1975 
Q 1069 1734 1069 1313 
Q 1069 891 1326 650 
Q 1584 409 2034 409 
Q 2484 409 2743 651 
Q 3003 894 3003 1313 
Q 3003 1734 2745 1975 
Q 2488 2216 2034 2216 
z
M 1403 2484 
Q 997 2584 770 2862 
Q 544 3141 544 3541 
Q 544 4100 942 4425 
Q 1341 4750 2034 4750 
Q 2731 4750 3128 4425 
Q 3525 4100 3525 3541 
Q 3525 3141 3298 2862 
Q 3072 2584 2669 2484 
Q 3125 2378 3379 2068 
Q 3634 1759 3634 1313 
Q 3634 634 3220 271 
Q 2806 -91 2034 -91 
Q 1263 -91 848 271 
Q 434 634 434 1313 
Q 434 1759 690 2068 
Q 947 2378 1403 2484 
z
M 1172 3481 
Q 1172 3119 1398 2916 
Q 1625 2713 2034 2713 
Q 2441 2713 2670 2916 
Q 2900 3119 2900 3481 
Q 2900 3844 2670 4047 
Q 2441 4250 2034 4250 
Q 1625 4250 1398 4047 
Q 1172 3844 1172 3481 
z
" transform="scale(0.015625)"/>
       </defs>
       <use xlink:href="#DejaVuSans-4f"/>
       <use xlink:href="#DejaVuSans-6c" x="78.710938"/>
       <use xlink:href="#DejaVuSans-64" x="106.494141"/>
       <use xlink:href="#DejaVuSans-20" x="169.970703"/>
       <use xlink:href="#DejaVuSans-2b" x="201.757812"/>
       <use xlink:href="#DejaVuSans-20" x="285.546875"/>
       <use xlink:href="#DejaVuSans-53" x="317.333984"/>
       <use xlink:href="#DejaVuSans-4e" x="380.810547"/>
       <use xlink:href="#DejaVuSans-48" x="455.615234"/>
       <use xlink:href="#DejaVuSans-47" x="530.810547"/>
       <use xlink:href="#DejaVuSans-31" x="608.300781"/>
       <use xlink:href="#DejaVuSans-38" x="671.923828"/>
      </g>
     </g>
    </g>
   </g>
   <g id="matplotlib.axis_2">
    <g id="ytick_1">
     <g id="line2d_5">
      <defs>
       <path id="m8664700757" d="M 0 0 
L -3.5 0 
" style="stroke: #000000; stroke-width: 0.8"/>
      </defs>
      <g>
       <use xlink:href="#m8664700757" x="81.221688" y="334.348144" style="stroke: #000000; stroke-width: 0.8"/>
      </g>
     </g>
     <g id="text_5">
      <!-- 2.0 -->
      <g transform="translate(48.776688 340.426894)scale(0.16 -0.16)">
       <defs>
        <path id="DejaVuSans-32" d="M 1228 531 
L 3431 531 
L 3431 0 
L 469 0 
L 469 531 
Q 828 903 1448 1529 
Q 2069 2156 2228 2338 
Q 2531 2678 2651 2914 
Q 2772 3150 2772 3378 
Q 2772 3750 2511 3984 
Q 2250 4219 1831 4219 
Q 1534 4219 1204 4116 
Q 875 4013 500 3803 
L 500 4441 
Q 881 4594 1212 4672 
Q 1544 4750 1819 4750 
Q 2544 4750 2975 4387 
Q 3406 4025 3406 3419 
Q 3406 3131 3298 2873 
Q 3191 2616 2906 2266 
Q 2828 2175 2409 1742 
Q 1991 1309 1228 531 
z
" transform="scale(0.015625)"/>
        <path id="DejaVuSans-2e" d="M 684 794 
L 1344 794 
L 1344 0 
L 684 0 
L 684 794 
z
" transform="scale(0.015625)"/>
        <path id="DejaVuSans-30" d="M 2034 4250 
Q 1547 4250 1301 3770 
Q 1056 3291 1056 2328 
Q 1056 1369 1301 889 
Q 1547 409 2034 409 
Q 2525 409 2770 889 
Q 3016 1369 3016 2328 
Q 3016 3291 2770 3770 
Q 2525 4250 2034 4250 
z
M 2034 4750 
Q 2819 4750 3233 4129 
Q 3647 3509 3647 2328 
Q 3647 1150 3233 529 
Q 2819 -91 2034 -91 
Q 1250 -91 836 529 
Q 422 1150 422 2328 
Q 422 3509 836 4129 
Q 1250 4750 2034 4750 
z
" transform="scale(0.015625)"/>
       </defs>
       <use xlink:href="#DejaVuSans-32"/>
       <use xlink:href="#DejaVuSans-2e" x="63.623047"/>
       <use xlink:href="#DejaVuSans-30" x="95.410156"/>
      </g>
     </g>
    </g>
    <g id="ytick_2">
     <g id="line2d_6">
      <g>
       <use xlink:href="#m8664700757" x="81.221688" y="291.683813" style="stroke: #000000; stroke-width: 0.8"/>
      </g>
     </g>
     <g id="text_6">
      <!-- 2.5 -->
      <g transform="translate(48.776688 297.762563)scale(0.16 -0.16)">
       <defs>
        <path id="DejaVuSans-35" d="M 691 4666 
L 3169 4666 
L 3169 4134 
L 1269 4134 
L 1269 2991 
Q 1406 3038 1543 3061 
Q 1681 3084 1819 3084 
Q 2600 3084 3056 2656 
Q 3513 2228 3513 1497 
Q 3513 744 3044 326 
Q 2575 -91 1722 -91 
Q 1428 -91 1123 -41 
Q 819 9 494 109 
L 494 744 
Q 775 591 1075 516 
Q 1375 441 1709 441 
Q 2250 441 2565 725 
Q 2881 1009 2881 1497 
Q 2881 1984 2565 2268 
Q 2250 2553 1709 2553 
Q 1456 2553 1204 2497 
Q 953 2441 691 2322 
L 691 4666 
z
" transform="scale(0.015625)"/>
       </defs>
       <use xlink:href="#DejaVuSans-32"/>
       <use xlink:href="#DejaVuSans-2e" x="63.623047"/>
       <use xlink:href="#DejaVuSans-35" x="95.410156"/>
      </g>
     </g>
    </g>
    <g id="ytick_3">
     <g id="line2d_7">
      <g>
       <use xlink:href="#m8664700757" x="81.221688" y="249.019481" style="stroke: #000000; stroke-width: 0.8"/>
      </g>
     </g>
     <g id="text_7">
      <!-- 3.0 -->
      <g transform="translate(48.776688 255.098231)scale(0.16 -0.16)">
       <defs>
        <path id="DejaVuSans-33" d="M 2597 2516 
Q 3050 2419 3304 2112 
Q 3559 1806 3559 1356 
Q 3559 666 3084 287 
Q 2609 -91 1734 -91 
Q 1441 -91 1130 -33 
Q 819 25 488 141 
L 488 750 
Q 750 597 1062 519 
Q 1375 441 1716 441 
Q 2309 441 2620 675 
Q 2931 909 2931 1356 
Q 2931 1769 2642 2001 
Q 2353 2234 1838 2234 
L 1294 2234 
L 1294 2753 
L 1863 2753 
Q 2328 2753 2575 2939 
Q 2822 3125 2822 3475 
Q 2822 3834 2567 4026 
Q 2313 4219 1838 4219 
Q 1578 4219 1281 4162 
Q 984 4106 628 3988 
L 628 4550 
Q 988 4650 1302 4700 
Q 1616 4750 1894 4750 
Q 2613 4750 3031 4423 
Q 3450 4097 3450 3541 
Q 3450 3153 3228 2886 
Q 3006 2619 2597 2516 
z
" transform="scale(0.015625)"/>
       </defs>
       <use xlink:href="#DejaVuSans-33"/>
       <use xlink:href="#DejaVuSans-2e" x="63.623047"/>
       <use xlink:href="#DejaVuSans-30" x="95.410156"/>
      </g>
     </g>
    </g>
    <g id="ytick_4">
     <g id="line2d_8">
      <g>
       <use xlink:href="#m8664700757" x="81.221688" y="206.355149" style="stroke: #000000; stroke-width: 0.8"/>
      </g>
     </g>
     <g id="text_8">
      <!-- 3.5 -->
      <g transform="translate(48.776688 212.433899)scale(0.16 -0.16)">
       <use xlink:href="#DejaVuSans-33"/>
       <use xlink:href="#DejaVuSans-2e" x="63.623047"/>
       <use xlink:href="#DejaVuSans-35" x="95.410156"/>
      </g>
     </g>
    </g>
    <g id="ytick_5">
     <g id="line2d_9">
      <g>
       <use xlink:href="#m8664700757" x="81.221688" y="163.690818" style="stroke: #000000; stroke-width: 0.8"/>
      </g>
     </g>
     <g id="text_9">
      <!-- 4.0 -->
      <g transform="translate(48.776688 169.769568)scale(0.16 -0.16)">
       <defs>
        <path id="DejaVuSans-34" d="M 2419 4116 
L 825 1625 
L 2419 1625 
L 2419 4116 
z
M 2253 4666 
L 3047 4666 
L 3047 1625 
L 3713 1625 
L 3713 1100 
L 3047 1100 
L 3047 0 
L 2419 0 
L 2419 1100 
L 313 1100 
L 313 1709 
L 2253 4666 
z
" transform="scale(0.015625)"/>
       </defs>
       <use xlink:href="#DejaVuSans-34"/>
       <use xlink:href="#DejaVuSans-2e" x="63.623047"/>
       <use xlink:href="#DejaVuSans-30" x="95.410156"/>
      </g>
     </g>
    </g>
    <g id="ytick_6">
     <g id="line2d_10">
      <g>
       <use xlink:href="#m8664700757" x="81.221688" y="121.026486" style="stroke: #000000; stroke-width: 0.8"/>
      </g>
     </g>
     <g id="text_10">
      <!-- 4.5 -->
      <g transform="translate(48.776688 127.105236)scale(0.16 -0.16)">
       <use xlink:href="#DejaVuSans-34"/>
       <use xlink:href="#DejaVuSans-2e" x="63.623047"/>
       <use xlink:href="#DejaVuSans-35" x="95.410156"/>
      </g>
     </g>
    </g>
    <g id="ytick_7">
     <g id="line2d_11">
      <g>
       <use xlink:href="#m8664700757" x="81.221688" y="78.362155" style="stroke: #000000; stroke-width: 0.8"/>
      </g>
     </g>
     <g id="text_11">
      <!-- 5.0 -->
      <g transform="translate(48.776688 84.440905)scale(0.16 -0.16)">
       <use xlink:href="#DejaVuSans-35"/>
       <use xlink:href="#DejaVuSans-2e" x="63.623047"/>
       <use xlink:href="#DejaVuSans-30" x="95.410156"/>
      </g>
     </g>
    </g>
    <g id="ytick_8">
     <g id="line2d_12">
      <g>
       <use xlink:href="#m8664700757" x="81.221688" y="35.697823" style="stroke: #000000; stroke-width: 0.8"/>
      </g>
     </g>
     <g id="text_12">
      <!-- 5.5 -->
      <g transform="translate(48.776688 41.776573)scale(0.16 -0.16)">
       <use xlink:href="#DejaVuSans-35"/>
       <use xlink:href="#DejaVuSans-2e" x="63.623047"/>
       <use xlink:href="#DejaVuSans-35" x="95.410156"/>
      </g>
     </g>
    </g>
    <g id="text_13">
     <!-- Avg distance to nearest -->
     <g transform="translate(20.877188 298.416028)rotate(-90)scale(0.18 -0.18)">
      <defs>
       <path id="DejaVuSans-69" d="M 603 3500 
L 1178 3500 
L 1178 0 
L 603 0 
L 603 3500 
z
M 603 4863 
L 1178 4863 
L 1178 4134 
L 603 4134 
L 603 4863 
z
" transform="scale(0.015625)"/>
       <path id="DejaVuSans-73" d="M 2834 3397 
L 2834 2853 
Q 2591 2978 2328 3040 
Q 2066 3103 1784 3103 
Q 1356 3103 1142 2972 
Q 928 2841 928 2578 
Q 928 2378 1081 2264 
Q 1234 2150 1697 2047 
L 1894 2003 
Q 2506 1872 2764 1633 
Q 3022 1394 3022 966 
Q 3022 478 2636 193 
Q 2250 -91 1575 -91 
Q 1294 -91 989 -36 
Q 684 19 347 128 
L 347 722 
Q 666 556 975 473 
Q 1284 391 1588 391 
Q 1994 391 2212 530 
Q 2431 669 2431 922 
Q 2431 1156 2273 1281 
Q 2116 1406 1581 1522 
L 1381 1569 
Q 847 1681 609 1914 
Q 372 2147 372 2553 
Q 372 3047 722 3315 
Q 1072 3584 1716 3584 
Q 2034 3584 2315 3537 
Q 2597 3491 2834 3397 
z
" transform="scale(0.015625)"/>
       <path id="DejaVuSans-61" d="M 2194 1759 
Q 1497 1759 1228 1600 
Q 959 1441 959 1056 
Q 959 750 1161 570 
Q 1363 391 1709 391 
Q 2188 391 2477 730 
Q 2766 1069 2766 1631 
L 2766 1759 
L 2194 1759 
z
M 3341 1997 
L 3341 0 
L 2766 0 
L 2766 531 
Q 2569 213 2275 61 
Q 1981 -91 1556 -91 
Q 1019 -91 701 211 
Q 384 513 384 1019 
Q 384 1609 779 1909 
Q 1175 2209 1959 2209 
L 2766 2209 
L 2766 2266 
Q 2766 2663 2505 2880 
Q 2244 3097 1772 3097 
Q 1472 3097 1187 3025 
Q 903 2953 641 2809 
L 641 3341 
Q 956 3463 1253 3523 
Q 1550 3584 1831 3584 
Q 2591 3584 2966 3190 
Q 3341 2797 3341 1997 
z
" transform="scale(0.015625)"/>
      </defs>
      <use xlink:href="#DejaVuSans-41"/>
      <use xlink:href="#DejaVuSans-76" x="62.533203"/>
      <use xlink:href="#DejaVuSans-67" x="121.712891"/>
      <use xlink:href="#DejaVuSans-20" x="185.189453"/>
      <use xlink:href="#DejaVuSans-64" x="216.976562"/>
      <use xlink:href="#DejaVuSans-69" x="280.453125"/>
      <use xlink:href="#DejaVuSans-73" x="308.236328"/>
      <use xlink:href="#DejaVuSans-74" x="360.335938"/>
      <use xlink:href="#DejaVuSans-61" x="399.544922"/>
      <use xlink:href="#DejaVuSans-6e" x="460.824219"/>
      <use xlink:href="#DejaVuSans-63" x="524.203125"/>
      <use xlink:href="#DejaVuSans-65" x="579.183594"/>
      <use xlink:href="#DejaVuSans-20" x="640.707031"/>
      <use xlink:href="#DejaVuSans-74" x="672.494141"/>
      <use xlink:href="#DejaVuSans-6f" x="711.703125"/>
      <use xlink:href="#DejaVuSans-20" x="772.884766"/>
      <use xlink:href="#DejaVuSans-6e" x="804.671875"/>
      <use xlink:href="#DejaVuSans-65" x="868.050781"/>
      <use xlink:href="#DejaVuSans-61" x="929.574219"/>
      <use xlink:href="#DejaVuSans-72" x="990.853516"/>
      <use xlink:href="#DejaVuSans-65" x="1029.716797"/>
      <use xlink:href="#DejaVuSans-73" x="1091.240234"/>
      <use xlink:href="#DejaVuSans-74" x="1143.339844"/>
     </g>
     <!-- two genes (μm) -->
     <g transform="translate(41.03325 262.799935)rotate(-90)scale(0.18 -0.18)">
      <defs>
       <path id="DejaVuSans-77" d="M 269 3500 
L 844 3500 
L 1563 769 
L 2278 3500 
L 2956 3500 
L 3675 769 
L 4391 3500 
L 4966 3500 
L 4050 0 
L 3372 0 
L 2619 2869 
L 1863 0 
L 1184 0 
L 269 3500 
z
" transform="scale(0.015625)"/>
       <path id="DejaVuSans-28" d="M 1984 4856 
Q 1566 4138 1362 3434 
Q 1159 2731 1159 2009 
Q 1159 1288 1364 580 
Q 1569 -128 1984 -844 
L 1484 -844 
Q 1016 -109 783 600 
Q 550 1309 550 2009 
Q 550 2706 781 3412 
Q 1013 4119 1484 4856 
L 1984 4856 
z
" transform="scale(0.015625)"/>
       <path id="DejaVuSans-3bc" d="M 544 -1331 
L 544 3500 
L 1119 3500 
L 1119 1325 
Q 1119 872 1334 640 
Q 1550 409 1972 409 
Q 2434 409 2667 671 
Q 2900 934 2900 1459 
L 2900 3500 
L 3475 3500 
L 3475 806 
Q 3475 619 3529 530 
Q 3584 441 3700 441 
Q 3728 441 3778 458 
Q 3828 475 3916 513 
L 3916 50 
Q 3788 -22 3673 -56 
Q 3559 -91 3450 -91 
Q 3234 -91 3106 31 
Q 2978 153 2931 403 
Q 2775 156 2548 32 
Q 2322 -91 2016 -91 
Q 1697 -91 1473 31 
Q 1250 153 1119 397 
L 1119 -1331 
L 544 -1331 
z
" transform="scale(0.015625)"/>
       <path id="DejaVuSans-6d" d="M 3328 2828 
Q 3544 3216 3844 3400 
Q 4144 3584 4550 3584 
Q 5097 3584 5394 3201 
Q 5691 2819 5691 2113 
L 5691 0 
L 5113 0 
L 5113 2094 
Q 5113 2597 4934 2840 
Q 4756 3084 4391 3084 
Q 3944 3084 3684 2787 
Q 3425 2491 3425 1978 
L 3425 0 
L 2847 0 
L 2847 2094 
Q 2847 2600 2669 2842 
Q 2491 3084 2119 3084 
Q 1678 3084 1418 2786 
Q 1159 2488 1159 1978 
L 1159 0 
L 581 0 
L 581 3500 
L 1159 3500 
L 1159 2956 
Q 1356 3278 1631 3431 
Q 1906 3584 2284 3584 
Q 2666 3584 2933 3390 
Q 3200 3197 3328 2828 
z
" transform="scale(0.015625)"/>
       <path id="DejaVuSans-29" d="M 513 4856 
L 1013 4856 
Q 1481 4119 1714 3412 
Q 1947 2706 1947 2009 
Q 1947 1309 1714 600 
Q 1481 -109 1013 -844 
L 513 -844 
Q 928 -128 1133 580 
Q 1338 1288 1338 2009 
Q 1338 2731 1133 3434 
Q 928 4138 513 4856 
z
" transform="scale(0.015625)"/>
      </defs>
      <use xlink:href="#DejaVuSans-74"/>
      <use xlink:href="#DejaVuSans-77" x="39.208984"/>
      <use xlink:href="#DejaVuSans-6f" x="120.996094"/>
      <use xlink:href="#DejaVuSans-20" x="182.177734"/>
      <use xlink:href="#DejaVuSans-67" x="213.964844"/>
      <use xlink:href="#DejaVuSans-65" x="277.441406"/>
      <use xlink:href="#DejaVuSans-6e" x="338.964844"/>
      <use xlink:href="#DejaVuSans-65" x="402.34375"/>
      <use xlink:href="#DejaVuSans-73" x="463.867188"/>
      <use xlink:href="#DejaVuSans-20" x="515.966797"/>
      <use xlink:href="#DejaVuSans-28" x="547.753906"/>
      <use xlink:href="#DejaVuSans-3bc" x="586.767578"/>
      <use xlink:href="#DejaVuSans-6d" x="650.390625"/>
      <use xlink:href="#DejaVuSans-29" x="747.802734"/>
     </g>
    </g>
   </g>
   <g id="line2d_13">
    <path d="M 133.644352 25.705374 
L 133.644352 23.998801 
L 256.991798 23.998801 
L 256.991798 25.705374 
" clip-path="url(#pf89ee02be1)" style="fill: none; stroke: #ff7f0e; stroke-linecap: square"/>
   </g>
   <g id="line2d_14">
    <path d="M 380.339244 25.705374 
L 380.339244 23.998801 
L 503.68669 23.998801 
L 503.68669 25.705374 
" clip-path="url(#pf89ee02be1)" style="fill: none; stroke: #2ca02c; stroke-linecap: square"/>
   </g>
   <g id="patch_3">
    <path d="M 81.221688 376.773619 
L 81.221688 7.2 
" style="fill: none; stroke: #000000; stroke-width: 0.8; stroke-linejoin: miter; stroke-linecap: square"/>
   </g>
   <g id="patch_4">
    <path d="M 556.109354 376.773619 
L 556.109354 7.2 
" style="fill: none; stroke: #000000; stroke-width: 0.8; stroke-linejoin: miter; stroke-linecap: square"/>
   </g>
   <g id="patch_5">
    <path d="M 81.221688 376.773619 
L 556.109354 376.773619 
" style="fill: none; stroke: #000000; stroke-width: 0.8; stroke-linejoin: miter; stroke-linecap: square"/>
   </g>
   <g id="patch_6">
    <path d="M 81.221688 7.2 
L 556.109354 7.2 
" style="fill: none; stroke: #000000; stroke-width: 0.8; stroke-linejoin: miter; stroke-linecap: square"/>
   </g>
   <g id="PathCollection_1">
    <defs>
     <path id="me9e6873c3f" d="M 0 3 
C 0.795609 3 1.55874 2.683901 2.12132 2.12132 
C 2.683901 1.55874 3 0.795609 3 0 
C 3 -0.795609 2.683901 -1.55874 2.12132 -2.12132 
C 1.55874 -2.683901 0.795609 -3 0 -3 
C -0.795609 -3 -1.55874 -2.683901 -2.12132 -2.12132 
C -2.683901 -1.55874 -3 -0.795609 -3 0 
C -3 0.795609 -2.683901 1.55874 -2.12132 2.12132 
C -1.55874 2.683901 -0.795609 3 0 3 
z
" style="stroke: #000000"/>
    </defs>
    <g clip-path="url(#pf89ee02be1)">
     <use xlink:href="#me9e6873c3f" x="133.644352" y="257.426821" style="stroke: #000000"/>
    </g>
   </g>
   <g id="PathCollection_2">
    <g clip-path="url(#pf89ee02be1)">
     <use xlink:href="#me9e6873c3f" x="256.991798" y="244.449903" style="stroke: #000000"/>
    </g>
   </g>
   <g id="PathCollection_3">
    <g clip-path="url(#pf89ee02be1)">
     <use xlink:href="#me9e6873c3f" x="380.339244" y="273.151572" style="stroke: #000000"/>
    </g>
   </g>
   <g id="PathCollection_4">
    <g clip-path="url(#pf89ee02be1)">
     <use xlink:href="#me9e6873c3f" x="503.68669" y="284.412132" style="stroke: #000000"/>
    </g>
   </g>
   <g id="text_14">
    <!-- n.s. -->
    <g transform="translate(180.995575 20.671301)scale(0.16 -0.16)">
     <use xlink:href="#DejaVuSans-6e"/>
     <use xlink:href="#DejaVuSans-2e" x="63.378906"/>
     <use xlink:href="#DejaVuSans-73" x="95.166016"/>
     <use xlink:href="#DejaVuSans-2e" x="147.265625"/>
    </g>
   </g>
   <g id="text_15">
    <!-- * -->
    <g transform="translate(438.012967 20.671301)scale(0.16 -0.16)">
     <defs>
      <path id="DejaVuSans-2a" d="M 3009 3897 
L 1888 3291 
L 3009 2681 
L 2828 2375 
L 1778 3009 
L 1778 1831 
L 1422 1831 
L 1422 3009 
L 372 2375 
L 191 2681 
L 1313 3291 
L 191 3897 
L 372 4206 
L 1422 3572 
L 1422 4750 
L 1778 4750 
L 1778 3572 
L 2828 4206 
L 3009 3897 
z
" transform="scale(0.015625)"/>
     </defs>
     <use xlink:href="#DejaVuSans-2a"/>
    </g>
   </g>
  </g>
 </g>
 <defs>
  <clipPath id="pf89ee02be1">
   <rect x="81.221688" y="7.2" width="474.887667" height="369.573619"/>
  </clipPath>
 </defs>
</svg>
